<svg width="113" height="86" viewBox="0 0 113 86" fill="none" xmlns="http://www.w3.org/2000/svg">
<path d="M17.0603 1.7585C10.6673 4.25075 5.90454 8.60259 2.77203 14.814C1.01671 18.2987 0.0926895 22.0961 0 26.2061C0 26.4833 0 26.7598 0 27.0356C0.123589 31.2503 1.10278 35.1125 2.93756 38.6223C5.8067 44.1082 10.0001 48.1268 15.5176 50.678C19.4609 52.5007 23.6167 53.2926 27.9852 53.0537C29.4389 52.9741 30.894 52.7654 32.3507 52.4277C38.6142 50.981 43.7169 47.6696 47.6586 42.4934C50.3998 38.8922 52.0823 34.7837 52.7061 30.1679C53.4962 24.3236 52.5031 18.865 49.7266 13.7921C47.9154 10.4828 45.5119 7.68827 42.5163 5.40839C41.3598 4.52947 40.1165 3.74271 38.7864 3.04813C33.282 0.16804 27.4518 -0.671064 21.2956 0.530816C19.8478 0.813958 18.4361 1.22319 17.0603 1.7585ZM4.11832 26.5489C4.11832 20.5948 6.47823 14.8845 10.6789 10.6743C14.8795 6.46412 20.5769 4.09885 26.5175 4.09885C32.4581 4.09885 38.1554 6.46412 42.3561 10.6743C46.5567 14.8845 48.9166 20.5948 48.9166 26.5489C48.9166 32.5031 46.5567 38.2134 42.3561 42.4236C38.1554 46.6338 32.4581 48.999 26.5175 48.999C20.5769 48.999 14.8795 46.6338 10.6789 42.4236C6.47823 38.2134 4.11832 32.5031 4.11832 26.5489Z" fill="url(#paint0_linear_429_5454)"/>
<path d="M38.292 14.3583C37.8844 14.4439 37.4908 14.6857 37.1112 15.0839C36.9185 15.2859 36.8192 15.3899 36.8133 15.3958C33.5822 18.5988 30.3739 21.8247 27.1884 25.0735C27.0148 25.1576 26.8846 25.2896 26.7978 25.4695C26.7789 25.5086 26.7508 25.5426 26.7161 25.5687C26.6814 25.5947 26.6409 25.6121 26.5981 25.6192C26.5553 25.6264 26.5114 25.6231 26.4701 25.6098C26.4288 25.5964 26.3913 25.5733 26.3608 25.5425C22.8384 22.012 19.3439 18.5096 15.8774 15.0352C15.1947 14.3524 14.4759 14.1401 13.7211 14.3982C13.0296 14.6356 12.5771 15.0979 12.3638 15.7851C12.1328 16.5328 12.3579 17.2495 13.0391 17.9352C20.9521 25.8986 25.0108 29.9599 25.2153 30.1192C25.9083 30.6604 26.658 30.7482 27.4643 30.3824C27.7306 30.2615 28.0749 29.9813 28.4972 29.5419C28.9621 29.0567 29.1976 28.8119 29.2034 28.8075C36.1041 21.9383 39.8097 18.2051 40.3203 17.6078C40.669 17.1979 40.819 16.7289 40.7705 16.201C40.7263 15.7247 40.5439 15.3029 40.2231 14.9357C39.7391 14.3812 39.0954 14.1888 38.292 14.3583Z" fill="url(#paint1_linear_429_5454)"/>
<path d="M69.3714 18.893C66.4876 18.9004 63.664 18.9107 60.9008 18.924C59.3588 18.9314 57.7838 18.9012 56.1756 18.8333C56.1372 18.8318 56.0991 18.8393 56.0641 18.8552C56.0292 18.871 55.9984 18.8948 55.9742 18.9246C55.95 18.9544 55.9331 18.9895 55.9247 19.027C55.9164 19.0645 55.9169 19.1035 55.9262 19.1408C56.6412 21.9545 56.9355 24.7845 56.809 27.6306C56.5486 33.4469 54.8388 38.7152 51.6798 43.4357C50.8677 44.6494 49.962 45.8085 48.963 46.9131C44.6284 51.7044 39.2829 54.8212 32.9267 56.2634C31.0257 56.694 28.915 56.9049 26.5947 56.8961C18.542 56.8636 11.5921 54.1421 5.7449 48.7314C5.63013 48.6267 5.57275 48.6518 5.57275 48.8066V63.1894C5.57275 63.2298 5.58856 63.2687 5.61671 63.2973C5.64485 63.3259 5.68303 63.342 5.72283 63.342L8.84578 63.3553C8.8652 63.3553 8.88443 63.3591 8.90237 63.3665C8.92031 63.374 8.93661 63.3849 8.95034 63.3987C8.96407 63.4124 8.97497 63.4288 8.9824 63.4467C8.98983 63.4647 8.99365 63.484 8.99365 63.5035V76.351C8.99365 76.3656 8.99651 76.38 9.00205 76.3934C9.0076 76.4068 9.01572 76.419 9.02597 76.4292C9.03622 76.4395 9.04838 76.4477 9.06177 76.4532C9.07516 76.4588 9.08951 76.4616 9.104 76.4616H19.3512C19.3817 76.4617 19.4111 76.45 19.4333 76.429C19.4554 76.4081 19.4687 76.3793 19.4704 76.3488C19.6455 73.4039 20.6666 70.9662 22.5338 69.0358C23.552 67.9829 24.7607 67.1629 26.1599 66.576C28.6657 65.526 31.1942 65.4722 33.7455 66.4145C35.1712 66.941 36.4167 67.7049 37.482 68.7062C39.5404 70.6425 40.68 73.1863 40.9007 76.3378C40.9029 76.3714 40.9179 76.4029 40.9425 76.4259C40.9671 76.449 40.9995 76.4617 41.0331 76.4616H69.303C69.3609 76.4616 69.4165 76.4386 69.4575 76.3975C69.4985 76.3564 69.5215 76.3007 69.5215 76.2427V19.0435C69.5215 19.0036 69.5057 18.9653 69.4775 18.9371C69.4494 18.9089 69.4112 18.893 69.3714 18.893ZM11.9787 63.4688C11.9787 63.4526 11.9819 63.4365 11.9882 63.4214C11.9944 63.4064 12.0035 63.3928 12.015 63.3813C12.0265 63.3698 12.0402 63.3607 12.0552 63.3545C12.0702 63.3483 12.0863 63.3451 12.1025 63.3452L13.515 63.3476C13.5312 63.3477 13.5473 63.3509 13.5623 63.3572C13.5773 63.3634 13.5909 63.3726 13.6024 63.3841C13.6138 63.3956 13.6229 63.4093 13.6291 63.4243C13.6353 63.4394 13.6384 63.4555 13.6384 63.4717L13.6273 69.8645C13.6272 69.8808 13.624 69.8969 13.6178 69.9119C13.6115 69.927 13.6024 69.9406 13.5909 69.9521C13.5794 69.9636 13.5658 69.9727 13.5508 69.9789C13.5358 69.9851 13.5197 69.9882 13.5034 69.9882L12.091 69.9857C12.0747 69.9857 12.0587 69.9825 12.0437 69.9762C12.0287 69.97 12.0151 69.9608 12.0036 69.9493C11.9922 69.9378 11.9831 69.9241 11.9769 69.9091C11.9707 69.894 11.9675 69.8779 11.9676 69.8616L11.9787 63.4688Z" fill="url(#paint2_linear_429_5454)"/>
<path d="M71.5078 20.7821L71.5211 29.3361C71.5211 29.3819 71.5392 29.4258 71.5715 29.4581C71.6038 29.4905 71.6475 29.5087 71.6932 29.5087L85.869 29.4711C85.944 29.4711 85.9609 29.4386 85.9197 29.3737C85.7814 29.1555 85.5615 28.8834 85.2598 28.5575C83.4633 26.6109 81.4954 25.0226 79.356 23.7927C77.0121 22.4478 74.4689 21.3897 71.7263 20.6184C71.7007 20.6113 71.6738 20.61 71.6477 20.6149C71.6215 20.6197 71.5969 20.6305 71.5757 20.6464C71.5546 20.6622 71.5374 20.6827 71.5256 20.7063C71.5139 20.7298 71.5077 20.7558 71.5078 20.7821Z" fill="url(#paint3_linear_429_5454)"/>
<path d="M85.0811 32.9373C80.3036 32.9314 75.5548 32.9366 70.8347 32.9528C70.7937 32.9528 70.7544 32.9694 70.7254 32.9988C70.6965 33.0283 70.6802 33.0682 70.6802 33.1099V76.298C70.6802 76.356 70.7032 76.4117 70.7442 76.4528C70.7851 76.4939 70.8407 76.517 70.8987 76.517L84.0526 76.5037C84.1244 76.5039 84.1937 76.4766 84.2465 76.4274C84.2993 76.3781 84.3317 76.3106 84.3373 76.2382C84.53 73.7548 85.3054 71.6386 86.6635 69.8896C87.5654 68.7276 88.6807 67.7823 90.0094 67.0538C92.0472 65.936 94.2667 65.5511 96.668 65.8991C97.5464 66.0259 98.4373 66.2958 99.3407 66.7087C100.201 67.0995 100.987 67.5832 101.698 68.1598C104.102 70.1123 105.453 72.825 105.75 76.298C105.755 76.358 105.783 76.4137 105.827 76.4543C105.871 76.4948 105.929 76.5172 105.988 76.517H112.139C112.199 76.5169 112.256 76.4959 112.302 76.4575C112.348 76.4192 112.38 76.3659 112.391 76.3068C112.763 74.3219 112.966 72.3229 113 70.3099C113 69.8852 113 69.4612 113 69.038C112.897 68.2712 112.823 67.5014 112.779 66.7286C112.363 62.4992 111.172 58.6974 109.206 55.3233C106.477 50.6352 103.341 46.2384 99.7997 42.1328C98.1356 40.2025 96.32 38.4284 94.3528 36.8106C92.9344 35.6456 91.4763 34.7099 89.9785 34.0036C88.4747 33.2957 86.8423 32.9403 85.0811 32.9373ZM75.4893 36.8527C78.9543 36.804 82.4275 36.7775 85.9087 36.773C86.7371 36.7716 87.4132 36.8623 87.937 37.0451C89.1023 37.4536 90.244 38.1526 91.3623 39.1422C92.5129 40.1597 93.2515 40.8388 93.5781 41.1794C96.2928 44.0153 98.8235 47.1424 101.17 50.5608C101.225 50.6389 101.204 50.678 101.109 50.678H75.6195C75.5534 50.678 75.4899 50.6517 75.4432 50.6048C75.3964 50.5579 75.3701 50.4943 75.3701 50.428V36.9721C75.3701 36.9564 75.3732 36.9409 75.3792 36.9264C75.3852 36.9119 75.394 36.8988 75.405 36.8877C75.4161 36.8766 75.4292 36.8678 75.4437 36.8618C75.4581 36.8558 75.4736 36.8527 75.4893 36.8527Z" fill="url(#paint4_linear_429_5454)"/>
<path d="M12.1025 63.3452L13.515 63.3476C13.5833 63.3478 13.6385 63.4033 13.6384 63.4717L13.6273 69.8645C13.6272 69.933 13.5717 69.9883 13.5034 69.9882L12.091 69.9857C12.0227 69.9856 11.9675 69.9301 11.9676 69.8616L11.9787 63.4688C11.9788 63.4004 12.0343 63.345 12.1025 63.3452Z" fill="url(#paint5_linear_429_5454)"/>
<path d="M85.5291 76.4793C85.5291 79.0026 86.5292 81.4226 88.3094 83.2068C90.0895 84.991 92.504 85.9934 95.0215 85.9934C97.5391 85.9934 99.9535 84.991 101.734 83.2068C103.514 81.4226 104.514 79.0026 104.514 76.4793C104.514 73.9561 103.514 71.5361 101.734 69.7519C99.9535 67.9677 97.5391 66.9653 95.0215 66.9653C92.504 66.9653 90.0895 67.9677 88.3094 69.7519C86.5292 71.5361 85.5291 73.9561 85.5291 76.4793ZM90.8635 76.4793C90.8635 75.374 91.3016 74.314 92.0813 73.5325C92.8611 72.7509 93.9187 72.3118 95.0215 72.3118C96.1243 72.3118 97.1819 72.7509 97.9617 73.5325C98.7415 74.314 99.1796 75.374 99.1796 76.4793C99.1796 77.5846 98.7415 78.6447 97.9617 79.4262C97.1819 80.2078 96.1243 80.6468 95.0215 80.6468C93.9187 80.6468 92.8611 80.2078 92.0813 79.4262C91.3016 78.6447 90.8635 77.5846 90.8635 76.4793Z" fill="url(#paint6_linear_429_5454)"/>
<path d="M20.8145 76.4793C20.8145 77.7296 21.0602 78.9676 21.5376 80.1227C22.0149 81.2778 22.7146 82.3274 23.5967 83.2115C24.4788 84.0955 25.526 84.7968 26.6784 85.2753C27.8309 85.7537 29.0661 86 30.3136 86C32.8329 86 35.249 84.9969 37.0304 83.2115C38.8118 81.426 39.8126 79.0044 39.8126 76.4793C39.8126 73.9543 38.8118 71.5327 37.0304 69.7472C35.249 67.9617 32.8329 66.9587 30.3136 66.9587C29.0661 66.9587 27.8309 67.2049 26.6784 67.6834C25.526 68.1618 24.4788 68.8631 23.5967 69.7472C22.7146 70.6313 22.0149 71.6808 21.5376 72.8359C21.0602 73.991 20.8145 75.2291 20.8145 76.4793ZM26.1555 76.4793C26.1555 75.374 26.5936 74.314 27.3734 73.5325C28.1532 72.7509 29.2108 72.3118 30.3136 72.3118C31.4164 72.3118 32.474 72.7509 33.2538 73.5325C34.0335 74.314 34.4716 75.374 34.4716 76.4793C34.4716 77.5846 34.0335 78.6447 33.2538 79.4262C32.474 80.2078 31.4164 80.6468 30.3136 80.6468C29.2108 80.6468 28.1532 80.2078 27.3734 79.4262C26.5936 78.6447 26.1555 77.5846 26.1555 76.4793Z" fill="url(#paint7_linear_429_5454)"/>
<path d="M70.7552 77.623H84.2313C84.3045 77.623 84.3638 77.6824 84.3638 77.7557V80.6446C84.3638 80.7179 84.3045 80.7774 84.2313 80.7774H70.7552C70.6821 80.7774 70.6228 80.7179 70.6228 80.6446V77.7557C70.6228 77.6824 70.6821 77.623 70.7552 77.623Z" fill="url(#paint8_linear_429_5454)"/>
<path d="M40.9868 77.623H69.3162C69.3723 77.623 69.4178 77.6685 69.4178 77.7247V80.6712C69.4178 80.7274 69.3723 80.7729 69.3162 80.7729H40.9868C40.9307 80.7729 40.8853 80.7274 40.8853 80.6712V77.7247C40.8853 77.6685 40.9307 77.623 40.9868 77.623Z" fill="url(#paint9_linear_429_5454)"/>
<defs>
<linearGradient id="paint0_linear_429_5454" x1="69.5915" y1="82.7342" x2="29.4989" y2="34.0118" gradientUnits="userSpaceOnUse">
<stop stop-color="#7FAD39"/>
<stop offset="0.487446" stop-color="#B1D17F"/>
<stop offset="1" stop-color="#7FAD39"/>
</linearGradient>
<linearGradient id="paint1_linear_429_5454" x1="69.5915" y1="82.7342" x2="29.4989" y2="34.0118" gradientUnits="userSpaceOnUse">
<stop stop-color="#7FAD39"/>
<stop offset="0.487446" stop-color="#B1D17F"/>
<stop offset="1" stop-color="#7FAD39"/>
</linearGradient>
<linearGradient id="paint2_linear_429_5454" x1="69.5915" y1="82.7342" x2="29.4989" y2="34.0118" gradientUnits="userSpaceOnUse">
<stop stop-color="#7FAD39"/>
<stop offset="0.487446" stop-color="#B1D17F"/>
<stop offset="1" stop-color="#7FAD39"/>
</linearGradient>
<linearGradient id="paint3_linear_429_5454" x1="69.5915" y1="82.7342" x2="29.4989" y2="34.0118" gradientUnits="userSpaceOnUse">
<stop stop-color="#7FAD39"/>
<stop offset="0.487446" stop-color="#B1D17F"/>
<stop offset="1" stop-color="#7FAD39"/>
</linearGradient>
<linearGradient id="paint4_linear_429_5454" x1="69.5915" y1="82.7342" x2="29.4989" y2="34.0118" gradientUnits="userSpaceOnUse">
<stop stop-color="#7FAD39"/>
<stop offset="0.487446" stop-color="#B1D17F"/>
<stop offset="1" stop-color="#7FAD39"/>
</linearGradient>
<linearGradient id="paint5_linear_429_5454" x1="69.5915" y1="82.7342" x2="29.4989" y2="34.0118" gradientUnits="userSpaceOnUse">
<stop stop-color="#7FAD39"/>
<stop offset="0.487446" stop-color="#B1D17F"/>
<stop offset="1" stop-color="#7FAD39"/>
</linearGradient>
<linearGradient id="paint6_linear_429_5454" x1="69.5915" y1="82.7342" x2="29.4989" y2="34.0118" gradientUnits="userSpaceOnUse">
<stop stop-color="#7FAD39"/>
<stop offset="0.487446" stop-color="#B1D17F"/>
<stop offset="1" stop-color="#7FAD39"/>
</linearGradient>
<linearGradient id="paint7_linear_429_5454" x1="69.5915" y1="82.7342" x2="29.4989" y2="34.0118" gradientUnits="userSpaceOnUse">
<stop stop-color="#7FAD39"/>
<stop offset="0.487446" stop-color="#B1D17F"/>
<stop offset="1" stop-color="#7FAD39"/>
</linearGradient>
<linearGradient id="paint8_linear_429_5454" x1="69.5915" y1="82.7342" x2="29.4989" y2="34.0118" gradientUnits="userSpaceOnUse">
<stop stop-color="#7FAD39"/>
<stop offset="0.487446" stop-color="#B1D17F"/>
<stop offset="1" stop-color="#7FAD39"/>
</linearGradient>
<linearGradient id="paint9_linear_429_5454" x1="69.5915" y1="82.7342" x2="29.4989" y2="34.0118" gradientUnits="userSpaceOnUse">
<stop stop-color="#7FAD39"/>
<stop offset="0.487446" stop-color="#B1D17F"/>
<stop offset="1" stop-color="#7FAD39"/>
</linearGradient>
</defs>
</svg>
