<svg width="159" height="90" viewBox="0 0 159 90" fill="none" xmlns="http://www.w3.org/2000/svg">
<path d="M84.7239 0.746438C88.7055 1.84979 92.0269 3.97177 94.6882 7.11239C97.1283 9.99474 98.6708 13.3017 99.3154 17.0332C99.5551 18.4135 99.6284 19.7916 99.5355 21.1677C99.459 22.3186 99.1925 23.6616 98.7358 25.1968C97.8763 28.0771 96.6944 31.0369 95.1902 34.0763C92.9897 38.5248 91.0599 42.1706 89.4008 45.0137C86.2333 50.4375 82.8902 55.761 79.3714 60.9844C79.3555 61.0074 79.3342 61.0262 79.3093 61.0392C79.2845 61.0522 79.2569 61.059 79.2289 61.059C79.2008 61.059 79.1732 61.0522 79.1484 61.0392C79.1236 61.0262 79.1023 61.0074 79.0863 60.9844C74.5903 54.4263 70.3969 47.6367 66.5062 40.6158C64.2004 36.4524 62.1135 31.9357 60.2457 27.0657C59.4316 24.9416 58.977 22.8021 58.882 20.647C58.7911 18.6304 59.0514 16.5921 59.663 14.5321C60.7064 11.0216 62.5671 8.01946 65.2448 5.52556C69.0384 1.99236 73.489 0.15344 78.5966 0.00880579C80.6938 -0.0511139 82.7362 0.194763 84.7239 0.746438ZM89.3698 20.3836C89.3698 17.6883 88.2991 15.1034 86.3932 13.1975C84.4874 11.2917 81.9025 10.221 79.2072 10.221C76.5119 10.221 73.927 11.2917 72.0211 13.1975C70.1153 15.1034 69.0446 17.6883 69.0446 20.3836C69.0446 23.0789 70.1153 25.6638 72.0211 27.5696C73.927 29.4755 76.5119 30.5462 79.2072 30.5462C81.9025 30.5462 84.4874 29.4755 86.3932 27.5696C88.2991 25.6638 89.3698 23.0789 89.3698 20.3836Z" fill="url(#paint0_linear_417_360)"/>
<path d="M127.308 36.4008C128.771 39.1054 129.016 41.9723 128.043 45.0013C127.103 47.9291 125.666 51.0852 123.732 54.4697C121.521 58.3334 119.204 62.0681 116.78 65.6736C116.762 65.7005 116.737 65.7225 116.709 65.7376C116.68 65.7528 116.648 65.7608 116.616 65.7608C116.583 65.7608 116.551 65.7528 116.523 65.7376C116.494 65.7225 116.47 65.7005 116.451 65.6736C114.288 62.4421 112.277 59.2188 110.417 56.0038C108.4 52.5181 106.792 49.3114 105.591 46.3836C103.967 42.4268 104.285 38.7252 106.543 35.2788C108.027 33.0143 109.998 31.4439 112.456 30.5679C114.397 29.8798 116.432 29.697 118.562 30.0193C122.403 30.5999 125.319 32.7271 127.308 36.4008ZM122.613 41.84C122.613 41.0525 122.458 40.2726 122.156 39.545C121.855 38.8174 121.413 38.1563 120.856 37.5994C120.299 37.0425 119.638 36.6008 118.911 36.2994C118.183 35.998 117.403 35.8429 116.616 35.8429C115.828 35.8429 115.048 35.998 114.321 36.2994C113.593 36.6008 112.932 37.0425 112.375 37.5994C111.818 38.1563 111.376 38.8174 111.075 39.545C110.774 40.2726 110.619 41.0525 110.619 41.84C110.619 43.4306 111.25 44.956 112.375 46.0806C113.5 47.2053 115.025 47.8372 116.616 47.8372C118.206 47.8372 119.732 47.2053 120.856 46.0806C121.981 44.956 122.613 43.4306 122.613 41.84Z" fill="url(#paint1_linear_417_360)"/>
<path d="M40.4722 39.7139H60.4533C60.502 39.7138 60.5499 39.727 60.5919 39.7521C60.6339 39.7772 60.6685 39.8132 60.692 39.8565L64.3089 46.5293C64.3303 46.5693 64.3411 46.6141 64.3403 46.6595C64.3395 46.7049 64.3272 46.7492 64.3044 46.7882C64.2816 46.8271 64.2493 46.8595 64.2104 46.882C64.1715 46.9045 64.1275 46.9164 64.0826 46.9167C60.1424 46.9518 56.2858 46.9322 52.5129 46.8578C52.0191 46.8495 51.4995 46.7431 50.954 46.5386C48.6419 45.6728 46.3805 45.4838 44.1696 45.9714C40.3575 46.8123 37.503 48.8909 35.6063 52.2072C34.4823 54.1763 33.9388 56.3458 33.976 58.7157C33.9781 58.8177 33.9451 58.9154 33.8831 58.9915L15.0734 82.4253C14.8771 82.6712 14.936 82.7941 15.2501 82.7941L143.251 82.8127C143.472 82.8127 143.513 82.727 143.375 82.5555L125.455 60.1693C125.406 60.1087 125.377 60.034 125.372 59.9545C125.366 59.875 125.384 59.7944 125.424 59.723L128.873 53.4128C128.891 53.3823 128.915 53.3563 128.944 53.3369C128.974 53.3176 129.007 53.3056 129.041 53.302C129.076 53.2983 129.11 53.3031 129.142 53.3159C129.174 53.3288 129.202 53.3492 129.224 53.3756L158.326 89.718C158.467 89.8936 158.425 89.9814 158.202 89.9814L0.237089 90C-0.01912 90 -0.0676757 89.8998 0.0914215 89.6994L39.8926 39.9928C39.9623 39.9058 40.0505 39.8355 40.1509 39.7872C40.2512 39.7389 40.361 39.7139 40.4722 39.7139Z" fill="url(#paint2_linear_417_360)"/>
<path d="M98.0881 39.7139H100.543C100.563 39.7137 100.583 39.7178 100.601 39.726C100.619 39.7341 100.635 39.7461 100.649 39.7611C100.662 39.7761 100.672 39.7937 100.677 39.8129C100.683 39.832 100.685 39.8521 100.682 39.872C100.399 42.0745 100.648 44.2699 101.429 46.458C101.447 46.5099 101.452 46.5654 101.445 46.6198C101.437 46.6741 101.417 46.7258 101.386 46.7704C101.354 46.815 101.313 46.8513 101.265 46.8762C101.217 46.9011 101.164 46.9139 101.11 46.9136L94.1396 46.8609C94.1208 46.8608 94.1025 46.8557 94.0863 46.8462C94.0702 46.8366 94.0567 46.8229 94.0474 46.8064C94.038 46.7898 94.033 46.771 94.0329 46.7518C94.0327 46.7326 94.0375 46.7135 94.0466 46.6966L97.6728 39.9618C97.7131 39.8868 97.7731 39.8242 97.8462 39.7805C97.9193 39.7368 98.0029 39.7138 98.0881 39.7139Z" fill="url(#paint3_linear_417_360)"/>
<path d="M52.8848 51.3952C54.8353 53.1494 55.8581 55.262 55.9532 57.7332C56.0027 58.9605 55.7155 60.3924 55.0915 62.0288C54.4159 63.8058 53.545 65.6654 52.4788 67.6076C50.7329 70.7895 48.8072 73.9322 46.7018 77.0356C46.689 77.0548 46.6718 77.0705 46.6515 77.0814C46.6312 77.0923 46.6085 77.098 46.5855 77.098C46.5625 77.098 46.5399 77.0923 46.5196 77.0814C46.4993 77.0705 46.482 77.0548 46.4693 77.0356C45.0767 74.9447 43.7801 72.927 42.5797 70.9827C40.5465 67.6892 38.9194 64.3884 37.6983 61.0805C37.502 60.5432 37.3512 59.9317 37.2458 59.2457C37.1528 58.6258 37.1497 58.0018 37.2365 57.3737C37.6869 54.1608 39.1891 51.8063 41.7429 50.3104C43.5136 49.2732 45.3732 48.8217 47.3216 48.956C49.3857 49.1006 51.2402 49.9137 52.8848 51.3952ZM51.2918 58.3469C51.2918 57.1007 50.7968 55.9057 49.9156 55.0245C49.0345 54.1434 47.8394 53.6483 46.5933 53.6483C45.3471 53.6483 44.1521 54.1434 43.2709 55.0245C42.3898 55.9057 41.8947 57.1007 41.8947 58.3469C41.8947 59.593 42.3898 60.7881 43.2709 61.6693C44.1521 62.5504 45.3471 63.0454 46.5933 63.0454C47.8394 63.0454 49.0345 62.5504 49.9156 61.6693C50.7968 60.7881 51.2918 59.593 51.2918 58.3469Z" fill="url(#paint4_linear_417_360)"/>
<defs>
<linearGradient id="paint0_linear_417_360" x1="60.8516" y1="86.5823" x2="98.9908" y2="24.497" gradientUnits="userSpaceOnUse">
<stop stop-color="#7FAD39"/>
<stop offset="0.487446" stop-color="#B1D17F"/>
<stop offset="1" stop-color="#7FAD39"/>
</linearGradient>
<linearGradient id="paint1_linear_417_360" x1="60.8516" y1="86.5823" x2="98.9908" y2="24.497" gradientUnits="userSpaceOnUse">
<stop stop-color="#7FAD39"/>
<stop offset="0.487446" stop-color="#B1D17F"/>
<stop offset="1" stop-color="#7FAD39"/>
</linearGradient>
<linearGradient id="paint2_linear_417_360" x1="60.8516" y1="86.5823" x2="98.9908" y2="24.497" gradientUnits="userSpaceOnUse">
<stop stop-color="#7FAD39"/>
<stop offset="0.487446" stop-color="#B1D17F"/>
<stop offset="1" stop-color="#7FAD39"/>
</linearGradient>
<linearGradient id="paint3_linear_417_360" x1="60.8516" y1="86.5823" x2="98.9908" y2="24.497" gradientUnits="userSpaceOnUse">
<stop stop-color="#7FAD39"/>
<stop offset="0.487446" stop-color="#B1D17F"/>
<stop offset="1" stop-color="#7FAD39"/>
</linearGradient>
<linearGradient id="paint4_linear_417_360" x1="60.8516" y1="86.5823" x2="98.9908" y2="24.497" gradientUnits="userSpaceOnUse">
<stop stop-color="#7FAD39"/>
<stop offset="0.487446" stop-color="#B1D17F"/>
<stop offset="1" stop-color="#7FAD39"/>
</linearGradient>
</defs>
</svg>
