<svg width="202" height="90" viewBox="0 0 202 90" fill="none" xmlns="http://www.w3.org/2000/svg">
<path d="M156.587 0.0316436L201.83 37.4379C201.842 37.4482 201.852 37.461 201.859 37.4754C201.866 37.4898 201.869 37.5056 201.869 37.5216C201.869 37.5375 201.866 37.5533 201.859 37.5677C201.852 37.5822 201.842 37.595 201.83 37.6052L156.577 75.0368C156.51 75.0926 156.476 75.0774 156.476 74.9912V58.9538C156.476 58.9019 156.464 58.8507 156.44 58.8045C156.416 58.7582 156.382 58.7182 156.339 58.6877L147.892 52.6214C147.796 52.5522 147.807 52.5167 147.927 52.515L162.611 52.4998C162.646 52.4998 162.68 52.5139 162.705 52.5391C162.729 52.5643 162.743 52.5985 162.743 52.6341L162.758 61.5612C162.758 61.644 162.79 61.6592 162.855 61.6068L191.904 37.6077C191.919 37.5949 191.932 37.5788 191.94 37.5606C191.949 37.5424 191.953 37.5226 191.953 37.5026C191.953 37.4825 191.949 37.4627 191.94 37.4445C191.932 37.4263 191.919 37.4102 191.904 37.3974L162.875 13.4033C162.787 13.3307 162.743 13.3518 162.743 13.4667V22.3305C162.743 22.3889 162.72 22.445 162.679 22.4864C162.637 22.5277 162.581 22.5509 162.523 22.5509H124.826C124.784 22.5509 124.743 22.5431 124.705 22.5278C124.668 22.5126 124.635 22.4902 124.608 22.4622L118.939 16.4872C118.768 16.3064 118.809 16.216 119.06 16.216H156.382C156.407 16.216 156.431 16.2062 156.448 16.1886C156.466 16.171 156.476 16.1471 156.476 16.1223L156.491 0.0772549C156.491 -0.0072104 156.523 -0.0224142 156.587 0.0316436Z" fill="url(#paint0_linear_430_6098)"/>
<path d="M71.1688 0.743685C71.5182 1.31636 71.6955 1.95492 71.7006 2.65936C71.7073 3.52597 71.7107 4.42553 71.7107 5.35802C71.7105 5.39384 71.7239 5.42845 71.7483 5.45514C71.7726 5.48183 71.8061 5.4987 71.8424 5.50246L108.466 9.65308C108.523 9.65984 108.577 9.68748 108.616 9.73084C108.655 9.7742 108.677 9.83032 108.678 9.88874L108.81 19.9055C108.811 19.9645 108.832 20.0212 108.871 20.0654C108.911 20.1096 108.964 20.1383 109.023 20.1462L109.904 20.2729C109.925 20.2762 109.946 20.2748 109.966 20.269C109.987 20.2631 110.006 20.2528 110.022 20.2389C110.038 20.2249 110.051 20.2076 110.06 20.1881C110.069 20.1686 110.073 20.1474 110.073 20.1259V7.67153C110.073 7.57763 110.044 7.48637 109.99 7.41053C109.728 7.03719 109.611 6.6571 109.638 6.27025C109.665 5.89353 109.845 5.5751 110.177 5.31495C110.795 4.83012 111.356 5.01678 111.861 5.87495C112.18 6.41722 112.323 7.18247 112.289 8.17072C112.247 9.38871 112.272 12.1288 112.365 16.3909C112.366 16.4197 112.379 16.4488 112.403 16.4742C112.426 16.4997 112.459 16.5201 112.497 16.5328L113.305 16.8014C113.335 16.8118 113.362 16.8358 113.381 16.87C113.4 16.9041 113.411 16.9466 113.411 16.9914L113.472 20.6657C113.472 20.7019 113.485 20.7368 113.508 20.7648C113.531 20.7928 113.563 20.8123 113.598 20.8202C114.898 21.126 116.119 21.6243 117.262 22.3153C118.093 22.8187 118.771 23.513 119.296 24.3982C119.365 24.5147 119.333 24.5604 119.199 24.535C114.388 23.6414 109.553 22.9961 104.693 22.5991C97.6226 22.0213 90.5409 21.6776 83.4474 21.5678C82.7367 21.5559 82.0657 21.6362 81.4343 21.8085C78.4345 22.6227 75.5723 23.7841 72.8476 25.2927C72.8146 25.3112 72.7871 25.3386 72.768 25.372C72.7488 25.4054 72.7388 25.4436 72.7388 25.4827C72.7371 46.5399 72.7531 57.1766 72.7869 57.3929C72.8679 57.9047 73.1085 58.2341 73.5086 58.3811C73.7398 58.4656 74.1045 58.4689 74.6025 58.3912C75.8179 58.2003 77.0224 57.9047 78.2159 57.5043C78.3087 57.4723 78.3434 57.5044 78.3197 57.6006C77.1802 62.2918 76.5607 67.016 76.4611 71.7731C76.4603 71.8106 76.4711 71.8474 76.492 71.8783C76.5128 71.9092 76.5428 71.9327 76.5776 71.9454C76.927 72.067 77.2841 72.0966 77.6487 72.0341C77.6837 72.0281 77.7156 72.0096 77.7387 71.9818C77.7618 71.9541 77.7748 71.9187 77.7753 71.882C77.8175 68.821 78.1205 65.787 78.6844 62.7801C78.9865 61.1718 79.4482 59.6118 80.0695 58.0998C80.4611 57.1488 80.9963 56.2889 81.6749 55.5203C82.5071 54.5793 83.5124 54.0869 84.6907 54.043C85.3525 54.0176 85.9568 54.1646 86.5038 54.4839C87.0625 54.8099 87.5293 55.2559 87.9041 55.8218C88.7887 57.153 89.382 58.5973 89.6842 60.1549C89.693 60.1979 89.7162 60.2366 89.7499 60.2643C89.7836 60.2921 89.8257 60.3071 89.8691 60.3069H105.898C105.971 60.3069 106.043 60.3242 106.11 60.3576C106.177 60.3909 106.237 60.4394 106.285 60.4995L108.157 62.8105C108.216 62.8831 108.241 62.8713 108.233 62.775L107.987 59.6329C107.985 59.6053 107.988 59.5776 107.997 59.5515C108.006 59.5253 108.02 59.5014 108.038 59.4812C108.056 59.4609 108.078 59.4448 108.102 59.4339C108.126 59.4229 108.153 59.4173 108.179 59.4175L136.044 59.9952C136.081 59.9959 136.118 59.9885 136.152 59.9734C136.187 59.9584 136.217 59.936 136.242 59.9079C136.267 59.8798 136.286 59.8465 136.297 59.8104C136.308 59.7744 136.312 59.7363 136.307 59.6988C136.245 59.1818 136.07 58.7899 135.783 58.523C135.567 58.322 135.195 58.2155 134.666 58.2037C124.566 57.979 114.35 57.7915 104.019 57.6412C103.962 57.6405 103.908 57.6173 103.868 57.5765C103.829 57.5357 103.806 57.4806 103.806 57.4233C103.806 56.6428 103.823 55.9578 103.857 55.3682C103.908 54.5117 103.637 53.9205 103.047 53.5945C102.734 53.4238 102.171 53.3385 101.358 53.3385C99.6509 53.3385 97.9712 53.3385 96.3186 53.3385C96.2561 53.3385 96.1962 53.3633 96.152 53.4075C96.1079 53.4517 96.0831 53.5117 96.0831 53.5742V57.3118C96.0831 57.3561 96.0736 57.4 96.0554 57.4404C96.0371 57.4808 96.0104 57.5169 95.9771 57.5461C95.9437 57.5754 95.9046 57.5972 95.8622 57.6101C95.8197 57.623 95.775 57.6267 95.7311 57.6209C94.9208 57.5128 94.514 57.1411 94.5106 56.506C94.5038 55.3235 94.5005 54.1409 94.5005 52.9584C94.3823 52.0158 93.9763 51.3029 93.2825 50.8198C91.466 49.5562 89.447 49.0975 87.2254 49.4438C87.0279 49.4742 86.9317 49.4455 86.9368 49.3577C86.9382 49.3274 86.9539 49.2945 86.9821 49.2627C87.0104 49.2308 87.0499 49.2014 87.0963 49.1778C88.3624 48.5206 89.8176 48.1127 91.4618 47.9539C96.5262 47.4623 101.332 48.4387 105.88 50.8831C106.273 51.0943 106.544 51.0157 106.69 50.6475C106.753 50.4937 106.782 50.2564 106.779 49.9354C106.749 47.121 106.707 44.3067 106.655 41.4923C106.689 40.1053 106.242 39.0867 105.315 38.4363C104.846 38.1052 103.886 37.8096 102.434 37.5494C94.1198 36.0628 89.9298 35.3128 89.864 35.2993C87.4196 34.8246 85.2757 35.48 83.4322 37.2656C83.3174 37.3754 83.2575 37.3518 83.2524 37.1947C83.0988 33.5846 82.973 30.1021 82.8751 26.7472C82.8464 25.7133 82.8397 25.1542 82.8549 25.0697C82.9899 24.3602 83.5166 23.9851 84.435 23.9446C85.1946 23.9108 88.0864 23.9792 93.1103 24.1499C101.895 24.4455 110.124 25.2428 117.797 26.5419C118.793 26.7108 119.383 27.3443 119.569 28.4424C119.681 29.1029 120.241 31.723 121.251 36.3027C121.259 36.3388 121.278 36.3717 121.305 36.3973C121.332 36.423 121.366 36.4403 121.402 36.4472C126.023 37.3509 130.645 38.2513 135.269 39.1484C136.028 39.4271 136.575 39.8866 136.91 40.5268C137.104 40.9002 137.235 41.5598 137.302 42.5059C137.503 45.3152 137.712 48.1253 137.928 50.9363C137.931 50.9824 137.952 51.0255 137.985 51.0577C138.019 51.0899 138.063 51.1089 138.11 51.1112C140.132 51.2075 141.987 51.6805 143.673 52.5302C144.281 52.8376 144.735 53.3123 145.035 53.9543C145.23 54.3682 145.343 54.9873 145.375 55.8117C145.42 56.9672 145.454 58.1226 145.476 59.2781C145.701 60.3407 145.295 60.9159 144.258 61.0037C142.482 60.9294 140.705 60.8821 138.925 60.8618C138.888 60.862 138.852 60.8744 138.823 60.897C138.795 60.9197 138.775 60.9511 138.768 60.986C138.718 61.2445 138.726 61.5004 138.794 61.7538C138.803 61.7891 138.825 61.8203 138.854 61.8431C138.884 61.8659 138.92 61.879 138.958 61.8805C140.662 61.9616 142.365 62.0283 144.068 62.0807C145.257 62.3256 146.336 62.8088 147.307 63.5301C147.562 63.7193 147.768 63.9448 147.925 64.2067C148.045 64.406 148.122 64.6923 148.158 65.0657C148.191 65.4204 148.234 65.7651 148.287 66.0995C148.291 66.129 148.289 66.1591 148.281 66.1877C148.272 66.2163 148.258 66.2427 148.238 66.265C148.218 66.2872 148.193 66.3048 148.166 66.3165C148.139 66.3282 148.109 66.3337 148.079 66.3327C140.152 66.0877 132.315 65.8411 124.57 65.5927C114.972 65.2836 105.37 65.1839 95.7665 65.2937C94.2253 65.3106 92.6891 65.4019 91.1579 65.5674C91.1427 65.569 91.128 65.5739 91.1149 65.5818C91.1018 65.5897 91.0907 65.6005 91.0824 65.6132C91.0741 65.6258 91.0688 65.6402 91.067 65.6551C91.0652 65.67 91.0668 65.6851 91.0719 65.6992L91.5606 67.1385C91.5721 67.1736 91.5952 67.204 91.6263 67.2251C91.6573 67.2461 91.6947 67.2566 91.7328 67.255C97.9079 67.0439 104.084 67.0075 110.261 67.1461C110.297 67.1467 110.331 67.1606 110.356 67.1848C110.381 67.209 110.395 67.2415 110.395 67.2753L110.441 73.4987C110.441 73.5172 110.444 73.5356 110.45 73.5526C110.457 73.5696 110.466 73.5849 110.477 73.5975C110.489 73.6102 110.502 73.6198 110.517 73.6259C110.531 73.632 110.547 73.6344 110.562 73.633L111.279 73.5747C111.313 73.5721 111.346 73.5551 111.37 73.527C111.393 73.4989 111.407 73.4617 111.408 73.4227L111.464 67.293C111.464 67.2738 111.467 67.2549 111.475 67.2372C111.482 67.2195 111.493 67.2034 111.506 67.19C111.52 67.1765 111.535 67.166 111.553 67.1589C111.57 67.1517 111.589 67.1483 111.608 67.1486L118.982 67.331C119.02 67.3317 119.057 67.3477 119.084 67.3757C119.111 67.4037 119.126 67.4413 119.126 67.4805V71.2587C119.126 71.31 119.147 71.3592 119.183 71.3958C119.22 71.4323 119.269 71.4531 119.321 71.4538L133.165 71.6286C133.198 71.6286 133.229 71.6154 133.253 71.5917C133.277 71.568 133.29 71.5358 133.291 71.5019L133.349 67.8936C133.35 67.8763 133.353 67.8592 133.36 67.8434C133.367 67.8275 133.377 67.8132 133.389 67.8012C133.401 67.7892 133.416 67.7797 133.431 67.7734C133.447 67.7671 133.464 67.764 133.481 67.7643L139.685 67.9164C139.719 67.9177 139.751 67.9324 139.775 67.9575C139.798 67.9825 139.812 68.0159 139.812 68.0507V73.4987C139.811 73.5177 139.815 73.5365 139.821 73.554C139.827 73.5715 139.837 73.5872 139.849 73.6001C139.86 73.6131 139.874 73.6229 139.889 73.629C139.904 73.6351 139.92 73.6373 139.936 73.6355L140.705 73.5494C140.742 73.545 140.775 73.5266 140.799 73.4977C140.824 73.4687 140.837 73.4313 140.837 73.3923L140.888 68.0811C140.888 68.0648 140.892 68.0487 140.898 68.0338C140.905 68.0188 140.915 68.0053 140.927 67.994C140.939 67.9827 140.953 67.9738 140.968 67.9679C140.984 67.962 141 67.9591 141.017 67.9595L148.163 68.1748C148.193 68.1755 148.222 68.1821 148.249 68.1943C148.276 68.2066 148.301 68.2242 148.322 68.2461C148.342 68.268 148.358 68.2938 148.369 68.322C148.379 68.3503 148.384 68.3803 148.383 68.4105C148.363 69.0474 148.35 69.577 148.345 69.9993C148.32 72.1836 147.785 74.2209 146.742 76.1112C146.722 76.1475 146.694 76.1778 146.661 76.1991C146.627 76.2205 146.59 76.2321 146.552 76.2328L144.19 76.2632C144.126 76.2642 144.065 76.287 144.017 76.3274C143.97 76.3679 143.939 76.4234 143.931 76.4837C143.702 78.2085 143.045 79.8311 141.961 81.3514C141.877 81.4697 141.907 81.5288 142.053 81.5288H199.27C199.452 81.5288 199.461 81.5668 199.295 81.6428L181.405 89.9644C181.331 89.9989 181.248 90.0087 181.167 89.9922C177.796 89.3402 174.841 88.8629 172.302 88.5605C165.646 87.7666 158.408 87.1348 150.589 86.6651C141.88 86.1431 133.165 85.7428 124.444 85.464C113.79 85.1228 103.134 84.8821 92.4747 84.7419C68.2028 84.4209 43.93 84.3685 19.6563 84.5848C19.6208 84.5848 19.5866 84.5714 19.5614 84.5477C19.5363 84.5239 19.5221 84.4917 19.5221 84.4581V81.7011C19.5221 81.6675 19.5365 81.6353 19.5622 81.6115C19.5878 81.5878 19.6226 81.5744 19.6589 81.5744L30.5853 81.5288C30.5952 81.5286 30.6049 81.526 30.6136 81.5213C30.6223 81.5167 30.6297 81.5101 30.6352 81.5021C30.6407 81.4941 30.6441 81.485 30.6451 81.4755C30.6461 81.466 30.6447 81.4565 30.641 81.4477C30.0383 80.0608 29.6627 78.6105 29.5142 77.0969C29.2559 74.443 29.1419 71.7173 29.1723 68.9198C29.1723 68.882 29.1569 68.8456 29.1294 68.8186C29.102 68.7916 29.0646 68.7761 29.0255 68.7754L24.9765 68.7526C24.9408 68.7526 24.9065 68.739 24.8806 68.7145C24.8547 68.69 24.8392 68.6565 24.8372 68.6208L24.6119 65.2709C24.6099 65.236 24.596 65.2029 24.5725 65.177C24.549 65.1512 24.5173 65.1342 24.4827 65.129L19.9045 64.493C19.604 64.4508 19.6032 64.4035 19.902 64.3511L59.7461 57.256C60.1073 57.2087 60.466 57.1488 60.8222 57.0761C60.9657 57.0947 61.0257 57.0753 61.002 57.0178C60.9923 56.9968 60.9731 56.9799 60.9474 56.9698C60.9218 56.9597 60.8911 56.957 60.8602 56.9621L59.5561 57.1927C41.7244 59.2975 23.8936 61.4126 6.06352 63.5377C5.82043 63.5495 5.77991 63.536 5.94197 63.4972C22.9144 59.4766 39.8818 55.4333 56.8442 51.3671C58.5745 50.9532 59.9427 50.6601 60.9489 50.4878C61.0113 50.4777 61.0535 50.4625 61.0755 50.4422C61.1447 50.378 61.1151 50.3561 60.9868 50.3763L18.489 57.0938C18.0383 57.1648 18.0315 57.1344 18.4687 57.0026C31.7172 53.004 45.0593 48.959 58.4952 44.8675C59.0556 44.6969 59.6194 44.5398 60.1867 44.3962C60.4146 44.3387 60.4281 44.3007 60.2272 44.2822C60.2019 44.2805 60.1774 44.283 60.1537 44.2898C40.1224 49.2631 20.0868 54.2186 0.0470234 59.1565C0.0217015 59.1632 0.00650823 59.1607 0.00144383 59.1489C3.09529e-05 59.1455 -0.00035085 59.1418 0.000324292 59.138C0.000999434 59.1342 0.00271565 59.1304 0.00535692 59.1267C0.00799819 59.1231 0.0115022 59.1199 0.0156328 59.1171C0.0197633 59.1144 0.0244231 59.1123 0.0292972 59.1109C37.0973 46.2857 56.3487 39.6315 57.7836 39.1484C58.9721 38.748 59.9832 38.3882 60.8172 38.0689C60.8965 38.0385 60.8948 38.0343 60.8121 38.0562L23.9864 47.7613C23.6471 47.8508 23.6378 47.8255 23.9585 47.6853L61.0679 31.5186C61.2012 31.4612 61.1995 31.4358 61.0628 31.4426C61.0122 31.446 60.9531 31.4595 60.8855 31.4831C44.4685 37.3552 28.0573 43.223 11.6521 49.0865C11.2908 49.2166 11.2832 49.1989 11.6293 49.0333L62.101 24.8872C62.1753 24.8501 62.1736 24.8467 62.0959 24.8771C49.6055 29.6832 37.126 34.5188 24.6574 39.384C24.6169 39.3992 24.5865 39.4018 24.5663 39.3916C24.5291 39.3747 24.5654 39.3359 24.6752 39.2751C48.9268 25.8164 61.0864 19.0642 61.154 19.0186C61.3886 18.8632 61.3709 18.8497 61.1008 18.978C32.1797 32.6682 17.6694 39.5344 17.5698 39.5766C17.2811 39.6965 17.2702 39.6644 17.5369 39.4803C32.0177 30.554 46.49 21.6125 60.9539 12.6558C61.0552 12.5916 61.0493 12.5756 60.9362 12.6077C60.8383 12.6347 60.7108 12.6921 60.5538 12.78C23.0486 33.7392 4.27832 44.223 4.24287 44.2315C4.04874 44.2822 4.06646 44.2349 4.29605 44.0896C24.9267 31.1343 45.5354 18.2153 66.1221 5.33268C66.5121 5.08773 66.7079 5.19669 66.7096 5.65956L66.7729 36.8044C66.7728 36.8261 66.7759 36.8476 66.782 36.8676C66.7881 36.8876 66.7971 36.9058 66.8085 36.921C66.8199 36.9361 66.8334 36.948 66.8481 36.9559C66.8629 36.9637 66.8787 36.9674 66.8945 36.9666L67.725 36.9311C67.7907 36.9284 67.8529 36.8972 67.899 36.844C67.9452 36.7908 67.9717 36.7196 67.9732 36.6448L68.2998 14.5183C68.3005 14.4685 68.3203 14.4209 68.3553 14.3855C68.3902 14.3501 68.4375 14.3295 68.4872 14.3282L69.3507 14.3029C69.3852 14.3022 69.418 14.2881 69.4422 14.2634C69.4663 14.2388 69.4798 14.2056 69.4798 14.1711C69.4984 10.5442 69.5035 6.9181 69.495 3.29285C69.576 2.93978 69.5414 2.6129 69.3912 2.31221C69.1802 1.88988 69.0738 1.67449 69.0721 1.66605C68.9405 1.14405 69.0865 0.698919 69.5102 0.33065C69.8461 0.0400899 70.1821 -0.035085 70.518 0.105127C70.7527 0.204796 70.9696 0.417649 71.1688 0.743685ZM111.261 42.0472C110.707 42.7871 110.902 43.0878 111.846 42.9493C112.047 42.9206 119.596 43.2931 134.494 44.0668C134.509 44.0677 134.525 44.0652 134.539 44.0593C134.553 44.0534 134.566 44.0443 134.577 44.0326C134.587 44.0209 134.595 44.007 134.599 43.9919C134.604 43.9768 134.605 43.9608 134.603 43.9451C134.475 43.1714 134 42.7339 133.18 42.6325C133.107 42.6241 126.496 42.2339 113.345 41.4619C112.709 41.4247 112.343 41.4129 112.249 41.4264C111.854 41.4872 111.524 41.6941 111.261 42.0472ZM111.157 45.9115C110.904 46.295 111.007 46.4951 111.466 46.512L134.664 47.3913C134.687 47.3923 134.711 47.3874 134.732 47.3772C134.753 47.367 134.772 47.3517 134.786 47.3327C134.8 47.3137 134.809 47.2915 134.812 47.2682C134.816 47.2448 134.813 47.221 134.805 47.1987C134.569 46.4943 134.112 46.0914 133.433 45.99C126.633 45.6725 119.834 45.3489 113.036 45.0195C112.531 44.9942 112.178 45.0305 111.975 45.1285C111.676 45.2755 111.404 45.5365 111.157 45.9115ZM111.37 49.2563C111.228 49.454 111.133 49.6778 111.084 49.9278C111.078 49.9561 111.079 49.9853 111.086 50.0133C111.093 50.0413 111.106 50.0675 111.124 50.0899C111.142 50.1124 111.165 50.1306 111.191 50.1433C111.217 50.156 111.245 50.1629 111.274 50.1635L134.816 50.7488C134.848 50.7496 134.879 50.7423 134.908 50.7277C134.936 50.7131 134.961 50.6916 134.979 50.6652C134.997 50.6388 135.008 50.6083 135.011 50.5764C135.015 50.5445 135.01 50.5124 134.998 50.4827C134.667 49.682 134.082 49.3036 133.243 49.3475C126.438 49.0941 119.633 48.8458 112.828 48.6026C112.479 48.589 112.21 48.6254 112.021 48.7115C111.761 48.8298 111.544 49.0114 111.37 49.2563ZM111.451 52.8799C111.28 53.086 111.179 53.3335 111.147 53.6223C111.145 53.642 111.147 53.662 111.153 53.6809C111.158 53.6997 111.168 53.7171 111.18 53.7319C111.193 53.7467 111.209 53.7586 111.226 53.7668C111.243 53.775 111.262 53.7793 111.281 53.7794L134.998 54.1012C135.03 54.1016 135.061 54.094 135.089 54.0792C135.117 54.0644 135.141 54.0429 135.159 54.0165C135.177 53.9902 135.188 53.9598 135.191 53.9282C135.194 53.8965 135.19 53.8646 135.178 53.8352C134.83 52.9753 134.164 52.5986 133.18 52.705C126.753 52.5429 120.326 52.3976 113.9 52.2692C113.886 52.2692 113.618 52.2413 113.094 52.1856C112.438 52.1163 111.89 52.3477 111.451 52.8799ZM143.445 55.3708C143.323 55.293 143.185 55.2516 143.048 55.2517L138.513 55.2542C138.496 55.2542 138.479 55.2575 138.464 55.2638C138.449 55.2702 138.435 55.2794 138.424 55.2911C138.412 55.3027 138.404 55.3165 138.398 55.3315C138.392 55.3465 138.39 55.3624 138.391 55.3784L138.566 58.6548C138.567 58.6902 138.582 58.7237 138.608 58.7483C138.634 58.7729 138.669 58.7866 138.705 58.7865H143.962C144.006 58.7865 144.049 58.7693 144.081 58.7385C144.113 58.7076 144.131 58.6657 144.131 58.6218C144.147 58.0711 144.132 57.512 144.088 56.9443C144.088 56.9427 144.088 56.7763 144.088 56.4452C144.088 55.9958 143.874 55.6377 143.445 55.3708ZM40.79 65.1696C41.4113 65.8875 41.8873 66.6942 42.2182 67.5895C42.6571 68.7754 42.9509 69.9959 43.0994 71.2511C43.1037 71.2868 43.1203 71.3196 43.146 71.3434C43.1716 71.3672 43.2046 71.3804 43.2387 71.3803L50.582 71.3499C50.6163 71.3492 50.6491 71.3352 50.6736 71.3107C50.6981 71.2862 50.7124 71.2531 50.7137 71.2181C50.7677 69.9765 50.6977 68.5989 50.5035 67.0852C50.3972 66.2541 50.209 65.5269 49.9389 64.9035C49.9244 64.8707 49.8993 64.8435 49.8673 64.8261C49.8353 64.8087 49.7982 64.8021 49.7616 64.8072C49.1455 64.8849 48.596 64.8368 48.1132 64.6628C46.8893 64.2202 45.7337 63.5149 44.6466 62.5469C44.6163 62.5198 44.581 62.4995 44.543 62.4873C44.505 62.475 44.4652 62.4712 44.4263 62.476L38.273 63.2944C38.2586 63.2963 38.2449 63.3017 38.233 63.3101C38.2211 63.3186 38.2114 63.3298 38.2047 63.343C38.198 63.3561 38.1945 63.3708 38.1945 63.3857C38.1945 63.4006 38.198 63.4154 38.2047 63.4287C38.49 63.9727 38.6925 64.4981 38.8124 65.0049C39.2648 66.9172 39.4666 68.9705 39.4176 71.1649C39.4169 71.1939 39.4219 71.2226 39.4324 71.2495C39.4428 71.2764 39.4584 71.3009 39.4782 71.3215C39.4981 71.342 39.5218 71.3583 39.5479 71.3693C39.574 71.3803 39.6021 71.3857 39.6303 71.3854L41.2458 71.3803C41.2802 71.3803 41.3132 71.3669 41.3382 71.3429C41.3631 71.3189 41.3781 71.286 41.38 71.2511C41.4898 69.1986 41.2771 67.1807 40.7419 65.1974C40.7183 65.1147 40.7343 65.1054 40.79 65.1696ZM83.4373 78.3639C83.8222 78.4923 84.1969 78.4492 84.5616 78.2347C85.2841 77.809 85.8294 77.1434 86.1974 76.2379C86.5097 75.471 86.7452 74.6778 86.9039 73.8585C86.9562 73.5916 86.9123 73.5747 86.7722 73.8078C86.1459 74.8501 85.3812 75.2235 84.478 74.9278C83.9361 74.7505 83.4592 74.3467 83.0473 73.7166C82.6945 73.176 82.4227 72.5907 82.232 71.9606C81.5348 69.6631 81.3465 67.3209 81.6673 64.9339C81.6774 64.8494 81.669 64.7937 81.642 64.7667C81.6326 64.7587 81.6209 64.7549 81.6079 64.7555C81.5949 64.7562 81.5808 64.7613 81.567 64.7704C81.5532 64.7796 81.5399 64.7925 81.5282 64.8082C81.5166 64.8238 81.507 64.8417 81.5002 64.8604C80.4181 67.761 80.2146 70.8887 80.8899 74.2437C81.1819 75.6931 81.7458 76.8629 82.5814 77.7532C82.8785 78.0691 83.1638 78.2727 83.4373 78.3639ZM35.7636 78.5666C36.054 78.7558 36.2903 78.7026 36.4727 78.407C36.9183 77.6806 37.1437 76.9263 37.1487 76.1441C37.1487 76.0614 37.1276 76.0563 37.0854 76.1289C36.8069 76.6104 36.5022 76.7134 36.1713 76.4381C36.0093 76.3029 35.8615 76.0732 35.7282 75.7488C35.4311 75.0258 35.2496 74.2707 35.1838 73.4835C35.1652 73.2622 35.1297 72.2334 35.0774 70.3971C35.074 70.311 35.0631 70.3093 35.0445 70.3921C34.4739 72.9277 34.5684 75.4346 35.3281 77.9128C35.4209 78.2186 35.5661 78.4365 35.7636 78.5666ZM31.626 78.4957C31.8911 78.8116 32.1325 78.7938 32.3502 78.4425C32.7841 77.738 33.0322 76.9702 33.0947 76.1391C33.1082 75.9617 33.0702 75.9499 32.9808 76.1036C32.6786 76.6171 32.3637 76.7278 32.0363 76.4355C31.886 76.3004 31.7543 76.0732 31.6412 75.7539C31.0386 74.0562 30.8461 72.3001 31.0639 70.4858C31.0673 70.4554 31.0639 70.4267 31.0538 70.3997C31.0082 70.2747 30.9685 70.2966 30.9347 70.4655C30.5988 72.1616 30.5254 73.8627 30.7144 75.5689C30.8022 76.3747 30.8723 76.8841 30.9246 77.0969C31.0529 77.624 31.2867 78.0902 31.626 78.4957ZM95.6045 76.3975C95.1537 78.195 94.5815 79.8691 93.8876 81.4199C93.8827 81.4317 93.8807 81.4445 93.8819 81.4573C93.883 81.4701 93.8873 81.4824 93.8942 81.4931C93.9012 81.5039 93.9108 81.5128 93.922 81.519C93.9332 81.5252 93.9457 81.5286 93.9586 81.5288L128.48 81.5136C128.564 81.5136 128.582 81.479 128.533 81.4097C127.475 79.9197 126.783 78.2532 126.459 76.4102C126.453 76.3713 126.433 76.3359 126.402 76.3104C126.372 76.2849 126.334 76.2709 126.295 76.2708H95.7665C95.7296 76.2709 95.6937 76.2833 95.6644 76.3062C95.635 76.3292 95.614 76.3613 95.6045 76.3975ZM76.3725 78.8504C76.3066 79.7812 76.0255 80.6343 75.5292 81.4097C75.4853 81.479 75.5048 81.5136 75.5875 81.5136L80.2923 81.5288C80.3059 81.5287 80.3193 81.5251 80.3311 81.5183C80.3429 81.5115 80.3528 81.5018 80.3597 81.49C80.3666 81.4783 80.3703 81.4649 80.3705 81.4513C80.3706 81.4376 80.3673 81.4242 80.3607 81.4122C79.8323 80.4443 79.4246 79.4206 79.1376 78.3411C79.1243 78.2922 79.096 78.2491 79.0571 78.2184C79.0182 78.1877 78.9708 78.1712 78.9224 78.1713L76.5371 78.184C76.503 78.184 76.4702 78.1974 76.4457 78.2215C76.4211 78.2456 76.4067 78.2785 76.4054 78.3132C76.3953 78.4923 76.3843 78.6713 76.3725 78.8504ZM48.7462 78.7262C48.3461 78.6688 47.9452 78.6544 47.5434 78.6832C47.5073 78.6862 47.4729 78.7011 47.4452 78.7256C47.4174 78.7502 47.3978 78.7832 47.3889 78.82C47.183 79.712 46.8361 80.5743 46.3482 81.4072C46.3009 81.4883 46.3246 81.5288 46.4191 81.5288H58.5661C58.58 81.5285 58.5936 81.5247 58.6057 81.5179C58.6177 81.511 58.6278 81.5012 58.635 81.4895C58.6421 81.4778 58.646 81.4645 58.6464 81.451C58.6467 81.4374 58.6435 81.4241 58.637 81.4122C58.1997 80.5862 57.8959 79.7204 57.7254 78.8149C57.7188 78.781 57.7005 78.7504 57.6736 78.7286C57.6468 78.7068 57.6131 78.6952 57.5785 78.6958C54.6344 78.7567 51.6903 78.7668 48.7462 78.7262Z" fill="url(#paint1_linear_430_6098)"/>
<path d="M81.2292 26.1111C81.425 29.8918 81.6529 33.7181 81.9129 37.59C81.9197 37.6778 81.8952 37.6871 81.8395 37.6178L79.7327 34.9699C79.6929 34.9207 79.6394 34.8851 79.5797 34.8683C79.5201 34.8514 79.4575 34.8542 79.401 34.8761C78.5265 35.2123 77.6293 35.5349 76.7092 35.8441C76.0458 36.0671 75.552 35.9716 75.2279 35.5577C75.0355 35.3094 74.9392 34.8938 74.9392 34.311C74.9392 30.0607 74.9392 27.9356 74.9392 27.9356C74.919 27.6433 75.022 27.3545 75.2482 27.069C75.3596 26.9288 75.4963 26.8207 75.6584 26.7446C77.073 26.0757 78.524 25.4886 80.0112 24.9835C80.5227 24.8095 80.8739 24.8898 81.0646 25.2243C81.1524 25.3763 81.2073 25.6719 81.2292 26.1111Z" fill="url(#paint2_linear_430_6098)"/>
<path d="M82.3459 43.4409C82.3459 46.0002 82.3459 48.5612 82.3459 51.1238C82.346 51.2159 82.32 51.3054 82.2713 51.3808C82.2225 51.4561 82.1533 51.514 82.0724 51.547L80.3632 52.2464C79.8247 52.4677 79.5571 52.2819 79.5605 51.6889L79.6086 43.223C79.6088 43.1447 79.6323 43.068 79.6764 43.0022C79.7205 42.9365 79.7832 42.8846 79.8568 42.853C80.3581 42.6418 80.8485 42.4383 81.328 42.2423C81.9256 42.0008 82.2623 42.1156 82.3383 42.5869C82.3434 42.6207 82.3459 42.9054 82.3459 43.4409Z" fill="url(#paint3_linear_430_6098)"/>
<path d="M75.8053 47.7309C76.1564 47.5924 76.3319 47.714 76.3319 48.0958V53.5691C76.3318 53.6476 76.3081 53.7239 76.2641 53.7874C76.2201 53.851 76.158 53.8986 76.0863 53.9239L74.8734 54.3521C74.8444 54.3623 74.8135 54.3655 74.783 54.3616C74.7525 54.3577 74.7233 54.3468 74.6976 54.3296C74.6719 54.3125 74.6504 54.2896 74.6347 54.2627C74.6191 54.2359 74.6098 54.2057 74.6075 54.1747C74.4809 52.3503 74.4632 50.4574 74.5543 48.4961C74.5582 48.4124 74.5855 48.3318 74.6331 48.2639C74.6807 48.196 74.7466 48.1438 74.8228 48.1135L75.8053 47.7309Z" fill="url(#paint4_linear_430_6098)"/>
<defs>
<linearGradient id="paint0_linear_430_6098" x1="77.5473" y1="86.5823" x2="110.997" y2="17.1921" gradientUnits="userSpaceOnUse">
<stop stop-color="#7FAD39"/>
<stop offset="0.487446" stop-color="#B1D17F"/>
<stop offset="1" stop-color="#7FAD39"/>
</linearGradient>
<linearGradient id="paint1_linear_430_6098" x1="77.5473" y1="86.5823" x2="110.997" y2="17.1921" gradientUnits="userSpaceOnUse">
<stop stop-color="#7FAD39"/>
<stop offset="0.487446" stop-color="#B1D17F"/>
<stop offset="1" stop-color="#7FAD39"/>
</linearGradient>
<linearGradient id="paint2_linear_430_6098" x1="77.5473" y1="86.5823" x2="110.997" y2="17.1921" gradientUnits="userSpaceOnUse">
<stop stop-color="#7FAD39"/>
<stop offset="0.487446" stop-color="#B1D17F"/>
<stop offset="1" stop-color="#7FAD39"/>
</linearGradient>
<linearGradient id="paint3_linear_430_6098" x1="77.5473" y1="86.5823" x2="110.997" y2="17.1921" gradientUnits="userSpaceOnUse">
<stop stop-color="#7FAD39"/>
<stop offset="0.487446" stop-color="#B1D17F"/>
<stop offset="1" stop-color="#7FAD39"/>
</linearGradient>
<linearGradient id="paint4_linear_430_6098" x1="77.5473" y1="86.5823" x2="110.997" y2="17.1921" gradientUnits="userSpaceOnUse">
<stop stop-color="#7FAD39"/>
<stop offset="0.487446" stop-color="#B1D17F"/>
<stop offset="1" stop-color="#7FAD39"/>
</linearGradient>
</defs>
</svg>
