<svg width="99" height="99" viewBox="0 0 99 99" fill="none" xmlns="http://www.w3.org/2000/svg">
<path d="M99 49.5C99 56.0004 97.7196 62.4372 95.232 68.4428C92.7444 74.4484 89.0983 79.9053 84.5018 84.5018C79.9053 89.0983 74.4484 92.7444 68.4428 95.232C62.4372 97.7196 56.0004 99 49.5 99C42.9996 99 36.5628 97.7196 30.5572 95.232C24.5516 92.7444 19.0947 89.0983 14.4982 84.5018C9.90171 79.9053 6.25557 74.4484 3.76796 68.4428C1.28035 62.4372 0 56.0004 0 49.5C0 36.3718 5.21516 23.7813 14.4982 14.4982C23.7813 5.21516 36.3718 0 49.5 0C62.6282 0 75.2187 5.21516 84.5018 14.4982C93.7848 23.7813 99 36.3718 99 49.5ZM71.2783 51.3607C71.1676 50.023 71.1474 49.093 71.2177 48.5708C71.303 47.9318 71.1182 47.5623 70.6633 47.462C70.6214 47.453 70.2795 47.4485 69.6376 47.4485C67.9392 47.4485 66.2476 47.4485 64.5628 47.4485C64.5405 47.4486 64.5185 47.4438 64.4983 47.4343C64.4782 47.4249 64.4603 47.411 64.4462 47.3939C64.432 47.3767 64.4218 47.3566 64.4164 47.335C64.4109 47.3134 64.4103 47.2908 64.4146 47.269C65.1763 43.2498 65.9282 39.2292 66.6703 35.2071C66.8065 34.4739 66.8065 33.909 66.6703 33.5125C66.3816 32.6716 65.7134 32.1875 64.666 32.0603C56.2866 30.4503 47.9019 28.8686 39.512 27.3155C38.915 27.2047 38.4638 27.1778 38.1586 27.2347C37.6483 27.3274 37.2398 27.5646 36.9331 27.9462C36.6907 28.2484 36.4857 28.8342 36.3181 29.7036C36.0054 31.3121 35.6956 32.9603 35.3889 34.6482C35.3768 34.7131 35.3426 34.7718 35.2922 34.814C35.2418 34.8562 35.1783 34.8794 35.1128 34.8794H25.5737C25.2221 34.8794 25.041 35.0552 25.0306 35.4068C24.9498 38.2469 24.9468 41.1684 25.0216 44.1716C25.0216 44.1935 25.0282 44.2182 25.041 44.2441C25.0537 44.27 25.0724 44.2965 25.0957 44.322C25.1181 44.3474 25.1323 44.3751 25.1383 44.405C25.1413 44.4185 25.1406 44.4325 25.1362 44.4459C25.1318 44.4594 25.1238 44.472 25.1128 44.4827C25.1018 44.4935 25.0881 44.5022 25.0727 44.5082C25.0573 44.5141 25.0406 44.5172 25.0238 44.5172C21.0406 44.5442 18.6697 44.5487 17.911 44.5307C17.4202 44.5187 17.1397 44.6968 17.0694 45.0649C17.0694 45.0679 17.0694 45.3499 17.0694 45.9111C17.0694 51.4684 17.0694 56.939 17.0694 62.3228C17.0694 62.8061 17.311 63.0477 17.7943 63.0477C21.8 63.0477 25.748 63.0298 29.6385 62.9939C30.056 62.9894 30.1375 63.1039 29.8832 63.3373C29.8125 63.4037 29.7186 63.4406 29.6205 63.4405C25.6672 63.4405 21.7641 63.4405 17.911 63.4405C17.2661 63.4405 16.9856 63.7585 17.0694 64.3944C17.0694 64.8882 17.0694 65.3828 17.0694 65.878C17.0694 66.1968 17.13 66.425 17.2512 66.5626C17.4307 66.7661 17.6881 66.8477 18.0233 66.8073C18.0233 66.8073 18.7714 66.8132 20.2678 66.8252C20.8887 66.8312 21.1917 66.526 21.1768 65.9095C21.1693 65.5728 21.1655 65.2219 21.1655 64.8568C21.1655 64.8235 21.1788 64.7915 21.2024 64.7679C21.2259 64.7444 21.2579 64.7311 21.2912 64.7311H24.1911C24.2221 64.7311 24.2518 64.7434 24.2737 64.7653C24.2955 64.7872 24.3078 64.8169 24.3078 64.8478C24.3078 65.2563 24.3026 65.6102 24.2921 65.9095C24.2727 66.5364 24.5772 66.8357 25.2056 66.8073C25.9433 66.8133 26.6803 66.811 27.4165 66.8005C27.8399 66.7945 28.1152 66.695 28.2424 66.502C28.401 66.2626 28.4369 65.9177 28.3502 65.4673C28.2679 65.0349 28.4422 64.7745 28.8731 64.6862C28.9913 64.6623 29.2233 64.6915 29.5689 64.7738C29.6011 64.7817 29.6299 64.7994 29.6512 64.8244C29.6726 64.8494 29.6854 64.8804 29.6879 64.9129C29.7642 65.9529 30.2902 66.6591 31.2658 67.0317C31.3974 67.0826 40.0305 68.7076 57.1649 71.9067C57.7111 72.0085 58.1405 72.0212 58.4533 71.9449C58.9261 71.8297 59.3084 71.5925 59.6002 71.2334C59.8486 70.9311 60.0513 70.3685 60.2085 69.5455C60.394 68.5774 60.5773 67.6175 60.7584 66.6659C60.7658 66.6273 60.7859 66.5927 60.8151 66.568C60.8442 66.5434 60.8806 66.5303 60.9177 66.5312L63.2093 66.5626C63.2237 66.5626 63.2379 66.5657 63.2511 66.5717C63.2643 66.5776 63.2763 66.5864 63.2863 66.5975C63.2964 66.6086 63.3043 66.6217 63.3095 66.6362C63.3148 66.6506 63.3174 66.666 63.3171 66.6816C63.2767 68.1555 63.8101 69.2336 64.9174 69.9159C65.507 70.278 66.1152 70.4576 66.7422 70.4546C67.414 70.4516 68.0462 70.2451 68.6388 69.8351C69.6653 69.1228 70.1486 68.0859 70.0887 66.7242C70.0878 66.7007 70.0913 66.6773 70.0989 66.6553C70.1066 66.6334 70.1182 66.6134 70.1331 66.5966C70.148 66.5798 70.1659 66.5665 70.1857 66.5576C70.2055 66.5486 70.2267 66.5442 70.2481 66.5447L71.4444 66.5649C71.4587 66.565 71.4727 66.5685 71.4857 66.5752C71.4988 66.5819 71.5105 66.5916 71.5201 66.6038C71.5298 66.6159 71.5372 66.6303 71.5419 66.646C71.5466 66.6617 71.5486 66.6784 71.5476 66.695C71.5072 67.4941 71.6733 68.1906 72.0459 68.7847C72.6848 69.8066 73.5347 70.3551 74.5956 70.4299C75.6027 70.5002 76.4705 70.2204 77.1993 69.5904C77.9759 68.9201 78.3567 67.9512 78.3417 66.6838C78.3417 66.6422 78.3583 66.6022 78.3877 66.5727C78.4172 66.5433 78.4571 66.5267 78.4988 66.5267L81.1339 66.5155C81.5199 66.5125 81.7354 66.3165 81.7803 65.9274C81.9987 64.0286 82.0548 62.1283 81.9486 60.2264C81.9127 59.58 81.7848 58.9328 81.5648 58.2849C80.7882 55.9926 79.8739 53.689 78.822 51.3741C78.7831 51.2881 78.721 51.2147 78.6428 51.1623C78.5646 51.11 78.4735 51.0807 78.3799 51.0779C76.2835 51.0061 74.14 51.0098 71.9494 51.0891C71.8252 51.0936 71.7197 51.1243 71.6329 51.1811C71.5372 51.2425 71.4481 51.3135 71.3658 51.3943C71.3135 51.4452 71.2843 51.434 71.2783 51.3607Z" fill="url(#paint0_linear_427_5426)"/>
<path d="M57.6993 69.3714C57.6939 69.4 57.6773 69.4254 57.6532 69.4418C57.6291 69.4582 57.5995 69.4644 57.5708 69.459L32.358 64.695C32.3438 64.6923 32.3302 64.6869 32.3181 64.679C32.3061 64.671 32.2957 64.6608 32.2875 64.6489C32.2794 64.637 32.2737 64.6236 32.2707 64.6094C32.2678 64.5953 32.2676 64.5807 32.2703 64.5665L38.8363 29.8172C38.8389 29.803 38.8444 29.7895 38.8523 29.7774C38.8602 29.7653 38.8704 29.7549 38.8823 29.7468C38.8943 29.7386 38.9077 29.7329 38.9218 29.73C38.936 29.727 38.9506 29.7269 38.9647 29.7296L64.1776 34.4936C64.2063 34.499 64.2316 34.5156 64.248 34.5397C64.2645 34.5638 64.2707 34.5934 64.2653 34.6221L57.6993 69.3714ZM47.126 34.6533C47.1495 34.53 47.1485 34.4032 47.1231 34.2803C47.0976 34.1573 47.0482 34.0406 46.9776 33.9367C46.907 33.8329 46.8167 33.7439 46.7117 33.675C46.6068 33.6061 46.4893 33.5585 46.366 33.5349L41.1496 32.5399C41.0262 32.5163 40.8994 32.5173 40.7765 32.5428C40.6535 32.5683 40.5368 32.6177 40.433 32.6883C40.3291 32.7588 40.2402 32.8492 40.1712 32.9541C40.1023 33.0591 40.0547 33.1766 40.0312 33.2999L39.0445 38.4722C39.021 38.5956 39.022 38.7223 39.0474 38.8453C39.0729 38.9682 39.1223 39.085 39.1929 39.1888C39.2635 39.2927 39.3538 39.3816 39.4588 39.4506C39.5637 39.5195 39.6812 39.5671 39.8045 39.5906L45.0209 40.5857C45.1443 40.6092 45.271 40.6082 45.394 40.5828C45.517 40.5573 45.6337 40.5079 45.7375 40.4373C45.8414 40.3667 45.9303 40.2764 45.9993 40.1714C46.0682 40.0665 46.1158 39.949 46.1393 39.8256L47.126 34.6533ZM56.2267 36.9803C56.1541 36.8959 56.0576 36.8389 55.9529 36.8186L48.3778 35.4046C48.3054 35.3901 48.2313 35.4012 48.169 35.436C47.6752 35.7129 47.6939 36.0091 48.2251 36.3249C48.4002 36.4281 50.8676 36.8845 55.6275 37.694C55.8414 37.7314 56.0165 37.712 56.1527 37.6356C56.437 37.474 56.4617 37.2556 56.2267 36.9803ZM61.6091 40.1819C61.6152 40.1494 61.6149 40.1161 61.6081 40.0838C61.6014 40.0515 61.5883 40.0208 61.5697 39.9935C61.5511 39.9662 61.5273 39.9429 61.4997 39.9248C61.4721 39.9068 61.4412 39.8943 61.4087 39.8882L48.1142 37.3761C48.0817 37.37 48.0484 37.3703 48.0161 37.3771C47.9838 37.3838 47.9531 37.3969 47.9258 37.4155C47.8986 37.4341 47.8752 37.4579 47.8572 37.4855C47.8391 37.5131 47.8266 37.544 47.8205 37.5765L47.8188 37.5853C47.8127 37.6177 47.813 37.6511 47.8198 37.6834C47.8265 37.7157 47.8396 37.7464 47.8582 37.7736C47.8768 37.8009 47.9006 37.8242 47.9282 37.8423C47.9558 37.8604 47.9867 37.8729 48.0192 37.879L61.3137 40.391C61.3462 40.3972 61.3795 40.3968 61.4118 40.3901C61.4441 40.3833 61.4748 40.3703 61.5021 40.3517C61.5293 40.3331 61.5527 40.3093 61.5708 40.2817C61.5888 40.254 61.6013 40.2231 61.6074 40.1907L61.6091 40.1819ZM61.3262 41.6353C61.3323 41.6029 61.332 41.5695 61.3252 41.5372C61.3185 41.5049 61.3054 41.4742 61.2868 41.447C61.2682 41.4197 61.2444 41.3963 61.2168 41.3783C61.1892 41.3602 61.1583 41.3477 61.1258 41.3416L47.818 38.8271C47.7525 38.8147 47.6848 38.8289 47.6297 38.8664C47.5746 38.904 47.5367 38.9619 47.5244 39.0274L47.5227 39.0362C47.5165 39.0687 47.5169 39.102 47.5236 39.1343C47.5304 39.1666 47.5434 39.1973 47.562 39.2246C47.5806 39.2518 47.6044 39.2752 47.632 39.2933C47.6597 39.3113 47.6906 39.3238 47.723 39.3299L61.0308 41.8444C61.0963 41.8568 61.1641 41.8427 61.2191 41.8051C61.2742 41.7675 61.3121 41.7096 61.3245 41.6441L61.3262 41.6353ZM45.1532 45.0882C45.1769 44.9628 45.1757 44.8339 45.1496 44.709C45.1235 44.5841 45.073 44.4655 45.0011 44.3601C44.9292 44.2546 44.8372 44.1644 44.7304 44.0945C44.6236 44.0246 44.5041 43.9765 44.3787 43.9528L39.187 42.9718C38.9338 42.924 38.6718 42.9787 38.4589 43.1239C38.246 43.2692 38.0995 43.493 38.0516 43.7463L37.0715 48.9336C37.0236 49.1869 37.0783 49.4488 37.2236 49.6617C37.3688 49.8746 37.5927 50.0211 37.846 50.069L43.0377 51.05C43.2909 51.0978 43.5528 51.0431 43.7658 50.8978C43.9787 50.7526 44.1252 50.5287 44.1731 50.2754L45.1532 45.0882ZM51.6525 46.8493C48.6224 46.1744 46.9286 45.8363 46.5709 45.8348C45.9081 45.8318 45.7293 46.0899 46.0345 46.6091C46.0522 46.6395 46.0765 46.6658 46.106 46.6863C46.1354 46.7068 46.1692 46.7211 46.2051 46.7281L51.4123 47.7112C51.4867 47.7243 51.5613 47.7149 51.6255 47.6842C52.031 47.4912 52.1021 47.2473 51.8388 46.9525C51.7936 46.9029 51.7284 46.8668 51.6525 46.8493ZM59.6787 50.488C59.6848 50.4555 59.6845 50.4222 59.6777 50.3899C59.671 50.3576 59.6579 50.3269 59.6393 50.2996C59.6207 50.2724 59.5969 50.249 59.5693 50.2309C59.5417 50.2129 59.5108 50.2004 59.4783 50.1943L46.1661 47.6789C46.1337 47.6728 46.1004 47.6731 46.068 47.6799C46.0357 47.6866 46.0051 47.6997 45.9778 47.7183C45.9505 47.7369 45.9272 47.7607 45.9091 47.7883C45.891 47.8159 45.8786 47.8468 45.8724 47.8793L45.8708 47.8881C45.8646 47.9205 45.865 47.9539 45.8717 47.9862C45.8785 48.0185 45.8915 48.0492 45.9101 48.0764C45.9287 48.1037 45.9525 48.127 45.9801 48.1451C46.0078 48.1632 46.0387 48.1757 46.0711 48.1818L59.3833 50.6971C59.4157 50.7033 59.4491 50.7029 59.4814 50.6962C59.5137 50.6894 59.5444 50.6764 59.5716 50.6578C59.5989 50.6392 59.6223 50.6154 59.6403 50.5878C59.6584 50.5602 59.6709 50.5292 59.677 50.4968L59.6787 50.488ZM59.4138 51.8616C59.4199 51.8292 59.4196 51.7958 59.4129 51.7635C59.4061 51.7312 59.3931 51.7005 59.3745 51.6733C59.3559 51.646 59.3321 51.6227 59.3044 51.6046C59.2768 51.5865 59.2459 51.574 59.2135 51.5679L45.9013 49.0526C45.8688 49.0464 45.8355 49.0467 45.8032 49.0535C45.7709 49.0602 45.7402 49.0733 45.7129 49.0919C45.6857 49.1105 45.6623 49.1343 45.6442 49.1619C45.6262 49.1895 45.6137 49.2205 45.6076 49.2529L45.6059 49.2617C45.5998 49.2942 45.6001 49.3275 45.6069 49.3598C45.6136 49.3921 45.6267 49.4228 45.6453 49.4501C45.6639 49.4773 45.6877 49.5007 45.7153 49.5187C45.7429 49.5368 45.7738 49.5493 45.8063 49.5554L59.1185 52.0708C59.1509 52.0769 59.1842 52.0766 59.2165 52.0698C59.2489 52.0631 59.2795 52.05 59.3068 52.0314C59.3341 52.0128 59.3574 51.989 59.3755 51.9614C59.3936 51.9338 59.406 51.9029 59.4122 51.8704L59.4138 51.8616ZM43.1902 55.4929C43.2366 55.2472 43.1835 54.9932 43.0427 54.7866C42.9018 54.5801 42.6846 54.438 42.4389 54.3916L37.1987 53.4014C37.0771 53.3784 36.9521 53.3796 36.8309 53.4049C36.7097 53.4303 36.5947 53.4792 36.4925 53.549C36.3902 53.6187 36.3027 53.7079 36.2349 53.8115C36.1671 53.9151 36.1204 54.031 36.0974 54.1527L35.1156 59.3488C35.0692 59.5944 35.1223 59.8485 35.2632 60.055C35.404 60.2616 35.6212 60.4037 35.8669 60.4501L41.1071 61.4402C41.2287 61.4632 41.3537 61.462 41.4749 61.4367C41.5961 61.4114 41.7111 61.3625 41.8133 61.2927C41.9156 61.2229 42.0031 61.1337 42.0709 61.0301C42.1387 60.9265 42.1854 60.8106 42.2084 60.689L43.1902 55.4929ZM54.9561 58.5272C54.9675 58.4666 54.9669 58.4045 54.9543 58.3442C54.9417 58.2838 54.9174 58.2266 54.8826 58.1757C54.8479 58.1248 54.8035 58.0813 54.752 58.0476C54.7004 58.0138 54.6427 57.9906 54.5822 57.9791L44.6267 56.098C44.5662 56.0866 44.504 56.0872 44.4437 56.0998C44.3834 56.1124 44.3262 56.1367 44.2753 56.1715C44.2244 56.2062 44.1809 56.2506 44.1471 56.3021C44.1134 56.3537 44.0901 56.4114 44.0787 56.4719L44.0754 56.4895C44.0639 56.5501 44.0645 56.6123 44.0771 56.6726C44.0897 56.7329 44.1141 56.7901 44.1488 56.841C44.1835 56.8919 44.2279 56.9354 44.2795 56.9692C44.331 57.0029 44.3887 57.0261 44.4492 57.0376L54.4047 58.9187C54.4652 58.9301 54.5274 58.9295 54.5877 58.9169C54.648 58.9043 54.7052 58.88 54.7561 58.8453C54.807 58.8105 54.8506 58.7661 54.8843 58.7146C54.918 58.663 54.9413 58.6054 54.9527 58.5448L54.9561 58.5272ZM57.7191 60.794C57.7252 60.7615 57.7249 60.7282 57.7181 60.6959C57.7114 60.6636 57.6983 60.6329 57.6797 60.6056C57.6611 60.5784 57.6373 60.555 57.6097 60.537C57.5821 60.5189 57.5512 60.5064 57.5187 60.5003L44.2374 57.9907C44.1719 57.9784 44.1042 57.9925 44.0491 58.0301C43.994 58.0677 43.9561 58.1256 43.9437 58.1911L43.9429 58.1955C43.9305 58.261 43.9447 58.3288 43.9822 58.3838C44.0198 58.4389 44.0777 58.4768 44.1432 58.4892L57.4246 60.9987C57.4901 61.0111 57.5578 60.9969 57.6129 60.9594C57.668 60.9218 57.7059 60.8639 57.7182 60.7984L57.7191 60.794ZM57.4523 62.2062C57.4647 62.1407 57.4506 62.073 57.413 62.0179C57.3754 61.9628 57.3175 61.9249 57.252 61.9125L43.9663 59.4022C43.9339 59.396 43.9005 59.3963 43.8682 59.4031C43.8359 59.4098 43.8052 59.4229 43.778 59.4415C43.7507 59.4601 43.7274 59.4839 43.7093 59.5115C43.6912 59.5391 43.6787 59.5701 43.6726 59.6025L43.6709 59.6113C43.6586 59.6768 43.6727 59.7446 43.7103 59.7997C43.7479 59.8547 43.8058 59.8926 43.8713 59.905L57.157 62.4154C57.1894 62.4215 57.2228 62.4212 57.2551 62.4144C57.2874 62.4077 57.3181 62.3946 57.3453 62.376C57.3726 62.3574 57.3959 62.3336 57.414 62.306C57.4321 62.2784 57.4446 62.2475 57.4507 62.215L57.4523 62.2062Z" fill="url(#paint1_linear_427_5426)"/>
<path d="M45.2065 39.531C45.2018 39.5555 45.1876 39.5773 45.167 39.5914C45.1463 39.6054 45.1209 39.6107 45.0964 39.6061L40.1032 38.6626C40.091 38.6603 40.0794 38.6557 40.0691 38.6489C40.0587 38.6421 40.0498 38.6334 40.0428 38.6231C40.0358 38.6129 40.0309 38.6014 40.0284 38.5893C40.0259 38.5772 40.0257 38.5647 40.028 38.5525L40.964 33.599C40.9687 33.5745 40.9829 33.5527 41.0035 33.5387C41.0242 33.5246 41.0496 33.5193 41.0741 33.5239L46.0673 34.4674C46.0795 34.4697 46.0911 34.4743 46.1014 34.4811C46.1118 34.4879 46.1207 34.4967 46.1277 34.5069C46.1347 34.5171 46.1396 34.5286 46.1421 34.5407C46.1446 34.5528 46.1447 34.5653 46.1424 34.5775L45.2065 39.531ZM42.2503 36.8658C42.1261 36.6997 42.0131 36.5254 41.9114 36.3428C41.7573 36.0675 41.6001 35.8894 41.44 35.8086C41.0585 35.6156 40.7989 35.7749 40.6612 36.2867C40.6439 36.3533 40.6526 36.4281 40.6859 36.4977C41.1019 37.3805 41.3892 37.9214 41.5478 38.1204C41.8755 38.5319 42.2308 38.5596 42.6139 38.2035C43.6329 37.4688 44.6235 36.6982 45.5856 35.8917C45.6454 35.8421 45.6864 35.7774 45.7023 35.7076C45.8146 35.2378 45.6948 34.9804 45.3432 34.9355C45.1427 34.9086 44.9183 34.9856 44.6699 35.1667C43.9022 35.7218 43.1481 36.2949 42.4074 36.886C42.396 36.8951 42.3829 36.9018 42.3688 36.9058C42.3547 36.9097 42.3399 36.9107 42.3253 36.9089C42.3107 36.907 42.2965 36.9022 42.2836 36.8948C42.2708 36.8874 42.2594 36.8775 42.2503 36.8658Z" fill="url(#paint2_linear_427_5426)"/>
<path d="M35.0163 35.1061C35.041 35.1058 35.0656 35.1106 35.0885 35.1202C35.1113 35.1298 35.1321 35.144 35.1495 35.162C35.1669 35.1801 35.1805 35.2015 35.1897 35.225C35.1988 35.2486 35.2032 35.2738 35.2026 35.2991C35.1936 35.5535 35.1637 35.769 35.1128 35.9455C35.0649 36.1071 34.9422 36.2777 34.7447 36.4573C33.594 37.5047 32.3925 38.5768 31.1401 39.6736C31.1291 39.6833 31.1203 39.6952 31.1143 39.7086C31.1082 39.7219 31.1051 39.7364 31.1051 39.7511C31.1051 39.7657 31.1082 39.7802 31.1143 39.7936C31.1203 39.8069 31.1291 39.8188 31.1401 39.8285L33.8065 42.2234C33.8372 42.2513 33.8611 42.2834 33.8756 42.3165C33.8902 42.3496 33.895 42.3825 33.8896 42.4119L33.7931 42.9304C33.7766 43.0217 33.731 43.0344 33.6561 42.9686L30.7136 40.3784C30.6667 40.3365 30.606 40.3133 30.543 40.3133C30.4801 40.3133 30.4194 40.3365 30.3724 40.3784L26.3683 43.9359C26.3114 43.9868 26.3204 44.0137 26.3952 44.0167C28.71 44.0945 31.0256 44.1162 33.3419 44.0818C33.5753 44.1222 33.6352 44.2053 33.5215 44.331C33.5003 44.3542 33.4722 44.3729 33.4389 44.3857C33.4055 44.3985 33.3679 44.4051 33.3284 44.405L25.7443 44.4073C25.4226 44.4073 25.2617 44.2449 25.2617 43.9202V35.5236C25.2617 35.4234 25.3012 35.3272 25.3714 35.2561C25.4416 35.1851 25.537 35.1448 25.6366 35.1443L35.0163 35.1061ZM26.2965 35.5572L30.368 39.1597C30.41 39.1969 30.4636 39.2179 30.5186 39.2187C30.5737 39.2195 30.6263 39.2001 30.6665 39.1641L34.8165 35.4742C34.8749 35.4233 34.8644 35.3979 34.7851 35.3979L26.3615 35.3844C26.1865 35.3844 26.1648 35.442 26.2965 35.5572ZM29.753 39.5165C28.4347 38.3344 27.1322 37.177 25.8453 36.0443C25.6807 35.8992 25.5984 35.9366 25.5984 36.1565V43.5431C25.5984 43.6479 25.6373 43.6658 25.7151 43.597L29.9595 39.824C29.9813 39.8048 29.9958 39.7791 30 39.7523C30.0042 39.7255 29.9977 39.6997 29.9819 39.6804C29.9595 39.6534 29.934 39.631 29.9056 39.613C29.8158 39.5607 29.7649 39.5285 29.753 39.5165Z" fill="url(#paint3_linear_427_5426)"/>
<path d="M26.3615 35.3844L34.7851 35.3979C34.8644 35.3979 34.8749 35.4233 34.8165 35.4742L30.6665 39.1641C30.6263 39.2001 30.5737 39.2195 30.5186 39.2187C30.4636 39.2179 30.41 39.1969 30.368 39.1597L26.2965 35.5572C26.1648 35.442 26.1865 35.3844 26.3615 35.3844Z" fill="url(#paint4_linear_427_5426)"/>
<path d="M43.2347 49.9972C43.2322 50.0102 43.2272 50.0226 43.22 50.0337C43.2127 50.0448 43.2033 50.0544 43.1924 50.0618C43.1814 50.0693 43.1691 50.0746 43.1561 50.0773C43.1431 50.08 43.1297 50.0801 43.1167 50.0777L38.1323 49.1359C38.106 49.1309 38.0827 49.1157 38.0677 49.0935C38.0526 49.0714 38.0469 49.0442 38.0518 49.0179L38.9945 44.0291C38.9969 44.0161 39.002 44.0036 39.0092 43.9925C39.0165 43.9814 39.0258 43.9719 39.0368 43.9644C39.0478 43.9569 39.0601 43.9517 39.0731 43.949C39.0861 43.9463 39.0994 43.9461 39.1125 43.9486L44.0968 44.8904C44.1232 44.8954 44.1464 44.9106 44.1615 44.9327C44.1766 44.9549 44.1823 44.9821 44.1773 45.0084L43.2347 49.9972ZM40.2572 47.2802L39.7522 46.4094C39.7143 46.3425 39.6583 46.2912 39.5928 46.2635C39.0886 46.045 38.7878 46.1976 38.6905 46.7213C38.6774 46.7898 38.6885 46.8632 38.722 46.9301C38.9434 47.3685 39.1679 47.8039 39.3953 48.2364C39.8038 49.0115 40.3066 49.0811 40.9036 48.4451C41.7565 47.8047 42.6079 47.1628 43.4578 46.5193C43.9561 46.1438 43.986 45.7831 43.5476 45.4375C43.3262 45.2624 43.101 45.2617 42.872 45.4352L40.4053 47.3116C40.3938 47.3202 40.3806 47.3262 40.3667 47.3292C40.3527 47.3323 40.3382 47.3323 40.3242 47.3293C40.3102 47.3264 40.2969 47.3205 40.2854 47.312C40.2738 47.3035 40.2642 47.2927 40.2572 47.2802Z" fill="url(#paint5_linear_427_5426)"/>
<path d="M18.8088 44.8943C28.1983 44.9138 32.893 44.9235 32.893 44.9235C33.3898 44.8322 33.5349 44.9818 33.3284 45.3724C33.3128 45.4022 33.2888 45.4271 33.2591 45.4445C33.2295 45.462 33.1952 45.4712 33.1601 45.4711L19.0759 45.4846C18.9158 45.4846 18.8919 45.5407 19.0041 45.653L26.2336 52.8802C26.2494 52.8964 26.2682 52.9093 26.2891 52.9181C26.31 52.9269 26.3325 52.9314 26.3553 52.9314C26.378 52.9314 26.4006 52.9269 26.4217 52.9181C26.4429 52.9093 26.4621 52.8964 26.4783 52.8802L33.122 46.2365C33.1983 46.1617 33.2252 46.1767 33.2028 46.2814L32.8751 47.8548C32.8399 48.0203 32.7603 48.1692 32.6461 48.2835L27.2234 53.7084C27.2126 53.7189 27.2039 53.7314 27.198 53.7453C27.1921 53.7592 27.1891 53.7742 27.1891 53.7892C27.1891 53.8043 27.1921 53.8192 27.198 53.8331C27.2039 53.847 27.2126 53.8596 27.2234 53.87L30.9426 57.5892C30.9695 57.6167 30.9896 57.6492 31.0009 57.6836C31.0123 57.7181 31.0146 57.7535 31.0076 57.7867L30.7652 58.8865C30.7458 58.9703 30.7046 58.9807 30.6418 58.9179L26.4109 54.6848C26.3887 54.6631 26.3589 54.651 26.3279 54.651C26.2969 54.651 26.267 54.6631 26.2448 54.6848L18.9345 61.9951C18.8418 62.0879 18.862 62.1342 18.9951 62.1342L30.038 62.0938C30.0686 62.0939 30.0979 62.1061 30.1198 62.1279C30.1416 62.1497 30.1541 62.1794 30.1547 62.2106C30.1622 62.4949 30.0463 62.6363 29.8068 62.6348C25.9164 62.6108 22.0259 62.5989 18.1355 62.5989C17.6866 62.4507 17.4621 62.0953 17.4621 61.5327C17.4621 56.4452 17.4621 51.3577 17.4621 46.2702C17.4427 45.9964 17.4958 45.6687 17.6215 45.2871C17.6367 45.2391 17.6634 45.1954 17.6993 45.1594C17.7352 45.1235 17.7793 45.0965 17.828 45.0806C18.2081 44.9564 18.535 44.8943 18.8088 44.8943ZM18.1826 61.1759L25.4436 53.9172C25.4699 53.8908 25.4849 53.8552 25.4853 53.8182C25.4858 53.7812 25.4715 53.7458 25.4458 53.7197L18.1849 46.4049C18.0771 46.2956 18.0233 46.3181 18.0233 46.4722V61.1108C18.0233 61.2619 18.0764 61.2836 18.1826 61.1759Z" fill="url(#paint6_linear_427_5426)"/>
<path d="M75.2241 53.7331C76.2641 53.7331 77.304 53.7331 78.344 53.7331C78.8916 53.6523 79.2612 53.9 79.4527 54.4761C79.8403 55.6447 80.1298 56.6457 80.3214 57.4792C80.4306 57.9475 80.346 58.3216 80.0677 58.6014C79.8732 58.7975 79.5537 58.8955 79.1093 58.8955C77.8165 58.8955 76.4279 58.8955 74.9436 58.8955C74.7688 58.8955 74.5974 58.8482 74.4475 58.7586C74.1513 58.579 73.9852 58.2887 73.9492 57.8877C73.8236 56.4871 73.8482 55.3267 74.0233 54.4065C74.0772 54.1267 74.241 53.9314 74.5149 53.8207C74.6615 53.7623 74.8979 53.7331 75.2241 53.7331Z" fill="url(#paint7_linear_427_5426)"/>
<path d="M41.2836 60.3585C41.2774 60.3913 41.2584 60.4202 41.2309 60.439C41.2034 60.4578 41.1695 60.4649 41.1367 60.4587L36.2009 59.526C36.1847 59.523 36.1692 59.5167 36.1554 59.5077C36.1416 59.4987 36.1297 59.487 36.1204 59.4734C36.1111 59.4597 36.1046 59.4444 36.1012 59.4282C36.0978 59.4121 36.0977 59.3954 36.1007 59.3792L37.0267 54.4787C37.0329 54.4459 37.0519 54.4169 37.0794 54.3982C37.1069 54.3794 37.1408 54.3723 37.1736 54.3785L42.1094 55.3111C42.1256 55.3142 42.1411 55.3204 42.1549 55.3294C42.1687 55.3385 42.1806 55.3502 42.1899 55.3638C42.1992 55.3774 42.2057 55.3928 42.2091 55.4089C42.2125 55.4251 42.2126 55.4417 42.2096 55.458L41.2836 60.3585ZM38.2506 57.7104L37.6805 56.7924C37.6644 56.7657 37.6397 56.7422 37.6082 56.7235C37.5768 56.7049 37.5394 56.6916 37.4987 56.6846C37.0004 56.5919 36.7461 56.7392 36.7356 57.1268C36.7311 57.3049 36.7999 57.5278 36.9421 57.7957C37.1635 58.2131 37.3992 58.6224 37.6491 59.0234C37.8795 59.393 38.1586 59.4521 38.4863 59.2007L41.66 56.7654C41.7161 56.7224 41.7539 56.6564 41.7655 56.5814C41.8867 55.8452 41.571 55.6297 40.8183 55.935C40.0492 56.5978 39.2389 57.2046 38.3875 57.7553C38.3774 57.7621 38.3657 57.7663 38.3532 57.7678C38.3407 57.7692 38.3277 57.7678 38.3149 57.7636C38.3021 57.7594 38.2898 57.7525 38.2787 57.7433C38.2677 57.7342 38.2581 57.723 38.2506 57.7104Z" fill="url(#paint8_linear_427_5426)"/>
<path d="M66.722 68.3201C67.4174 68.3201 67.9811 67.7563 67.9811 67.0609C67.9811 66.3655 67.4174 65.8018 66.722 65.8018C66.0266 65.8018 65.4628 66.3655 65.4628 67.0609C65.4628 67.7563 66.0266 68.3201 66.722 68.3201Z" fill="url(#paint9_linear_427_5426)"/>
<path d="M74.957 68.3178C75.6512 68.3178 76.2139 67.7551 76.2139 67.0609C76.2139 66.3668 75.6512 65.804 74.957 65.804C74.2628 65.804 73.7001 66.3668 73.7001 67.0609C73.7001 67.7551 74.2628 68.3178 74.957 68.3178Z" fill="url(#paint10_linear_427_5426)"/>
<defs>
<linearGradient id="paint0_linear_427_5426" x1="38.0305" y1="95.2405" x2="84.9203" y2="51.8732" gradientUnits="userSpaceOnUse">
<stop stop-color="#7FAD39"/>
<stop offset="0.487446" stop-color="#B1D17F"/>
<stop offset="1" stop-color="#7FAD39"/>
</linearGradient>
<linearGradient id="paint1_linear_427_5426" x1="38.0305" y1="95.2405" x2="84.9203" y2="51.8732" gradientUnits="userSpaceOnUse">
<stop stop-color="#7FAD39"/>
<stop offset="0.487446" stop-color="#B1D17F"/>
<stop offset="1" stop-color="#7FAD39"/>
</linearGradient>
<linearGradient id="paint2_linear_427_5426" x1="38.0305" y1="95.2405" x2="84.9203" y2="51.8732" gradientUnits="userSpaceOnUse">
<stop stop-color="#7FAD39"/>
<stop offset="0.487446" stop-color="#B1D17F"/>
<stop offset="1" stop-color="#7FAD39"/>
</linearGradient>
<linearGradient id="paint3_linear_427_5426" x1="38.0305" y1="95.2405" x2="84.9203" y2="51.8732" gradientUnits="userSpaceOnUse">
<stop stop-color="#7FAD39"/>
<stop offset="0.487446" stop-color="#B1D17F"/>
<stop offset="1" stop-color="#7FAD39"/>
</linearGradient>
<linearGradient id="paint4_linear_427_5426" x1="38.0305" y1="95.2405" x2="84.9203" y2="51.8732" gradientUnits="userSpaceOnUse">
<stop stop-color="#7FAD39"/>
<stop offset="0.487446" stop-color="#B1D17F"/>
<stop offset="1" stop-color="#7FAD39"/>
</linearGradient>
<linearGradient id="paint5_linear_427_5426" x1="38.0305" y1="95.2405" x2="84.9203" y2="51.8732" gradientUnits="userSpaceOnUse">
<stop stop-color="#7FAD39"/>
<stop offset="0.487446" stop-color="#B1D17F"/>
<stop offset="1" stop-color="#7FAD39"/>
</linearGradient>
<linearGradient id="paint6_linear_427_5426" x1="38.0305" y1="95.2405" x2="84.9203" y2="51.8732" gradientUnits="userSpaceOnUse">
<stop stop-color="#7FAD39"/>
<stop offset="0.487446" stop-color="#B1D17F"/>
<stop offset="1" stop-color="#7FAD39"/>
</linearGradient>
<linearGradient id="paint7_linear_427_5426" x1="38.0305" y1="95.2405" x2="84.9203" y2="51.8732" gradientUnits="userSpaceOnUse">
<stop stop-color="#7FAD39"/>
<stop offset="0.487446" stop-color="#B1D17F"/>
<stop offset="1" stop-color="#7FAD39"/>
</linearGradient>
<linearGradient id="paint8_linear_427_5426" x1="38.0305" y1="95.2405" x2="84.9203" y2="51.8732" gradientUnits="userSpaceOnUse">
<stop stop-color="#7FAD39"/>
<stop offset="0.487446" stop-color="#B1D17F"/>
<stop offset="1" stop-color="#7FAD39"/>
</linearGradient>
<linearGradient id="paint9_linear_427_5426" x1="38.0305" y1="95.2405" x2="84.9203" y2="51.8732" gradientUnits="userSpaceOnUse">
<stop stop-color="#7FAD39"/>
<stop offset="0.487446" stop-color="#B1D17F"/>
<stop offset="1" stop-color="#7FAD39"/>
</linearGradient>
<linearGradient id="paint10_linear_427_5426" x1="38.0305" y1="95.2405" x2="84.9203" y2="51.8732" gradientUnits="userSpaceOnUse">
<stop stop-color="#7FAD39"/>
<stop offset="0.487446" stop-color="#B1D17F"/>
<stop offset="1" stop-color="#7FAD39"/>
</linearGradient>
</defs>
</svg>
