<svg width="94" height="96" viewBox="0 0 94 96" fill="none" xmlns="http://www.w3.org/2000/svg">
<path d="M48.2921 0.943824C50.2156 2.87177 52.1439 4.80422 54.0771 6.74117C54.0876 6.75138 54.101 6.75813 54.1154 6.76054C54.1299 6.76295 54.1447 6.76091 54.158 6.75468C56.6598 5.57077 59.1574 4.38751 61.6509 3.20489C62.1535 2.96631 62.5042 2.84123 62.7032 2.82965C63.0093 2.81229 63.2799 2.9065 63.5148 3.11228C63.656 3.2364 63.8049 3.4634 63.9615 3.7933C65.2079 6.41578 66.4488 9.04114 67.6843 11.6694C67.6905 11.6825 67.7005 11.6933 67.7129 11.7005C67.7252 11.7078 67.7395 11.711 67.7537 11.7099C70.6958 11.47 73.643 11.2292 76.5954 10.9874C77.1615 10.9411 77.5745 11.1176 77.8344 11.517C77.9333 11.6681 77.9971 11.8897 78.026 12.1816C78.3193 15.1507 78.6113 18.1092 78.9021 21.0571C78.9049 21.0843 78.9158 21.11 78.9335 21.1309C78.9512 21.1517 78.9749 21.1667 79.0012 21.1738C81.7746 21.9172 84.536 22.666 87.2855 23.4204C87.7265 23.5413 88.0243 23.6731 88.179 23.8159C88.4254 24.0422 88.5307 24.3352 88.4947 24.6946C88.4883 24.7577 88.4167 25.0435 88.28 25.5522C87.5567 28.2531 86.8276 30.9572 86.0927 33.6646C86.0888 33.6787 86.0893 33.6937 86.0943 33.7075C86.0993 33.7213 86.1085 33.7333 86.1206 33.7418C88.4626 35.3855 90.7976 37.024 93.1255 38.6575C93.5176 38.9321 93.7612 39.153 93.8562 39.3202C93.982 39.5427 94.0211 39.7883 93.9736 40.0571C93.9428 40.2327 93.8398 40.4462 93.6646 40.6976C92.0016 43.0918 90.3291 45.4876 88.6468 47.885C88.6376 47.898 88.6326 47.9136 88.6326 47.9297C88.6326 47.9457 88.6376 47.9615 88.6468 47.9747C90.2861 50.3174 91.9153 52.6515 93.5346 54.9769C93.7959 55.3518 93.9448 55.6476 93.9813 55.8643C94.0301 56.1543 93.9833 56.4299 93.8408 56.691C93.7484 56.8608 93.569 57.0399 93.3026 57.2283C90.9189 58.908 88.5223 60.5896 86.1129 62.2732C86.1006 62.2817 86.0912 62.2938 86.086 62.3078C86.0808 62.3218 86.0801 62.3371 86.0841 62.3514C86.8279 65.0774 87.5702 67.8111 88.3109 70.5525C88.4527 71.0773 88.5024 71.4528 88.4601 71.6792C88.3709 72.1596 88.0262 72.4512 87.4261 72.5541C84.6034 73.3252 81.7806 74.0946 78.9579 74.8624C78.9444 74.8661 78.9323 74.8739 78.9234 74.8846C78.9144 74.8953 78.909 74.9084 78.9079 74.9223C78.6524 77.9749 78.4031 81.028 78.1598 84.0813C78.0514 84.5083 77.8232 84.7941 77.4753 84.9388C77.2776 85.0205 76.9442 85.0427 76.475 85.0054C73.6196 84.7777 70.7731 84.543 67.9356 84.3012C67.9122 84.299 67.8887 84.3041 67.8682 84.3158C67.8477 84.3276 67.8312 84.3454 67.8211 84.3668C66.5387 87.0928 65.2534 89.813 63.9653 92.5275C63.7407 93.0021 63.4114 93.2355 62.9775 93.2278C62.7709 93.2239 62.4314 93.1098 61.959 92.8854C59.4751 91.7053 56.9361 90.5021 54.3419 89.2757C54.3188 89.265 54.2929 89.2616 54.2678 89.2661C54.2427 89.2706 54.2195 89.2827 54.2013 89.3008C52.1122 91.3973 50.0051 93.4972 47.88 95.6007C47.7048 95.7744 47.5357 95.8866 47.3726 95.9374C46.8682 96.095 46.4263 95.9551 46.047 95.5178C45.9192 95.3712 43.8385 93.2905 39.8046 89.2757C39.7947 89.2659 39.7819 89.2594 39.768 89.2571C39.754 89.2549 39.7396 89.257 39.7266 89.2632C34.3026 91.8381 31.5636 93.1313 31.5097 93.1429C30.8326 93.2812 30.339 93.0561 30.029 92.4677C28.7666 89.7526 27.4862 87.0459 26.1878 84.3475C26.1814 84.3347 26.1714 84.3241 26.1588 84.317C26.1463 84.31 26.1319 84.3068 26.1175 84.308C20.0856 84.8025 17.0553 85.0485 17.0264 85.0459C16.5752 85.0073 16.2508 84.8286 16.0531 84.5096C15.9427 84.3321 15.8686 84.0028 15.8307 83.5218C15.6073 80.7206 15.3763 77.8772 15.1375 74.9917C15.1344 74.9549 15.12 74.9199 15.0963 74.8915C15.0725 74.863 15.0405 74.8424 15.0047 74.8325C12.1255 74.0544 9.26936 73.2789 6.43636 72.5059C5.94601 72.3721 5.65655 72.0969 5.56798 71.6802C5.52562 71.4808 5.55771 71.1837 5.66425 70.7889C6.42224 67.969 7.18184 65.1606 7.94304 62.3639C7.94809 62.3459 7.94737 62.3268 7.94099 62.3092C7.9346 62.2915 7.92287 62.2763 7.90742 62.2655C5.58595 60.6366 3.27155 59.0106 0.964201 57.3874C0.523271 57.0775 0.252422 56.8366 0.151656 56.6649C0.0053213 56.4174 -0.0351134 56.1424 0.0303523 55.8402C0.0701452 55.6556 0.189845 55.4203 0.389451 55.1341C2.03123 52.7811 3.69033 50.4043 5.36677 48.0036C5.38174 47.9818 5.38975 47.956 5.38975 47.9297C5.38975 47.9033 5.38174 47.8776 5.36677 47.8561C3.68007 45.44 2.00684 43.0458 0.347091 40.6735C0.0120605 40.1951 -0.0428151 39.7507 0.182464 39.3404C0.284513 39.1539 0.520062 38.9314 0.889108 38.6729C3.21635 37.0433 5.55579 35.4029 7.90742 33.7514C7.92132 33.7415 7.93188 33.7275 7.93772 33.7113C7.94357 33.6951 7.94441 33.6775 7.94015 33.6607C7.1982 30.909 6.45369 28.1499 5.70661 25.3834C5.57568 24.8991 5.52434 24.5573 5.55258 24.358C5.61355 23.9348 5.88408 23.658 6.36416 23.5274C9.27353 22.7352 12.171 21.9487 15.0567 21.168C15.0772 21.1626 15.0956 21.1509 15.1092 21.1345C15.1228 21.1181 15.131 21.0977 15.1327 21.0764C15.3657 18.2089 15.5958 15.4086 15.823 12.6755C15.8435 12.4247 15.8634 12.2167 15.8827 12.0514C15.9103 11.8077 15.9764 11.6141 16.081 11.4707C16.3486 11.1041 16.752 10.943 17.2912 10.9874C20.1877 11.2247 23.0826 11.4659 25.976 11.7109C25.9921 11.712 26.0081 11.7084 26.022 11.7005C26.0359 11.6926 26.047 11.6808 26.0539 11.6665C27.3356 9.00159 28.6106 6.34761 29.8789 3.70456C30.1118 3.21968 30.4498 2.96856 30.8926 2.95119C31.098 2.94283 31.3891 3.0245 31.7658 3.19621C34.3626 4.37754 36.9591 5.55984 39.5553 6.7431C39.572 6.75071 39.5906 6.75312 39.6087 6.75003C39.6267 6.74693 39.6433 6.73846 39.6564 6.72574C41.551 4.85245 43.4409 2.96759 45.3259 1.07115C45.8708 0.522608 46.2138 0.210715 46.355 0.135475C46.7363 -0.0677376 47.1198 -0.0423359 47.5055 0.21168C47.614 0.283062 47.8762 0.52711 48.2921 0.943824ZM46.3771 11.1709C46.6181 11.242 46.8713 11.2625 47.1224 11.2313C47.3735 11.2001 47.6175 11.1178 47.8405 10.989C48.0635 10.8603 48.2611 10.6877 48.422 10.481C48.5829 10.2743 48.704 10.0377 48.7784 9.78455C48.9285 9.27333 48.8792 8.72604 48.6413 8.26307C48.4033 7.8001 47.9962 7.45937 47.5095 7.31585C47.2685 7.24478 47.0152 7.22426 46.7641 7.25548C46.513 7.28669 46.269 7.36901 46.046 7.49775C45.823 7.62649 45.6254 7.79912 45.4645 8.00578C45.3036 8.21245 45.1825 8.4491 45.1081 8.70223C44.958 9.21345 45.0073 9.76074 45.2453 10.2237C45.4832 10.6867 45.8904 11.0274 46.3771 11.1709ZM32.2558 10.2099C31.8945 10.6254 31.7186 11.0656 31.7283 11.5305C31.7373 11.9581 31.8878 12.3733 32.1798 12.7758C32.6586 13.435 33.3598 13.6427 34.2834 13.399C34.8931 13.2382 35.3176 12.888 35.557 12.3485C35.7226 11.9749 35.7689 11.59 35.6957 11.1938C35.6212 10.79 35.4361 10.4273 35.1402 10.1058C34.7416 9.67168 34.2795 9.45914 33.7539 9.46815C33.1762 9.47779 32.6769 9.72506 32.2558 10.2099ZM58.7107 12.8694C59.1741 13.3324 59.736 13.5157 60.3965 13.4192C61.1159 13.3131 61.6368 12.9363 61.959 12.2887C62.0456 12.1144 62.0941 11.9299 62.1044 11.735C62.1396 11.0688 61.9574 10.5312 61.5575 10.1222C61.2007 9.75689 60.7671 9.56172 60.2569 9.53664C59.7293 9.51027 59.2473 9.6974 58.8109 10.098C58.4656 10.4144 58.2563 10.7913 58.1831 11.2286C58.0766 11.8639 58.2525 12.4109 58.7107 12.8694ZM22.5246 71.8673C26.3755 75.8042 30.8945 78.6531 36.0817 80.4138C36.6889 80.6202 37.3025 80.808 37.9225 80.9772C43.3022 82.4479 48.7221 82.5958 54.182 81.4209C54.8104 81.2852 55.433 81.1305 56.0497 80.9569C60.6631 79.6553 64.7939 77.4994 68.442 74.4891C71.9926 71.5606 74.8326 68.096 76.9622 64.0954C79.4768 59.372 80.817 54.3135 80.9825 48.92C81.0024 48.2757 81.0034 47.6332 80.9854 46.9927C80.8609 42.6127 79.9492 38.4343 78.2503 34.4575C76.1644 29.5766 73.0875 25.385 69.0196 21.8828C65.5192 18.8693 61.6663 16.6845 57.4611 15.3282C53.4613 14.0382 49.4579 13.4916 45.451 13.6883C38.1022 14.0491 31.5425 16.5095 25.7719 21.0696C25.2629 21.4715 24.7706 21.8841 24.295 22.3072C20.7278 25.4757 17.95 29.1923 15.9616 33.4572C13.8404 38.0064 12.7702 42.7992 12.7509 47.8358C12.7355 51.8943 13.4229 55.8251 14.8131 59.6282C16.5081 64.2648 19.0786 68.3445 22.5246 71.8673ZM70.2414 16.9902C69.6663 17.7221 69.6255 18.4892 70.1191 19.2918C70.3148 19.6101 70.5828 19.8455 70.923 19.9979C71.4043 20.2133 71.8741 20.2625 72.3324 20.1455C72.7913 20.0285 73.1559 19.778 73.4261 19.3941C73.6212 19.1162 73.7377 18.8015 73.7755 18.4497C73.8108 18.1204 73.7707 17.7976 73.6552 17.4812C73.4524 16.9262 73.0763 16.5555 72.5269 16.369C72.111 16.2282 71.7073 16.2018 71.3158 16.2899C70.8915 16.3851 70.5334 16.6185 70.2414 16.9902ZM20.8475 19.9641C21.3597 20.3802 21.9078 20.5153 22.4918 20.3693C22.8551 20.2786 23.1799 20.1027 23.4661 19.8416C23.7671 19.5664 23.9632 19.2355 24.0543 18.8491C24.1872 18.2844 24.0938 17.7674 23.7742 17.2979C23.3416 16.6632 22.7919 16.3459 22.125 16.3459C21.5679 16.3459 21.0943 16.5182 20.704 16.8629C20.2843 17.2333 20.084 17.7507 20.1033 18.415C20.1225 19.0613 20.3706 19.5777 20.8475 19.9641ZM79.1976 30.0338C79.611 30.3926 80.0673 30.563 80.5666 30.545C81.1026 30.5257 81.5496 30.2904 81.9077 29.8389C82.1805 29.4949 82.3381 29.118 82.3804 28.7084C82.4228 28.3007 82.3499 27.9174 82.1619 27.5586C81.9937 27.239 81.7527 26.9859 81.4389 26.7994C81.1327 26.6181 80.8096 26.5335 80.4694 26.5457C80.0574 26.5605 79.6546 26.702 79.2612 26.9702C78.7888 27.2917 78.526 27.7197 78.4727 28.2541C78.4021 28.9608 78.6438 29.5541 79.1976 30.0338ZM12.2282 30.0955C12.7172 30.5373 13.2836 30.6489 13.9274 30.4302C14.4286 30.2605 14.8131 29.9753 15.0807 29.5746C15.3041 29.2409 15.4039 28.8836 15.3801 28.5029C15.3564 28.1184 15.2171 27.7521 14.9623 27.4042C14.5169 26.7959 13.9585 26.5226 13.2872 26.5843C12.9842 26.612 12.7018 26.7065 12.44 26.8679C12.1787 27.0287 11.9547 27.237 11.768 27.493C11.6492 27.6557 11.5722 27.837 11.5369 28.037C11.3906 28.8608 11.621 29.547 12.2282 30.0955ZM7.68503 42.7484C8.08103 43.068 8.5072 43.2044 8.96353 43.1574C9.88134 43.0622 10.4811 42.5619 10.7629 41.6565C10.9355 41.1015 10.8861 40.5989 10.6146 40.1488C10.4234 39.8311 10.1692 39.5925 9.85213 39.433C9.52801 39.2697 9.16795 39.2108 8.77195 39.2565C8.03771 39.342 7.5066 39.66 7.17863 40.2105C6.93281 40.6234 6.8513 41.0616 6.93409 41.5253C7.01946 42.005 7.26977 42.4127 7.68503 42.7484ZM86.9832 41.1973C86.9832 40.679 86.7777 40.1819 86.412 39.8154C86.0462 39.4489 85.5501 39.243 85.0328 39.243C84.5154 39.243 84.0193 39.4489 83.6535 39.8154C83.2878 40.1819 83.0823 40.679 83.0823 41.1973C83.0823 41.7156 83.2878 42.2127 83.6535 42.5792C84.0193 42.9457 84.5154 43.1516 85.0328 43.1516C85.5501 43.1516 86.0462 42.9457 86.412 42.5792C86.7777 42.2127 86.9832 41.7156 86.9832 41.1973ZM7.63496 56.1354C7.95395 56.401 8.30631 56.5595 8.69204 56.6109C9.072 56.6617 9.43816 56.61 9.79052 56.4556C10.1673 56.2903 10.451 56.0257 10.6416 55.6617C10.8084 55.3415 10.8717 54.9794 10.8312 54.5756C10.7587 53.854 10.4086 53.3177 9.78089 52.9666C9.50106 52.8103 9.21769 52.7229 8.9308 52.7042C8.60732 52.683 8.30727 52.7422 8.03065 52.8817C7.46071 53.1698 7.1045 53.6119 6.96201 54.2081C6.87537 54.572 6.89045 54.919 7.00726 55.2489C7.12921 55.5923 7.33844 55.8878 7.63496 56.1354ZM83.6657 56.1855C84.2793 56.6826 84.9727 56.7704 85.7461 56.4489C86.3604 56.1936 86.7124 55.7637 86.8023 55.1592C86.844 54.8781 86.844 54.61 86.8023 54.3547C86.758 54.0872 86.655 53.8335 86.4932 53.5936C86.1961 53.1518 85.8161 52.8753 85.3533 52.764C84.9188 52.6592 84.4846 52.7078 84.0508 52.9097C83.6169 53.1116 83.3018 53.4325 83.1054 53.8724C82.9276 54.2711 82.8843 54.6762 82.9754 55.0878C83.0717 55.5257 83.3018 55.8916 83.6657 56.1855ZM12.3032 68.822C12.8327 69.2522 13.3918 69.3944 13.9803 69.2484C14.384 69.1487 14.7184 68.9384 14.9835 68.6175C15.2479 68.2973 15.4077 67.9133 15.4629 67.4658C15.5245 66.9706 15.4299 66.5507 15.1789 66.206C14.8753 65.7873 14.4655 65.514 13.9495 65.386C13.6729 65.3179 13.4126 65.3089 13.1687 65.359C12.9062 65.4131 12.6623 65.523 12.4371 65.6889C11.9377 66.0574 11.6563 66.5314 11.5927 67.1108C11.5562 67.4439 11.5972 67.7548 11.716 68.0436C11.8405 68.3458 12.0362 68.6053 12.3032 68.822ZM79.3093 68.8702C79.9389 69.3796 80.6154 69.4448 81.3388 69.0661C82.1487 68.6423 82.4931 67.9641 82.3718 67.0317C82.287 66.377 81.9892 65.8989 81.4783 65.5973C81.0702 65.3561 80.6385 65.2809 80.1835 65.3716C79.7329 65.4616 79.3292 65.6995 78.9724 66.0854C78.4878 66.6089 78.3678 67.2143 78.6123 67.9018C78.7471 68.2812 78.9794 68.604 79.3093 68.8702ZM70.5725 79.0711C71.0738 79.4685 71.5994 79.6122 72.1495 79.5023C72.6655 79.3994 73.0801 79.1267 73.3933 78.6843C73.7759 78.1447 73.8545 77.4968 73.6292 76.7406C73.5195 76.3734 73.2967 76.0711 72.9611 75.8338C72.6421 75.6081 72.3051 75.4808 71.9502 75.4518C71.6107 75.4242 71.2734 75.4965 70.9384 75.6689C70.5738 75.856 70.2856 76.1232 70.0738 76.4705C69.8672 76.8081 69.7699 77.1724 69.7821 77.5634C69.8007 78.1659 70.0642 78.6685 70.5725 79.0711ZM22.9655 75.8676C22.5862 75.6824 22.1834 75.621 21.7573 75.6833C21.3767 75.7399 21.0548 75.8746 20.7916 76.0875C20.5054 76.319 20.3058 76.6274 20.1928 77.0126C20.051 77.4936 20.0545 77.9447 20.2034 78.3659C20.4069 78.9428 20.8196 79.3219 21.4415 79.5032C22.0641 79.6852 22.6147 79.6389 23.0935 79.3643C23.5505 79.1026 23.8621 78.7036 24.0283 78.1672C24.1927 77.6373 24.1253 77.1322 23.8262 76.6518C23.6086 76.3033 23.3217 76.0418 22.9655 75.8676ZM58.9235 85.9681C59.2136 86.2034 59.5358 86.3408 59.8901 86.38C60.2174 86.4166 60.5479 86.3616 60.8817 86.215C61.4503 85.9655 61.8284 85.5295 62.0158 84.907C62.2192 84.2311 62.1323 83.645 61.7549 83.1485C61.4866 82.7961 61.1513 82.5585 60.7488 82.4357C60.3278 82.307 59.8917 82.335 59.4405 82.5196C58.5349 82.8906 58.1122 83.5344 58.1726 84.4507C58.1931 84.762 58.2618 85.0392 58.3786 85.2822C58.5076 85.5504 58.6892 85.779 58.9235 85.9681ZM32.4003 85.8234C32.8412 86.2356 33.3485 86.4025 33.9223 86.324C34.5847 86.2334 35.0837 85.9157 35.4194 85.371C35.5574 85.1459 35.6424 84.8964 35.6745 84.6224C35.7092 84.3195 35.6867 84.0508 35.6071 83.816C35.2862 82.8713 34.6765 82.4077 33.7779 82.425C33.3826 82.4328 33.0276 82.5289 32.7131 82.7135C32.3678 82.916 32.1066 83.1971 31.9295 83.5565C31.7344 83.9514 31.676 84.3437 31.7543 84.7334C31.8345 85.1334 32.0498 85.4967 32.4003 85.8234ZM48.8707 86.6954C48.8707 86.183 48.6675 85.6915 48.3059 85.3292C47.9442 84.9668 47.4537 84.7633 46.9423 84.7633C46.4309 84.7633 45.9404 84.9668 45.5788 85.3292C45.2171 85.6915 45.014 86.183 45.014 86.6954C45.014 87.2078 45.2171 87.6993 45.5788 88.0616C45.9404 88.424 46.4309 88.6275 46.9423 88.6275C47.4537 88.6275 47.9442 88.424 48.3059 88.0616C48.6675 87.6993 48.8707 87.2078 48.8707 86.6954Z" fill="url(#paint0_linear_419_3550)"/>
<path d="M59.5493 18.6378C63.7468 20.4449 67.4087 23.066 70.535 26.5014C70.9631 26.9715 71.379 27.4615 71.7827 27.9714C76.3454 33.7315 78.7163 40.3211 78.8953 47.7403C78.9107 48.3917 78.9014 49.0339 78.8674 49.6666C78.5901 54.8704 77.1528 59.68 74.5553 64.0954C71.6813 68.9821 67.7697 72.8567 62.8206 75.719C62.2616 76.0419 61.6958 76.3447 61.1233 76.6277C55.9965 79.1589 50.5625 80.245 44.8214 79.8862C44.1828 79.8463 43.5445 79.7833 42.9065 79.6971C36.0949 78.7827 30.1702 75.9689 25.1326 71.2557C24.1269 70.3149 23.1904 69.3085 22.3233 68.2365C17.9115 62.7813 15.5242 56.5514 15.1616 49.547C15.1282 48.8995 15.117 48.2567 15.1279 47.6188C15.2101 42.7995 16.3018 38.2334 18.4031 33.9202C18.6836 33.344 18.9836 32.7756 19.3033 32.2148C21.8545 27.7312 25.2674 24.0798 29.5419 21.2606C33.62 18.5706 38.1064 16.9179 43.0009 16.3025C43.635 16.2234 44.2746 16.1636 44.9196 16.123C50.0368 15.8041 54.9134 16.6423 59.5493 18.6378ZM52.5454 40.8848C52.539 40.8849 52.5326 40.8832 52.527 40.88C52.5215 40.8768 52.5168 40.8721 52.5136 40.8664C52.5104 40.8607 52.5087 40.8543 52.5087 40.8477C52.5087 40.8411 52.5104 40.8346 52.5136 40.8288C53.4667 39.1485 54.4105 37.4964 55.345 35.8726C55.7025 35.252 55.9024 34.6337 55.9448 34.0177C56.0289 32.7984 55.6874 31.7547 54.9204 30.8865C54.5687 30.4891 54.175 30.1737 53.7392 29.9402C53.2674 29.6875 52.7732 29.5454 52.2566 29.5139C50.3709 29.3987 48.9627 30.1624 48.0321 31.8048C46.9372 33.7964 45.8252 35.7784 44.6962 37.7507C44.256 38.5205 43.8436 39.1189 43.4591 39.5459C42.9681 40.0919 42.3642 40.4783 41.6473 40.7053C41.6358 40.709 41.6252 40.7152 41.6165 40.7236C41.6077 40.7319 41.6009 40.7421 41.5966 40.7534C41.5924 40.7648 41.5907 40.7769 41.5918 40.789C41.5929 40.801 41.5968 40.8127 41.603 40.823C41.6672 40.9317 41.7208 41.0517 41.7638 41.1828C41.7971 41.2851 41.8215 41.4137 41.8369 41.5687C41.9133 42.3288 41.9489 43.0915 41.9438 43.8568C41.9002 50.3107 41.8742 56.7643 41.8658 63.2176C41.8645 64.0028 41.8549 64.4706 41.8369 64.6211C41.7805 65.0886 41.6482 65.5433 41.4403 65.9851C41.437 65.9921 41.4351 65.9997 41.4349 66.0074C41.4346 66.0152 41.4359 66.0229 41.4386 66.0302C41.4414 66.0375 41.4456 66.0441 41.4511 66.0498C41.4565 66.0555 41.463 66.06 41.4701 66.0632C42.6139 66.5474 43.8044 66.7896 45.0419 66.7896C51.2431 66.7902 57.4447 66.7896 63.6466 66.7876C64.6646 66.787 65.5452 66.4886 66.2884 65.8925C67.3166 65.0674 67.8672 64.0131 67.9404 62.7295C67.9712 62.1964 67.9115 61.6951 67.7614 61.2257C67.6035 60.7343 67.3612 60.281 67.0345 59.8655C67.0306 59.861 66.9857 59.8163 66.8997 59.7315C66.8131 59.6459 66.814 59.5601 66.9026 59.4739C66.988 59.3916 67.0313 59.3495 67.0326 59.3475C67.72 58.5135 68.0354 57.5862 67.9789 56.5656C67.9212 55.5193 67.5499 54.6132 66.8651 53.8473C66.8483 53.8284 66.8387 53.8041 66.838 53.7788C66.8373 53.7534 66.8455 53.7285 66.8612 53.7084C67.7065 52.6364 68.0348 51.4708 67.8461 50.2117C67.7787 49.766 67.6545 49.3673 67.4735 49.0155C67.2797 48.64 67.0245 48.3007 66.7081 47.9979C66.7003 47.9904 66.6941 47.9815 66.6898 47.9716C66.6855 47.9617 66.6832 47.951 66.683 47.9402C66.6828 47.9293 66.6848 47.9185 66.6888 47.9084C66.6927 47.8983 66.6987 47.889 66.7062 47.8811C67.6073 46.9467 67.9754 45.8223 67.8105 44.5079C67.6295 43.0654 66.8789 42.0111 65.5586 41.3449C65.352 41.2407 65.1559 41.1697 64.9704 41.1317C64.3703 41.0089 63.7365 40.9378 63.069 40.9185C61.2642 40.8664 59.4591 40.8497 57.6536 40.8684C55.9387 40.8864 54.2359 40.8918 52.5454 40.8848ZM26.3591 65.1082C26.6351 65.3449 26.9579 65.4555 27.3276 65.4401C27.3276 65.4401 30.711 65.4401 37.4777 65.4401C38.0027 65.4401 38.3689 65.3909 38.5762 65.2925C38.9696 65.106 39.2154 64.7613 39.3136 64.2584C39.347 64.0874 39.3688 58.2434 39.3791 46.7265C39.3797 45.5599 39.3499 44.3944 39.2896 43.2298C39.2876 42.6265 39.2029 42.0385 39.0354 41.4655C38.9648 41.2243 38.8749 41.0539 38.7658 40.9542C38.6137 40.816 38.4192 40.7468 38.1824 40.7468C34.7012 40.7462 31.2199 40.7459 27.7387 40.7459C27.2227 40.7459 26.8594 40.7944 26.6489 40.8915C26.2176 41.0902 25.9625 41.4677 25.8835 42.024C25.8835 49.3712 25.8842 56.7183 25.8855 64.0655C25.8855 64.4906 26.0433 64.8382 26.3591 65.1082Z" fill="url(#paint1_linear_419_3550)"/>
<defs>
<linearGradient id="paint0_linear_419_3550" x1="36.1098" y1="92.3544" x2="81.4941" y2="51.2539" gradientUnits="userSpaceOnUse">
<stop stop-color="#7FAD39"/>
<stop offset="0.487446" stop-color="#B1D17F"/>
<stop offset="1" stop-color="#7FAD39"/>
</linearGradient>
<linearGradient id="paint1_linear_419_3550" x1="36.1098" y1="92.3544" x2="81.4941" y2="51.2539" gradientUnits="userSpaceOnUse">
<stop stop-color="#7FAD39"/>
<stop offset="0.487446" stop-color="#B1D17F"/>
<stop offset="1" stop-color="#7FAD39"/>
</linearGradient>
</defs>
</svg>
