<svg width="24" height="20" viewBox="0 0 24 20" fill="none" xmlns="http://www.w3.org/2000/svg">
<path d="M7.2 20H2.4C1.74 20 1.1752 19.7808 0.7056 19.3423C0.2352 18.9031 0 18.3753 0 17.7591V5.82633C0 5.35948 0.1352 4.93931 0.4056 4.56583C0.6752 4.19234 1.04 3.92157 1.5 3.7535L11.1 0.168067C11.38 0.0560222 11.68 0 12 0C12.32 0 12.62 0.0560222 12.9 0.168067L22.5 3.7535C22.96 3.92157 23.3252 4.19234 23.5956 4.56583C23.8652 4.93931 24 5.35948 24 5.82633V17.7591C24 18.3753 23.7652 18.9031 23.2956 19.3423C22.8252 19.7808 22.26 20 21.6 20H16.8V11.0364H7.2V20ZM8.4 20V17.7591H10.8V20H8.4ZM10.8 16.6387V14.3978H13.2V16.6387H10.8ZM13.2 20V17.7591H15.6V20H13.2Z" fill="#272E28"/>
</svg>
