<svg width="130" height="90" viewBox="0 0 130 90" fill="none" xmlns="http://www.w3.org/2000/svg">
<path d="M22.4446 0.00121387C27.4997 0.665495 32.5538 1.34413 37.607 2.03713C58.9874 4.96896 69.9034 6.47077 70.355 6.54256C71.3577 6.70049 72.3644 6.83019 73.3748 6.93165L73.6984 7.00344L80.4182 7.92233C80.43 7.92377 80.4412 7.92826 80.4506 7.93538C80.4601 7.94249 80.4676 7.95198 80.4724 7.96294C80.4771 7.97391 80.479 7.98596 80.4779 7.99796C80.4767 8.00996 80.4725 8.02149 80.4657 8.03145L66.4493 27.6871C66.4229 27.7245 66.3856 27.7527 66.3426 27.7679C66.2995 27.7831 66.2529 27.7844 66.2092 27.7718C64.5631 27.3018 62.9401 26.8629 61.34 26.4552C60.5923 26.2647 43.3452 21.6712 9.59877 12.6747L9.02357 12.5067L7.98244 12.2483C7.88657 12.2244 7.87651 12.1803 7.95224 12.1162L22.318 0.0385438C22.3353 0.024029 22.3554 0.013224 22.3772 0.00680172C22.399 0.000379419 22.4219 -0.00152268 22.4446 0.00121387Z" fill="url(#paint0_linear_422_5109)"/>
<path d="M57.8083 3.74856L58.3835 3.73707L68.7372 3.92803L70.0674 3.96392L114.61 4.8943C114.763 4.89717 114.785 4.95221 114.675 5.05941L100.799 18.4637C100.784 18.478 100.764 18.4869 100.744 18.489C100.723 18.491 100.702 18.4862 100.684 18.4752L82.6716 7.02785C82.5853 6.97233 82.4933 6.93835 82.3955 6.92591L76.8979 6.21377L75.9632 6.08168L57.7723 3.80886L57.8083 3.74856Z" fill="url(#paint1_linear_422_5109)"/>
<path d="M116.452 4.97328L124.617 13.3912C124.633 13.4076 124.646 13.4268 124.654 13.4477C124.662 13.4687 124.666 13.4909 124.666 13.5132C124.664 14.0617 124.679 14.6097 124.712 15.1572C124.678 18.7456 124.678 21.7966 124.712 24.3102C124.716 24.6203 124.713 24.8921 124.703 25.1257C124.686 25.5545 124.677 25.8249 124.677 25.9369C124.704 32.864 124.707 39.7954 124.685 46.7311C124.685 46.7531 124.679 46.7748 124.667 46.7938C124.655 46.8128 124.638 46.8283 124.619 46.8388L67.8845 76.2906C67.8686 76.2988 67.8509 76.3028 67.8331 76.3023C67.8153 76.3018 67.798 76.2967 67.7828 76.2876C67.7676 76.2785 67.7551 76.2657 67.7464 76.2503C67.7378 76.235 67.7333 76.2177 67.7335 76.2002C67.7162 72.6069 67.7272 69.2013 67.7665 65.9833C67.7109 64.5714 67.7109 63.1596 67.7665 61.7477C67.71 60.2526 67.71 58.757 67.7665 57.261C67.7282 55.4423 67.7162 53.6237 67.7306 51.8051C67.7526 48.9938 67.7498 46.1821 67.722 43.37C67.7152 42.6511 67.7196 41.9328 67.7349 41.2149C67.7522 40.4032 67.756 39.6863 67.7464 39.0641C67.709 36.742 67.7148 34.4203 67.7637 32.0992C67.7857 31.0827 67.7747 30.3409 67.7306 29.8738C67.7047 29.601 67.7397 29.3578 67.8356 29.1444C67.8567 29.0965 67.9885 28.8979 68.231 28.5485C72.8691 21.8464 77.5057 15.1404 82.1409 8.4306C82.1617 8.40041 82.1933 8.37938 82.2292 8.37189C82.2651 8.3644 82.3025 8.37103 82.3336 8.3904L100.881 20.0589C100.899 20.0698 100.92 20.0745 100.94 20.0722C100.961 20.0698 100.98 20.0606 100.995 20.0459L116.313 4.97041C116.322 4.96143 116.333 4.95438 116.345 4.94967C116.357 4.94495 116.369 4.94266 116.382 4.94293C116.395 4.9432 116.408 4.94602 116.42 4.95122C116.432 4.95643 116.443 4.96393 116.452 4.97328ZM120.637 28.56L106.504 34.0202C106.477 34.0304 106.455 34.0488 106.439 34.0729C106.423 34.0971 106.415 34.1259 106.416 34.1552L106.451 36.072C106.451 36.0907 106.456 36.1092 106.464 36.1258C106.473 36.1423 106.486 36.1565 106.501 36.167C106.516 36.1774 106.534 36.184 106.552 36.1859C106.571 36.1879 106.589 36.1852 106.606 36.1782L120.595 30.5758C120.622 30.5652 120.645 30.5468 120.661 30.523C120.677 30.4992 120.686 30.4711 120.686 30.4423V28.5931C120.685 28.5873 120.684 28.5816 120.681 28.5765C120.678 28.5714 120.675 28.567 120.67 28.5638C120.665 28.5605 120.659 28.5585 120.654 28.5579C120.648 28.5572 120.642 28.5579 120.637 28.56ZM106.445 39.9356C106.445 39.9483 106.448 39.9607 106.454 39.9719C106.46 39.9831 106.468 39.9926 106.479 39.9996C106.49 40.0065 106.502 40.0108 106.515 40.0119C106.528 40.013 106.541 40.011 106.553 40.006L120.543 34.0762C120.585 34.0585 120.621 34.0287 120.647 33.9907C120.672 33.9526 120.685 33.908 120.686 33.8623V32.1021C120.685 32.0939 120.683 32.0859 120.679 32.0788C120.676 32.0716 120.67 32.0655 120.663 32.061C120.656 32.0564 120.649 32.0536 120.64 32.0528C120.632 32.052 120.624 32.0531 120.617 32.0561L106.505 37.8423C106.486 37.8502 106.469 37.8638 106.457 37.8812C106.445 37.8986 106.439 37.919 106.439 37.9399L106.445 39.9356ZM106.441 41.4604C106.394 42.0845 106.401 42.7617 106.462 43.492C106.463 43.5053 106.468 43.5182 106.475 43.5295C106.482 43.5409 106.492 43.5503 106.503 43.5571C106.515 43.5639 106.528 43.5677 106.541 43.5684C106.554 43.5691 106.568 43.5665 106.58 43.5609L120.618 37.2837C120.638 37.2748 120.655 37.2602 120.667 37.2416C120.679 37.223 120.686 37.2012 120.686 37.1789V35.3498C120.685 35.3372 120.682 35.3249 120.676 35.314C120.67 35.303 120.661 35.2937 120.651 35.2869C120.64 35.2801 120.628 35.2759 120.616 35.2749C120.603 35.2738 120.591 35.2759 120.579 35.2808L106.492 41.3872C106.478 41.3937 106.465 41.404 106.456 41.4169C106.447 41.4298 106.441 41.4448 106.441 41.4604ZM95.1205 40.2529C95.177 39.4738 95.178 38.7492 95.1234 38.0792C95.1226 38.0707 95.1199 38.0625 95.1154 38.0552C95.1109 38.048 95.1048 38.0419 95.0976 38.0374C95.0903 38.0329 95.0821 38.0302 95.0736 38.0295C95.0651 38.0288 95.0565 38.03 95.0486 38.0332L74.7452 45.8294C74.7251 45.8372 74.7075 45.8504 74.6945 45.8677C74.6815 45.885 74.6737 45.9055 74.6719 45.9271C74.6115 46.7761 74.6072 47.6174 74.6589 48.4511C74.6594 48.4581 74.6615 48.4649 74.665 48.4709C74.6685 48.4769 74.6734 48.482 74.6793 48.4858C74.6852 48.4895 74.6919 48.4919 74.6988 48.4926C74.7058 48.4933 74.7128 48.4924 74.7193 48.4899L94.9753 40.451C95.0158 40.4347 95.051 40.4075 95.0766 40.3725C95.1023 40.3374 95.1175 40.296 95.1205 40.2529ZM106.443 44.9077L106.42 46.9508C106.42 46.9584 106.422 46.966 106.426 46.9727C106.429 46.9794 106.435 46.9851 106.442 46.9891C106.448 46.9932 106.456 46.9954 106.464 46.9958C106.473 46.9961 106.481 46.9944 106.488 46.991L120.571 40.3907C120.603 40.3753 120.631 40.3516 120.651 40.3223C120.67 40.293 120.68 40.2594 120.68 40.2256L120.655 38.418C120.655 38.4099 120.653 38.4021 120.649 38.3951C120.645 38.3881 120.639 38.3822 120.632 38.3779C120.625 38.3737 120.617 38.3712 120.609 38.3706C120.601 38.3701 120.592 38.3716 120.585 38.3749L106.533 44.777C106.506 44.7891 106.484 44.8077 106.468 44.8308C106.453 44.8539 106.444 44.8806 106.443 44.9077ZM74.6589 50.5416L74.6403 53.0413C74.6403 53.0513 74.6428 53.0611 74.6477 53.0698C74.6525 53.0786 74.6596 53.086 74.6681 53.0914C74.6767 53.0968 74.6865 53.1001 74.6967 53.1008C74.7069 53.1016 74.7171 53.0999 74.7265 53.0958L95.0558 44.52C95.0767 44.5108 95.0947 44.4963 95.1078 44.4781C95.121 44.4599 95.1288 44.4387 95.1305 44.4166C95.1929 43.6729 95.1818 42.9411 95.0975 42.2213C95.0965 42.213 95.0937 42.2049 95.0891 42.1979C95.0845 42.1908 95.0784 42.1849 95.0712 42.1806C95.0639 42.1762 95.0558 42.1737 95.0474 42.173C95.039 42.1724 95.0305 42.1737 95.0227 42.1768L74.7395 50.4267C74.7157 50.4364 74.6954 50.4525 74.681 50.4729C74.6667 50.4934 74.659 50.5173 74.6589 50.5416ZM95.1334 48.2142L95.1248 45.9974C95.1249 45.9918 95.1235 45.9862 95.1208 45.9813C95.1181 45.9763 95.1142 45.9721 95.1095 45.9691C95.1047 45.9661 95.0993 45.9644 95.0937 45.964C95.088 45.9637 95.0824 45.9648 95.0773 45.9673L74.8631 54.6737C74.7956 54.7025 74.7381 54.7492 74.6981 54.8078C74.6582 54.8664 74.6375 54.9342 74.6388 55.0025L74.6733 57.3615C74.6735 57.3693 74.6757 57.3769 74.6798 57.3835C74.6839 57.3902 74.6898 57.3958 74.6969 57.3997C74.704 57.4037 74.7121 57.406 74.7206 57.4063C74.729 57.4066 74.7375 57.4051 74.7452 57.4017L95.0328 48.3693C95.0631 48.3556 95.0887 48.3337 95.1066 48.3061C95.1245 48.2786 95.1338 48.2467 95.1334 48.2142ZM77.545 57.5898L77.1079 57.7994L74.7265 58.869C74.6986 58.8819 74.675 58.9024 74.6584 58.9281C74.6419 58.9538 74.6331 58.9836 74.6331 59.0141V61.3816C74.6329 61.4032 74.6383 61.4245 74.6486 61.4435C74.659 61.4625 74.674 61.4785 74.6922 61.4901C74.7105 61.5017 74.7314 61.5085 74.7529 61.5099C74.7745 61.5113 74.7961 61.5072 74.8157 61.4979L94.9824 52.0477C95.0301 52.0255 95.0704 51.9893 95.0987 51.9436C95.127 51.8978 95.142 51.8443 95.1421 51.7893L95.1363 49.7117C95.1365 49.6996 95.1335 49.6876 95.1278 49.6769C95.1221 49.6662 95.1137 49.6572 95.1035 49.6506C95.0933 49.644 95.0816 49.6401 95.0695 49.6392C95.0574 49.6384 95.0452 49.6406 95.0342 49.6457L77.545 57.5898Z" fill="url(#paint2_linear_422_5109)"/>
<path d="M7.62148 13.7157L53.9256 26.1824C53.9486 26.2159 53.9827 26.226 54.0277 26.2126L65.5405 29.3353C65.5603 29.3412 65.5778 29.3533 65.5902 29.3699C65.6027 29.3864 65.6094 29.4065 65.6095 29.4272V76.3208L7.57115 46.6421C7.55125 46.6322 7.53452 46.6168 7.52283 46.5978C7.51115 46.5788 7.50497 46.5568 7.505 46.5344L7.50788 13.7573C7.53376 13.7219 7.57163 13.708 7.62148 13.7157ZM15.7937 19.8148L9.96688 18.0818C9.95762 18.0789 9.94779 18.0782 9.93819 18.0797C9.9286 18.0813 9.91951 18.0851 9.91166 18.0908C9.90382 18.0966 9.89744 18.1041 9.89304 18.1127C9.88864 18.1214 9.88635 18.131 9.88636 18.1407L9.89498 26.4179C9.89495 26.4393 9.90157 26.4602 9.91393 26.4777C9.9263 26.4951 9.9438 26.5084 9.96401 26.5155L15.7952 28.6347C15.803 28.6374 15.8113 28.6383 15.8196 28.6372C15.8278 28.636 15.8356 28.6329 15.8423 28.6281C15.8491 28.6234 15.8546 28.617 15.8584 28.6097C15.8622 28.6023 15.8642 28.5942 15.8642 28.5859L15.8541 19.8966C15.8541 19.8783 15.8482 19.8606 15.8373 19.8459C15.8264 19.8312 15.8112 19.8203 15.7937 19.8148ZM25.2789 22.7911L18.6539 20.8112C18.646 20.809 18.6377 20.8087 18.6296 20.8103C18.6215 20.812 18.6139 20.8155 18.6074 20.8207C18.6008 20.8258 18.5955 20.8324 18.5919 20.84C18.5882 20.8476 18.5863 20.8559 18.5864 20.8643V29.6986C18.5863 29.7204 18.593 29.7417 18.6056 29.7597C18.6182 29.7777 18.6361 29.7914 18.6568 29.7991L25.3019 32.2169C25.3109 32.2202 25.3205 32.2212 25.3299 32.2199C25.3394 32.2187 25.3484 32.2151 25.3561 32.2096C25.3639 32.2041 25.3702 32.1968 25.3746 32.1883C25.3789 32.1798 25.3811 32.1704 25.381 32.1609V22.929C25.3811 22.8979 25.3712 22.8677 25.3528 22.8428C25.3344 22.818 25.3084 22.7998 25.2789 22.7911ZM35.8785 25.7675L28.2196 23.4631C28.2114 23.4606 28.2027 23.4601 28.1942 23.4616C28.1857 23.4631 28.1777 23.4666 28.1709 23.4717C28.164 23.4769 28.1585 23.4836 28.1547 23.4914C28.1509 23.4991 28.149 23.5076 28.1492 23.5162L28.1578 32.9879C28.1577 33.009 28.1642 33.0295 28.1763 33.0467C28.1884 33.064 28.2056 33.077 28.2254 33.0841L35.8728 35.8351C35.8806 35.8378 35.8889 35.8387 35.8971 35.8375C35.9054 35.8364 35.9132 35.8333 35.9199 35.8285C35.9267 35.8237 35.9322 35.8174 35.936 35.81C35.9398 35.8027 35.9418 35.7945 35.9418 35.7862L35.9504 25.8622C35.9503 25.841 35.9432 25.8203 35.9303 25.8032C35.9174 25.7862 35.8992 25.7736 35.8785 25.7675ZM39.2075 37.0957L48.0182 40.2816C48.0315 40.2867 48.0458 40.2885 48.0599 40.2868C48.0741 40.285 48.0876 40.2798 48.0993 40.2716C48.1111 40.2634 48.1207 40.2525 48.1273 40.2397C48.134 40.227 48.1375 40.2128 48.1376 40.1983L48.1635 29.5995C48.1635 29.5585 48.1506 29.5187 48.1265 29.4858C48.1024 29.453 48.0685 29.4289 48.0297 29.4172L39.2809 26.7969C39.2667 26.7927 39.2518 26.7918 39.2372 26.7943C39.2226 26.7968 39.2089 26.8027 39.197 26.8115C39.1851 26.8203 39.1755 26.8317 39.1688 26.8449C39.1622 26.8581 39.1587 26.8726 39.1586 26.8874L39.15 37.0138C39.1501 37.0315 39.1556 37.0488 39.1659 37.0634C39.1762 37.078 39.1907 37.0893 39.2075 37.0957ZM62.2963 42.9751V36.586L62.3021 33.5622C62.302 33.5175 62.2875 33.4739 62.2605 33.438C62.2336 33.402 62.1957 33.3756 62.1525 33.3627L51.8391 30.3188C51.8308 30.3164 51.8221 30.3158 51.8136 30.3174C51.8052 30.3189 51.7972 30.3223 51.7903 30.3275C51.7834 30.3327 51.7779 30.3394 51.7741 30.3471C51.7703 30.3549 51.7684 30.3634 51.7686 30.372V41.3355C51.7687 41.3552 51.7749 41.3745 51.7865 41.3907C51.7981 41.4068 51.8144 41.4192 51.8333 41.4259L62.1784 45.1618C62.1923 45.1669 62.2073 45.1686 62.222 45.1668C62.2367 45.165 62.2508 45.1597 62.2629 45.1514C62.2751 45.143 62.285 45.1319 62.2918 45.119C62.2986 45.1061 62.3021 45.0917 62.3021 45.0771L62.2963 42.9751Z" fill="url(#paint3_linear_422_5109)"/>
<path d="M0 44.2587C5.63319 47.247 11.2635 50.241 16.8909 53.2408L17.0405 53.3428L66.3717 79.6963C66.3915 79.7068 66.4137 79.7123 66.436 79.7123C66.4583 79.7123 66.4802 79.7068 66.4996 79.6963C87.4257 68.5356 108.349 57.3691 129.269 46.197C129.308 46.1261 129.359 46.1199 129.421 46.1783C129.421 48.4755 129.421 50.7728 129.421 53.07C108.487 65.3678 87.5397 77.6718 66.5802 89.9821C66.5601 89.9938 66.5373 90 66.514 90C66.4908 90 66.4679 89.9938 66.4479 89.9821C44.7108 77.2076 22.9838 64.4312 1.26689 51.6529C0.654298 51.292 0.232 51.0288 0 50.8632C0 48.6617 0 46.4602 0 44.2587Z" fill="url(#paint4_linear_422_5109)"/>
<defs>
<linearGradient id="paint0_linear_422_5109" x1="49.7168" y1="86.5823" x2="90.7924" y2="31.9522" gradientUnits="userSpaceOnUse">
<stop stop-color="#7FAD39"/>
<stop offset="0.487446" stop-color="#B1D17F"/>
<stop offset="1" stop-color="#7FAD39"/>
</linearGradient>
<linearGradient id="paint1_linear_422_5109" x1="49.7168" y1="86.5823" x2="90.7924" y2="31.9522" gradientUnits="userSpaceOnUse">
<stop stop-color="#7FAD39"/>
<stop offset="0.487446" stop-color="#B1D17F"/>
<stop offset="1" stop-color="#7FAD39"/>
</linearGradient>
<linearGradient id="paint2_linear_422_5109" x1="49.7168" y1="86.5823" x2="90.7924" y2="31.9522" gradientUnits="userSpaceOnUse">
<stop stop-color="#7FAD39"/>
<stop offset="0.487446" stop-color="#B1D17F"/>
<stop offset="1" stop-color="#7FAD39"/>
</linearGradient>
<linearGradient id="paint3_linear_422_5109" x1="49.7168" y1="86.5823" x2="90.7924" y2="31.9522" gradientUnits="userSpaceOnUse">
<stop stop-color="#7FAD39"/>
<stop offset="0.487446" stop-color="#B1D17F"/>
<stop offset="1" stop-color="#7FAD39"/>
</linearGradient>
<linearGradient id="paint4_linear_422_5109" x1="49.7168" y1="86.5823" x2="90.7924" y2="31.9522" gradientUnits="userSpaceOnUse">
<stop stop-color="#7FAD39"/>
<stop offset="0.487446" stop-color="#B1D17F"/>
<stop offset="1" stop-color="#7FAD39"/>
</linearGradient>
</defs>
</svg>
