<svg width="18" height="20" viewBox="0 0 18 20" fill="none" xmlns="http://www.w3.org/2000/svg">
<path d="M0 20H18V16.4286C17.9984 15.103 17.4416 13.8321 16.4519 12.8947C15.4621 11.9573 14.1202 11.4301 12.7204 11.4286H5.27959C3.87984 11.4301 2.53789 11.9573 1.54812 12.8947C0.558351 13.8321 0.00159697 15.103 0 16.4286V20ZM3.87248 5C3.87248 5.98891 4.18212 6.95561 4.76225 7.77785C5.34238 8.6001 6.16694 9.24096 7.13165 9.6194C8.09637 9.99784 9.15792 10.0969 10.1821 9.90393C11.2062 9.711 12.1469 9.2348 12.8853 8.53554C13.6237 7.83627 14.1265 6.94536 14.3302 5.97545C14.5339 5.00555 14.4294 4.00022 14.0298 3.08658C13.6302 2.17295 12.9535 1.39206 12.0852 0.842652C11.217 0.293245 10.1963 0 9.15207 0C7.75183 0 6.40895 0.526784 5.41883 1.46447C4.42872 2.40215 3.87248 3.67392 3.87248 5Z" fill="#272E28"/>
</svg>
