<svg width="14" height="15" viewBox="0 0 14 15" fill="none" xmlns="http://www.w3.org/2000/svg">
<path fill-rule="evenodd" clip-rule="evenodd" d="M10.2988 14.498C9.28912 14.4609 6.42758 14.0655 3.43072 11.0699C0.434554 8.07366 0.0397867 5.21341 0.00192265 4.20321C-0.0541722 2.66373 1.12522 1.1684 2.48762 0.584436C2.65169 0.513608 2.83135 0.486641 3.00898 0.506183C3.18661 0.525724 3.35611 0.591103 3.50084 0.695902C4.62273 1.51332 5.39684 2.74995 6.06157 3.7223C6.20782 3.93593 6.27036 4.19589 6.23725 4.45264C6.20415 4.7094 6.07772 4.945 5.88206 5.11457L4.51405 6.13038C4.44796 6.17809 4.40143 6.24817 4.38312 6.3276C4.36481 6.40702 4.37595 6.49039 4.41448 6.56222C4.72441 7.12515 5.27554 7.9636 5.9066 8.59454C6.53837 9.22548 7.41626 9.81295 8.01857 10.1579C8.09409 10.2002 8.18298 10.2121 8.26697 10.191C8.35096 10.1698 8.42367 10.1174 8.47014 10.0443L9.36064 8.68918C9.52436 8.47175 9.76588 8.32609 10.0346 8.2827C10.3033 8.23932 10.5784 8.30157 10.8023 8.45643C11.7888 9.13925 12.9402 9.89988 13.783 10.9788C13.8963 11.1245 13.9684 11.298 13.9918 11.4812C14.0151 11.6643 13.9887 11.8503 13.9155 12.0198C13.3287 13.389 11.8435 14.5548 10.2988 14.498Z" fill="#272E28"/>
</svg>
