<svg width="22" height="24" viewBox="0 0 22 24" fill="none" xmlns="http://www.w3.org/2000/svg">
<path d="M11 14.4C10.6537 14.4 10.3636 14.2848 10.1298 14.0544C9.89511 13.8248 9.77778 13.54 9.77778 13.2C9.77778 12.86 9.89511 12.5748 10.1298 12.3444C10.3636 12.1148 10.6537 12 11 12C11.3463 12 11.6368 12.1148 11.8714 12.3444C12.1053 12.5748 12.2222 12.86 12.2222 13.2C12.2222 13.54 12.1053 13.8248 11.8714 14.0544C11.6368 14.2848 11.3463 14.4 11 14.4ZM6.11111 14.4C5.76481 14.4 5.47433 14.2848 5.23967 14.0544C5.00582 13.8248 4.88889 13.54 4.88889 13.2C4.88889 12.86 5.00582 12.5748 5.23967 12.3444C5.47433 12.1148 5.76481 12 6.11111 12C6.45741 12 6.74789 12.1148 6.98256 12.3444C7.21641 12.5748 7.33333 12.86 7.33333 13.2C7.33333 13.54 7.21641 13.8248 6.98256 14.0544C6.74789 14.2848 6.45741 14.4 6.11111 14.4ZM15.8889 14.4C15.5426 14.4 15.2525 14.2848 15.0187 14.0544C14.784 13.8248 14.6667 13.54 14.6667 13.2C14.6667 12.86 14.784 12.5748 15.0187 12.3444C15.2525 12.1148 15.5426 12 15.8889 12C16.2352 12 16.5253 12.1148 16.7591 12.3444C16.9938 12.5748 17.1111 12.86 17.1111 13.2C17.1111 13.54 16.9938 13.8248 16.7591 14.0544C16.5253 14.2848 16.2352 14.4 15.8889 14.4ZM11 19.2C10.6537 19.2 10.3636 19.0848 10.1298 18.8544C9.89511 18.6248 9.77778 18.34 9.77778 18C9.77778 17.66 9.89511 17.3752 10.1298 17.1456C10.3636 16.9152 10.6537 16.8 11 16.8C11.3463 16.8 11.6368 16.9152 11.8714 17.1456C12.1053 17.3752 12.2222 17.66 12.2222 18C12.2222 18.34 12.1053 18.6248 11.8714 18.8544C11.6368 19.0848 11.3463 19.2 11 19.2ZM6.11111 19.2C5.76481 19.2 5.47433 19.0848 5.23967 18.8544C5.00582 18.6248 4.88889 18.34 4.88889 18C4.88889 17.66 5.00582 17.3752 5.23967 17.1456C5.47433 16.9152 5.76481 16.8 6.11111 16.8C6.45741 16.8 6.74789 16.9152 6.98256 17.1456C7.21641 17.3752 7.33333 17.66 7.33333 18C7.33333 18.34 7.21641 18.6248 6.98256 18.8544C6.74789 19.0848 6.45741 19.2 6.11111 19.2ZM15.8889 19.2C15.5426 19.2 15.2525 19.0848 15.0187 18.8544C14.784 18.6248 14.6667 18.34 14.6667 18C14.6667 17.66 14.784 17.3752 15.0187 17.1456C15.2525 16.9152 15.5426 16.8 15.8889 16.8C16.2352 16.8 16.5253 16.9152 16.7591 17.1456C16.9938 17.3752 17.1111 17.66 17.1111 18C17.1111 18.34 16.9938 18.6248 16.7591 18.8544C16.5253 19.0848 16.2352 19.2 15.8889 19.2ZM2.44444 24C1.77222 24 1.19656 23.7652 0.717444 23.2956C0.239148 22.8252 0 22.26 0 21.6V4.8C0 4.14 0.239148 3.5752 0.717444 3.1056C1.19656 2.6352 1.77222 2.4 2.44444 2.4H3.66667V1.2C3.66667 0.86 3.78359 0.5748 4.01744 0.3444C4.25211 0.1148 4.54259 0 4.88889 0C5.23519 0 5.52567 0.1148 5.76033 0.3444C5.99418 0.5748 6.11111 0.86 6.11111 1.2V2.4H15.8889V1.2C15.8889 0.86 16.0062 0.5748 16.2409 0.3444C16.4747 0.1148 16.7648 0 17.1111 0C17.4574 0 17.7475 0.1148 17.9813 0.3444C18.216 0.5748 18.3333 0.86 18.3333 1.2V2.4H19.5556C20.2278 2.4 20.8034 2.6352 21.2826 3.1056C21.7609 3.5752 22 4.14 22 4.8V21.6C22 22.26 21.7609 22.8252 21.2826 23.2956C20.8034 23.7652 20.2278 24 19.5556 24H2.44444ZM2.44444 21.6H19.5556V9.6H2.44444V21.6Z" fill="#272E28"/>
</svg>
