<svg width="132" height="90" viewBox="0 0 132 90" fill="none" xmlns="http://www.w3.org/2000/svg">
<path d="M23.1767 0.106754C26.1648 0.822016 29.1439 1.5734 32.114 2.36091C40.5066 4.22854 48.8416 6.31834 57.1192 8.63029C57.3888 8.70615 57.6064 8.80369 57.7718 8.9229C58.3507 9.34556 57.9785 9.52256 56.6553 9.45393C52.5417 9.24802 48.4515 8.82537 44.3847 8.18596C42.6083 7.90781 35.877 6.67235 24.1907 4.47961C24.1185 4.46446 24.0433 4.47743 23.981 4.51581C23.9187 4.55419 23.874 4.61499 23.8563 4.68552C23.5183 6.06908 23.227 7.46348 22.9825 8.86871C21.5406 17.1376 19.5863 25.28 17.1196 33.296C17.0333 33.585 16.9218 33.8035 16.7852 33.9517C16.3968 34.3743 16.2764 33.9571 16.4238 32.6999C17.6248 22.4298 18.9894 12.1813 20.5176 1.95451C20.7261 0.346981 21.6125 -0.268939 23.1767 0.106754Z" fill="url(#paint0_linear_415_340)"/>
<path d="M65.3931 5.7855C69.2693 9.71583 72.9748 13.8304 76.5095 18.1292C76.7688 18.4487 77.1426 18.653 77.5504 18.6981C91.3763 20.2912 105.15 21.8988 118.871 23.5207C122.37 23.9362 124.474 24.2757 125.182 24.5395C127.268 25.3197 128.956 26.7882 130.247 28.9448C131.361 30.8088 131.708 32.7162 131.288 34.6669C130.961 36.2022 130.793 36.9843 130.786 37.0132C129.754 44.509 128.776 52.0138 127.852 59.5277C126.683 63.9276 123.852 66.4004 119.357 66.9458C119.319 66.9505 119.28 66.9481 119.243 66.9387C119.206 66.9292 119.172 66.913 119.144 66.891C119.115 66.8691 119.091 66.8419 119.075 66.8112C119.059 66.7805 119.05 66.747 119.049 66.7128L118.963 63.6242C118.96 63.5521 118.988 63.4805 119.042 63.4227C119.095 63.3649 119.171 63.3248 119.254 63.3099C121.829 62.8258 123.436 61.2942 124.076 58.7149C124.627 53.7008 125.276 48.6994 126.024 43.7106C126.035 43.6348 126.02 43.5577 125.982 43.4938C125.943 43.4299 125.883 43.3837 125.813 43.3639C125.026 43.1399 124.222 43.0189 123.402 43.0008C105.351 40.8442 87.2914 38.7435 69.2226 36.6989C69.1545 36.6917 69.0859 36.7123 69.0308 36.7566C68.9757 36.8008 68.9382 36.8655 68.9259 36.9373L68.338 40.7358C68.324 40.8204 68.2839 40.8972 68.2246 40.9527C68.1654 41.0083 68.0909 41.0389 68.0144 41.0392H65.2474C65.1748 41.0398 65.1039 41.0092 65.0483 40.9533C64.9926 40.8973 64.956 40.82 64.9454 40.7358C64.8088 39.6376 64.8321 38.5413 65.0155 37.4467C65.0695 37.1252 65.3122 35.0787 65.7437 31.3074C66.1572 27.6805 66.4323 25.6394 66.5689 25.1843C67.3851 22.4424 69.2334 20.4249 72.1136 19.1316C72.1353 19.1221 72.1545 19.1076 72.1696 19.0893C72.1848 19.071 72.1954 19.0494 72.2006 19.0261C72.2059 19.0029 72.2056 18.9788 72.1999 18.9557C72.1941 18.9326 72.183 18.9112 72.1675 18.8932L64.0015 9.23176C63.9441 9.16177 63.8615 9.11707 63.7711 9.10698C63.6807 9.09689 63.5893 9.12218 63.5161 9.17758C61.6139 10.6478 59.8951 12.0603 58.3597 13.415C52.4123 18.6674 46.3408 23.7718 40.1452 28.7281C36.9162 31.3146 33.6171 33.6735 30.2478 35.8048C29.6905 36.1552 29.7408 36.3106 30.3988 36.2708C37.7882 35.8193 45.1416 35.7037 52.459 35.924C52.5022 35.9277 53.1404 35.9313 54.3738 35.9349C55.8157 35.9457 57.2288 36.1227 58.6132 36.4659C60.5154 36.9355 61.9285 37.6833 62.8526 38.7092C63.9422 39.9158 64.5894 41.5016 64.7944 43.4668C64.817 43.6737 64.9147 43.865 65.069 44.004C65.2233 44.143 65.4232 44.2199 65.6304 44.22C77.9712 44.22 90.2598 44.22 102.496 44.22C105.736 44.22 108.046 44.4909 109.427 45.0328C112.005 46.0407 113.819 47.8776 114.869 50.5436C115.344 51.7501 115.581 53.4407 115.581 55.6154C115.581 71.7702 115.581 79.8476 115.581 79.8476C115.322 83.6443 113.528 86.4042 110.198 88.1273C108.253 89.1352 106.182 89.5813 103.985 89.4657C103.295 89.4296 91.2936 89.4368 67.982 89.4874H64.8807C61.195 89.3935 57.5093 89.3863 53.8236 89.4657C50.1847 89.6753 46.5421 89.8053 42.896 89.8559C37.7756 89.9281 34.1834 89.9733 32.1194 89.9913C25.3198 90.0528 18.5309 89.7872 11.7528 89.1948C10.5051 89.0864 8.75216 88.5825 6.494 87.683C4.92624 86.9316 3.49331 85.9924 2.19523 84.8653C1.42933 84.2042 0.913332 83.4167 0.647243 82.5028C0.323622 81.3829 0.152821 80.2269 0.134842 79.0348L0 75.1063V61.8306C0.143832 57.9473 0.228333 54.0639 0.253504 50.1805C0.285866 44.7691 0.604094 39.3775 1.20819 34.0058C1.21808 33.9242 1.24044 33.849 1.27333 33.7867C1.30622 33.7244 1.34866 33.6769 1.39697 33.6482C1.5372 33.5687 1.61811 33.6609 1.63968 33.9246C1.94532 37.4503 2.12691 42.0562 2.18444 47.7421C2.29232 58.9551 2.87843 70.1428 3.94279 81.3053C3.95684 81.4831 4.03584 81.6477 4.16393 81.7658C6.36096 83.8358 8.84565 84.9574 11.618 85.1308C25.1849 85.9761 40.1075 86.2019 56.3856 85.8082C57.112 85.7901 58.1458 85.6998 59.487 85.5372C60.4255 85.4216 61.2561 84.999 61.9789 84.2693C62.5218 83.7202 62.9569 82.9363 63.2841 81.9176C63.9026 79.9813 64.2101 77.9818 64.2065 75.9191C64.3467 71.7648 64.3557 67.6123 64.2334 63.4616C64.0608 57.5011 64.0069 51.5388 64.0716 45.5747C63.6581 43.8299 63.0181 42.3054 62.1515 41.0013C61.1123 39.4444 59.5949 38.6659 57.5992 38.6659C56.2903 38.6659 51.0746 39.0127 41.9521 39.7063C36.7022 40.1072 31.4452 40.3059 26.181 40.3023C21.7545 40.3023 17.3605 39.9284 12.9988 39.1807C9.63672 38.6063 6.98483 37.5659 5.0431 36.0595C3.21644 34.6398 2.17186 32.9799 1.90937 31.0798C1.80509 30.3356 1.9687 30.2977 2.40019 30.966C4.16573 33.697 6.77807 35.3713 10.2372 35.9891C13.0419 36.4912 15.39 36.7061 17.2814 36.6339C20.8736 36.7242 24.4586 36.6303 28.0364 36.3521C28.2116 36.338 28.3775 36.2698 28.511 36.157C38.0399 28.0869 47.3458 19.7674 56.4288 11.1987C56.4467 11.1807 57.1138 10.5033 58.4298 9.16674C59.8717 7.70732 61.5114 6.47909 63.3489 5.48206C64.104 5.07385 64.7854 5.175 65.3931 5.7855ZM110.49 26.3059C99.7635 24.9982 89.0318 23.7375 78.2948 22.5237C76.1517 22.2817 74.6774 22.2907 73.8719 22.5508C72.3653 23.0349 71.2075 24.1403 70.3984 25.867C70.3548 25.9589 70.3337 26.0599 70.3368 26.1616C70.3398 26.2633 70.3671 26.3628 70.4161 26.4518C70.4652 26.5409 70.5347 26.6168 70.6188 26.6735C70.703 26.7301 70.7994 26.7657 70.9 26.7774L126.417 33.3014C127.255 33.3989 127.568 33.0359 127.356 32.2123C126.748 29.8895 125.385 28.4282 123.267 27.8286C122.516 27.6154 118.257 27.1079 110.49 26.3059ZM71.0564 73.9196L71.0726 78.092C71.0725 78.2031 71.0255 78.3098 70.9417 78.3889C70.8579 78.468 70.7441 78.5132 70.625 78.5146L67.0058 78.5688C66.9278 78.5698 66.8527 78.5999 66.7943 78.6537C66.7358 78.7074 66.6979 78.7812 66.6876 78.8614L66.1428 83.4727C66.139 83.5068 66.1428 83.5413 66.1541 83.574C66.1654 83.6067 66.1839 83.6368 66.2083 83.6623C66.2327 83.6879 66.2626 83.7084 66.2959 83.7224C66.3292 83.7364 66.3653 83.7436 66.4017 83.7436C91.8995 83.8195 104.922 83.8303 105.468 83.7762C107.762 83.5486 109.201 82.3294 109.783 80.1186C109.783 71.6871 109.783 63.2557 109.783 54.8243C109.783 54.7954 109.803 54.4107 109.842 53.6701C109.911 52.413 109.519 51.4413 108.667 50.7549C108.073 50.2744 107.212 49.9836 106.083 49.8825C105.314 49.8102 104.389 49.7741 103.311 49.7741C91.1318 49.7741 78.7119 49.7741 66.0511 49.7741C65.9746 49.7737 65.8988 49.7896 65.8287 49.8206C65.7586 49.8516 65.6956 49.8971 65.6439 49.9542C65.5921 50.0114 65.5526 50.0788 65.528 50.1523C65.5034 50.2258 65.4942 50.3037 65.5009 50.381C66.1841 58.1875 66.6372 65.8061 66.8602 73.2369C66.8627 73.3149 66.8924 73.389 66.9435 73.4443C66.9945 73.4996 67.063 73.532 67.1352 73.5349L70.7814 73.6487C70.8552 73.6515 70.925 73.6813 70.9763 73.7318C71.0276 73.7823 71.0563 73.8496 71.0564 73.9196Z" fill="url(#paint1_linear_415_340)"/>
<path d="M36.6685 11.0165C36.5757 11.3643 36.3827 11.6814 36.1004 11.9498C35.818 12.2182 35.452 12.4326 35.0231 12.5807C34.5941 12.7289 34.1108 12.8078 33.6006 12.8132C33.0904 12.8185 32.5633 12.75 32.0495 12.6117C31.0118 12.3324 30.091 11.7854 29.4897 11.0913C28.8885 10.3971 28.6559 9.61246 28.8432 8.91006C28.936 8.56226 29.129 8.24511 29.4114 7.97672C29.6937 7.70833 30.0598 7.49395 30.4887 7.34582C30.9176 7.19769 31.4009 7.11872 31.9112 7.11341C32.4214 7.1081 32.9484 7.17655 33.4622 7.31486C34.4999 7.5942 35.4207 8.14112 36.022 8.83531C36.6233 9.5295 36.8558 10.3141 36.6685 11.0165ZM35.5747 10.6868C35.615 10.5253 35.5814 10.3469 35.4757 10.1616C35.37 9.97627 35.1943 9.7878 34.9586 9.60692C34.7229 9.42604 34.4318 9.25629 34.102 9.10736C33.7722 8.95844 33.4101 8.83324 33.0364 8.73894C32.2817 8.54848 31.5254 8.49538 30.9341 8.59133C30.3427 8.68728 29.9647 8.92441 29.8831 9.25057C29.8428 9.41206 29.8764 9.59055 29.9821 9.77584C30.0878 9.96113 30.2635 10.1496 30.4992 10.3305C30.7349 10.5114 31.026 10.6811 31.3558 10.83C31.6856 10.979 32.0477 11.1042 32.4214 11.1985C33.1761 11.3889 33.9324 11.442 34.5237 11.3461C35.1151 11.2501 35.4931 11.013 35.5747 10.6868Z" fill="url(#paint2_linear_415_340)"/>
<path d="M34.9898 17.3513C34.8961 17.6633 34.7421 17.9537 34.5366 18.2059C34.3311 18.4581 34.0782 18.6672 33.7923 18.8212C33.5064 18.9752 33.1931 19.0712 32.8703 19.1035C32.5475 19.1359 32.2215 19.1041 31.9109 19.0099L29.071 18.1485C28.4438 17.9582 27.9175 17.5255 27.6079 16.9454C27.2983 16.3653 27.2308 15.6855 27.4202 15.0554L27.523 14.713C27.6168 14.401 27.7708 14.1106 27.9763 13.8584C28.1817 13.6062 28.4346 13.3971 28.7205 13.2431C29.0064 13.0891 29.3197 12.9932 29.6425 12.9608C29.9653 12.9284 30.2913 12.9603 30.6019 13.0545L33.4418 13.9159C34.069 14.1061 34.5953 14.5389 34.9049 15.1189C35.2145 15.699 35.2821 16.3789 35.0927 17.009L34.9898 17.3513ZM34.0068 16.7069C34.083 16.3928 33.8635 16.0198 33.3965 15.6701C32.9296 15.3204 32.2535 15.0226 31.5169 14.8422C31.1522 14.7529 30.7836 14.6951 30.4322 14.6721C30.0807 14.6491 29.7534 14.6614 29.4688 14.7082C29.1842 14.7551 28.948 14.8355 28.7735 14.9451C28.5991 15.0546 28.4899 15.191 28.4521 15.3466C28.3759 15.6608 28.5954 16.0337 29.0624 16.3834C29.5293 16.7331 30.2054 17.0309 30.942 17.2113C31.3068 17.3006 31.6753 17.3584 32.0268 17.3814C32.3782 17.4044 32.7055 17.3921 32.9901 17.3453C33.2747 17.2984 33.5109 17.218 33.6854 17.1084C33.8598 16.9989 33.969 16.8625 34.0068 16.7069Z" fill="url(#paint3_linear_415_340)"/>
<path d="M67.2363 18.4782C67.4338 18.7331 67.5794 19.0246 67.6648 19.3361C67.7502 19.6476 67.7737 19.9729 67.734 20.2935C67.6942 20.614 67.592 20.9236 67.4332 21.2045C67.2743 21.4854 67.062 21.7321 66.8082 21.9306L66.5103 22.1636C66.2566 22.362 65.9664 22.5083 65.6564 22.5941C65.3464 22.6799 65.0225 22.7035 64.7034 22.6636C64.3843 22.6237 64.0762 22.521 63.7966 22.3614C63.517 22.2018 63.2714 21.9885 63.0738 21.7336L61.3708 19.5358C61.1733 19.2809 61.0277 18.9894 60.9423 18.6779C60.8569 18.3665 60.8334 18.0411 60.8731 17.7206C60.9129 17.4 61.0151 17.0904 61.1739 16.8095C61.3328 16.5286 61.5451 16.2819 61.7989 16.0834L62.0968 15.8504C62.3505 15.652 62.6407 15.5057 62.9507 15.4199C63.2607 15.3341 63.5846 15.3105 63.9037 15.3504C64.2228 15.3904 64.5309 15.493 64.8105 15.6526C65.0901 15.8122 65.3357 16.0255 65.5332 16.2805L67.2363 18.4782ZM65.9675 21.2993C66.2386 21.1021 66.3251 20.672 66.2078 20.1037C66.0905 19.5354 65.7791 18.8754 65.3421 18.2689C65.1257 17.9686 64.885 17.6905 64.6337 17.4504C64.3824 17.2103 64.1255 17.013 63.8775 16.8697C63.6296 16.7263 63.3955 16.6399 63.1886 16.6151C62.9818 16.5904 62.8062 16.628 62.672 16.7256C62.4008 16.9228 62.3144 17.3528 62.4317 17.9211C62.5489 18.4894 62.8603 19.1494 63.2974 19.7559C63.5137 20.0562 63.7545 20.3344 64.0058 20.5745C64.257 20.8146 64.514 21.0119 64.7619 21.1552C65.0099 21.2985 65.244 21.385 65.4508 21.4097C65.6577 21.4344 65.8332 21.3969 65.9675 21.2993Z" fill="url(#paint4_linear_415_340)"/>
<path d="M62.4631 22.4965C62.6628 22.756 62.8096 23.0525 62.8953 23.3691C62.9809 23.6857 63.0036 24.0161 62.9621 24.3415C62.9206 24.6669 62.8157 24.9808 62.6534 25.2655C62.4912 25.5502 62.2747 25.7999 62.0163 26.0005L61.7517 26.206C61.4934 26.4066 61.1982 26.5541 60.8831 26.6401C60.568 26.7261 60.2391 26.7489 59.9152 26.7072C59.5913 26.6656 59.2788 26.5602 58.9955 26.3972C58.7121 26.2341 58.4635 26.0166 58.2638 25.7571L56.4893 23.4505C56.2896 23.1909 56.1428 22.8944 56.0571 22.5778C55.9715 22.2613 55.9488 21.9308 55.9903 21.6055C56.0318 21.2801 56.1367 20.9661 56.299 20.6814C56.4612 20.3968 56.6777 20.147 56.9361 19.9464L57.2006 19.741C57.459 19.5404 57.7542 19.3928 58.0693 19.3068C58.3844 19.2208 58.7133 19.198 59.0372 19.2397C59.361 19.2814 59.6736 19.3867 59.9569 19.5498C60.2403 19.7128 60.4889 19.9303 60.6886 20.1898L62.4631 22.4965ZM61.1598 25.2054C61.4168 25.0107 61.4865 24.5884 61.3536 24.0312C61.2206 23.474 60.8959 22.8277 60.4508 22.2343C60.2304 21.9405 59.9871 21.6685 59.7348 21.434C59.4825 21.1994 59.2261 21.0068 58.9802 20.8672C58.7344 20.7276 58.504 20.6437 58.302 20.6202C58.1001 20.5968 57.9307 20.6344 57.8034 20.7307C57.5464 20.9253 57.4767 21.3477 57.6096 21.9049C57.7426 22.462 58.0673 23.1084 58.5124 23.7018C58.7328 23.9956 58.9761 24.2675 59.2284 24.5021C59.4807 24.7367 59.7371 24.9293 59.9829 25.0689C60.2288 25.2085 60.4592 25.2924 60.6611 25.3158C60.8631 25.3393 61.0325 25.3017 61.1598 25.2054Z" fill="url(#paint5_linear_415_340)"/>
<path d="M33.7516 23.2846C33.5616 24.0071 32.9591 24.5885 32.0766 24.9008C31.1941 25.2131 30.1039 25.2307 29.0459 24.9499C28.522 24.8109 28.0218 24.6027 27.5738 24.3373C27.1258 24.0719 26.7388 23.7545 26.4349 23.4033C26.131 23.052 25.9161 22.6736 25.8026 22.2899C25.689 21.9062 25.679 21.5245 25.7731 21.1668C25.9631 20.4443 26.5656 19.8629 27.4481 19.5506C28.3306 19.2383 29.4208 19.2206 30.4788 19.5015C31.0027 19.6405 31.5029 19.8487 31.9509 20.1141C32.3989 20.3794 32.7859 20.6968 33.0898 21.0481C33.3937 21.3994 33.6086 21.7777 33.7222 22.1615C33.8357 22.5452 33.8457 22.9269 33.7516 23.2846ZM32.5456 22.9128C32.5831 22.758 32.5489 22.5871 32.4448 22.4101C32.3408 22.233 32.1689 22.0532 31.939 21.8809C31.7092 21.7086 31.4258 21.5472 31.1051 21.4058C30.7844 21.2645 30.4327 21.1461 30.0701 21.0573C29.7074 20.9684 29.3409 20.911 28.9915 20.8882C28.642 20.8654 28.3165 20.8777 28.0335 20.9244C27.7505 20.9711 27.5155 21.0513 27.342 21.1604C27.1685 21.2695 27.0599 21.4054 27.0223 21.5602C26.9847 21.7151 27.019 21.8859 27.123 22.063C27.2271 22.24 27.399 22.4199 27.6289 22.5922C27.8587 22.7645 28.1421 22.9259 28.4628 23.0672C28.7834 23.2085 29.1351 23.327 29.4978 23.4158C29.8605 23.5046 30.227 23.562 30.5764 23.5848C30.9259 23.6076 31.2514 23.5953 31.5344 23.5486C31.8174 23.5019 32.0524 23.4217 32.2259 23.3126C32.3994 23.2036 32.508 23.0677 32.5456 22.9128Z" fill="url(#paint6_linear_415_340)"/>
<path d="M16.6881 20.2804C16.8175 20.508 16.6485 20.6796 16.1811 20.7952C11.8553 21.8572 8.59215 22.9482 6.39152 24.068C4.56486 25 3.10317 26.3348 2.00645 28.0724C1.71879 28.5276 1.54619 28.4878 1.48866 27.9532C1.32325 26.3926 1.84105 25.0615 3.04204 23.9597C6.78886 20.5278 11.1883 19.2183 16.2404 20.0311C16.3441 20.048 16.4388 20.0794 16.5166 20.1227C16.5944 20.1661 16.6532 20.2201 16.6881 20.2804Z" fill="url(#paint7_linear_415_340)"/>
<path d="M57.442 26.0696C57.6394 26.3318 57.7834 26.6305 57.8659 26.9486C57.9484 27.2668 57.9677 27.5981 57.9227 27.9237C57.8778 28.2494 57.7694 28.5629 57.6038 28.8465C57.4382 29.13 57.2186 29.3781 56.9576 29.5764L56.6909 29.779C56.4299 29.9773 56.1326 30.1221 55.8159 30.2049C55.4992 30.2878 55.1694 30.3072 54.8453 30.262C54.5211 30.2168 54.209 30.1079 53.9268 29.9416C53.6445 29.7752 53.3977 29.5546 53.2003 29.2924L51.489 27.0191C51.2916 26.7569 51.1475 26.4582 51.065 26.1401C50.9825 25.8219 50.9632 25.4906 51.0082 25.165C51.0532 24.8393 51.1615 24.5258 51.3271 24.2422C51.4927 23.9587 51.7123 23.7107 51.9733 23.5123L52.24 23.3097C52.7671 22.9092 53.431 22.7355 54.0856 22.8267C54.7402 22.918 55.332 23.2667 55.7306 23.7963L57.442 26.0696ZM54.3811 24.6037C54.296 24.4935 54.1901 24.4012 54.0695 24.3321C53.9489 24.263 53.816 24.2184 53.6782 24.201C53.5405 24.1835 53.4007 24.1934 53.2668 24.2302C53.1329 24.267 53.0075 24.3299 52.8978 24.4154L52.8126 24.4819C52.591 24.6545 52.4468 24.9085 52.4117 25.1879C52.3766 25.4674 52.4534 25.7494 52.6252 25.972L54.5822 28.5067C54.6673 28.6169 54.7732 28.7092 54.8938 28.7783C55.0144 28.8474 55.1473 28.8919 55.2851 28.9094C55.4228 28.9269 55.5626 28.917 55.6965 28.8802C55.8304 28.8434 55.9558 28.7804 56.0655 28.695L56.1507 28.6285C56.3723 28.4559 56.5165 28.2019 56.5516 27.9225C56.5867 27.643 56.5099 27.361 56.3381 27.1384L54.3811 24.6037Z" fill="url(#paint8_linear_415_340)"/>
<path d="M28.7915 26.734C29.3524 27.3626 29.8541 28.0525 30.2963 28.8039C30.5624 29.2555 30.7656 29.2067 30.9058 28.6576L31.3751 26.7611C31.3946 26.6834 31.4372 26.611 31.4987 26.5511C31.5602 26.4913 31.6384 26.446 31.7257 26.4197C32.4628 26.1994 32.7271 26.5335 32.5185 27.4222C32.1698 28.6323 31.8228 29.8443 31.4776 31.0581C31.4563 31.1365 31.4108 31.2052 31.3489 31.2526C31.2869 31.3 31.2124 31.3232 31.1378 31.3182C30.4546 31.2785 29.926 30.8829 29.552 30.1315C29.2464 29.5174 28.7609 28.8672 28.0957 28.1808C27.6139 27.6823 27.1482 27.4023 26.6988 27.3409C25.8106 27.2181 25.4726 27.8846 25.6847 29.3404C25.771 29.9328 25.5571 30.0773 25.0429 29.7739C24.4963 29.4487 24.2338 28.9846 24.2554 28.3813C24.2662 28.0381 24.3669 27.5576 24.5575 26.9399C24.9134 25.7623 25.6272 25.2601 26.6988 25.4335C27.4215 25.5455 28.1191 25.979 28.7915 26.734Z" fill="url(#paint9_linear_415_340)"/>
<path d="M48.1333 26.7069L51.5475 31.2369C51.6075 31.3157 51.6772 31.38 51.7504 31.4243C51.8236 31.4686 51.8983 31.4917 51.9682 31.4916C52.1911 31.4952 52.3835 31.4175 52.5453 31.2586C52.6244 31.1808 52.7037 31.1161 52.7775 31.0693C52.8512 31.0224 52.9174 30.9945 52.9714 30.9877C53.3238 30.9515 53.5413 31.1069 53.624 31.4537C53.6417 31.5325 53.6347 31.6159 53.6041 31.6938C53.5735 31.7717 53.5205 31.8407 53.4514 31.8926L50.6413 34.0113C50.4989 34.1194 50.3236 34.1697 50.1505 34.1521C49.3738 34.0727 49.4457 33.5453 50.3663 32.5699C50.4173 32.5133 50.4469 32.4405 50.4498 32.3642C50.4528 32.2879 50.4289 32.2131 50.3824 32.1527L48.0092 29.0424C47.9735 28.9955 47.9267 28.9584 47.873 28.9345C47.8193 28.9106 47.7605 28.9006 47.702 28.9055C47.6435 28.9103 47.5871 28.9299 47.5381 28.9623C47.489 28.9947 47.4489 29.039 47.4213 29.0911C47.0689 29.7739 46.7453 30.0051 46.4504 29.7847C46.3913 29.7399 46.3448 29.6734 46.3155 29.5917C46.2862 29.5101 46.2751 29.416 46.2832 29.3187C46.348 28.3686 46.7974 27.4872 47.6317 26.6744C47.6664 26.6407 47.7078 26.6145 47.7529 26.5977C47.7981 26.5808 47.846 26.5737 47.8935 26.5768C47.9409 26.5799 47.9869 26.5931 48.0282 26.6155C48.0696 26.638 48.1054 26.6691 48.1333 26.7069Z" fill="url(#paint10_linear_415_340)"/>
<path d="M10.4264 41.0003L7.72074 39.6273C7.5293 39.5301 7.29571 39.6073 7.19901 39.7996L6.68345 40.825C6.58675 41.0173 6.66355 41.252 6.85498 41.3491L9.56064 42.7222C9.75208 42.8193 9.98566 42.7422 10.0824 42.5498L10.5979 41.5245C10.6946 41.3321 10.6178 41.0975 10.4264 41.0003Z" fill="url(#paint11_linear_415_340)"/>
<path d="M15.8135 42.3572L12.7487 41.6746C12.5742 41.6358 12.4014 41.7464 12.3627 41.9217L12.0849 43.1807C12.0462 43.3561 12.1563 43.5297 12.3308 43.5685L15.3955 44.2511C15.57 44.29 15.7428 44.1794 15.7815 44.0041L16.0594 42.745C16.098 42.5697 15.988 42.3961 15.8135 42.3572Z" fill="url(#paint12_linear_415_340)"/>
<path d="M55.637 42.2654L52.5339 42.1129C52.3287 42.1028 52.1541 42.2618 52.144 42.4681L52.0882 43.6155C52.0781 43.8217 52.2364 43.9971 52.4417 44.0072L55.5448 44.1596C55.7501 44.1697 55.9246 44.0107 55.9347 43.8045L55.9905 42.6571C56.0006 42.4508 55.8423 42.2755 55.637 42.2654Z" fill="url(#paint13_linear_415_340)"/>
<path d="M49.8185 42.365L46.6472 42.7393C46.4845 42.7585 46.3681 42.9066 46.3872 43.07L46.5395 44.3724C46.5586 44.5359 46.706 44.6528 46.8688 44.6336L50.04 44.2594C50.2027 44.2402 50.3191 44.0921 50.3 43.9286L50.1477 42.6262C50.1286 42.4628 49.9812 42.3458 49.8185 42.365Z" fill="url(#paint14_linear_415_340)"/>
<path d="M21.3169 42.9846L18.3855 42.701C18.1423 42.6775 17.9262 42.8564 17.9028 43.1007L17.7994 44.1794C17.776 44.4237 17.9542 44.6408 18.1973 44.6643L21.1287 44.9479C21.3718 44.9714 21.5879 44.7924 21.6113 44.5482L21.7147 43.4694C21.7381 43.2252 21.56 43.0081 21.3169 42.9846Z" fill="url(#paint15_linear_415_340)"/>
<path d="M44.264 42.8768L40.9078 43.1303C40.783 43.1397 40.6895 43.249 40.6989 43.3743L40.8105 44.8657C40.8199 44.991 40.9286 45.085 41.0534 45.0755L44.4096 44.822C44.5343 44.8126 44.6279 44.7033 44.6185 44.578L44.5069 43.0867C44.4975 42.9613 44.3887 42.8674 44.264 42.8768Z" fill="url(#paint16_linear_415_340)"/>
<path d="M38.4431 43.2156L35.2329 43.3846C35.0574 43.3939 34.9226 43.5443 34.9318 43.7206L34.9973 44.976C35.0065 45.1524 35.1562 45.2878 35.3317 45.2786L38.542 45.1095C38.7175 45.1003 38.8523 44.9499 38.8431 44.7735L38.7776 43.5181C38.7684 43.3418 38.6187 43.2064 38.4431 43.2156Z" fill="url(#paint17_linear_415_340)"/>
<path d="M27.0677 43.3633L23.9208 43.2253C23.7303 43.2169 23.5692 43.3653 23.5608 43.5566L23.5081 44.7693C23.4998 44.9606 23.6475 45.1225 23.8379 45.1309L26.9849 45.2689C27.1753 45.2772 27.3365 45.1289 27.3448 44.9375L27.3975 43.7249C27.4058 43.5336 27.2581 43.3717 27.0677 43.3633Z" fill="url(#paint18_linear_415_340)"/>
<path d="M58.5107 43.4668C59.6937 44.2326 60.3608 45.2857 60.5118 46.6259C60.5198 46.7077 60.5031 46.7892 60.4643 46.8585C60.4254 46.9277 60.3665 46.9811 60.296 47.0106C59.8574 47.1985 59.4043 47.2418 58.9368 47.1407C58.866 47.1229 58.802 47.0799 58.7537 47.0178C58.7054 46.9557 58.6751 46.8774 58.6671 46.7939C58.6024 46.0425 58.2464 45.4844 57.5992 45.1195C57.5276 45.0791 57.47 45.0198 57.435 44.9505C57.4 44.8812 57.3895 44.8056 57.405 44.7348C57.4985 44.3121 57.7268 43.9057 58.09 43.5156C58.1427 43.4595 58.2136 43.424 58.2904 43.4151C58.3672 43.4062 58.4451 43.4245 58.5107 43.4668Z" fill="url(#paint19_linear_415_340)"/>
<path d="M32.716 43.4071L29.6632 43.3964C29.4636 43.3957 29.3013 43.5577 29.3006 43.7582L29.2965 44.9286C29.2958 45.1291 29.457 45.2922 29.6566 45.2929L32.7094 45.3037C32.909 45.3044 33.0714 45.1424 33.0721 44.9419L33.0761 43.7715C33.0768 43.5709 32.9156 43.4078 32.716 43.4071Z" fill="url(#paint20_linear_415_340)"/>
<path d="M60.6433 49.0621L59.3179 49.1249C59.1572 49.1325 59.0331 49.2695 59.0407 49.4309L59.1911 52.6352C59.1987 52.7966 59.3351 52.9213 59.4957 52.9137L60.8211 52.8509C60.9818 52.8433 61.1059 52.7063 61.0983 52.5449L60.9479 49.3406C60.9403 49.1791 60.8039 49.0545 60.6433 49.0621Z" fill="url(#paint21_linear_415_340)"/>
<path d="M32.6534 50.1805C34.3578 50.0505 35.9435 50.2184 37.4106 50.6844C39.0072 51.1938 40.3196 52.021 41.348 53.1662C43.1747 55.2036 43.4569 57.6745 42.1948 60.5789C41.3175 62.5946 39.6652 63.8698 37.238 64.4045C35.6739 64.7513 33.5505 64.9211 30.8681 64.9138C30.7914 64.9143 30.7177 64.9416 30.661 64.9906C30.6043 65.0395 30.5686 65.1067 30.5606 65.1793C30.46 66.1872 30.895 66.6297 31.8659 66.5069C32.3657 66.4455 32.621 66.413 32.6318 66.4094C37.4897 66.1023 40.4185 66.021 41.4181 66.1655C42.1157 66.2667 42.2613 66.6026 41.855 67.1734C41.8063 67.2411 41.7421 67.2968 41.6673 67.3362C41.5926 67.3756 41.5092 67.3978 41.4235 67.401L31.2079 67.6882C31.1305 67.6908 31.0567 67.7194 30.9995 67.7689C30.9423 67.8185 30.9053 67.8858 30.895 67.9591C30.5642 70.3216 30.7278 72.5523 31.3859 74.6511C31.6016 75.3411 32.0655 75.6283 32.7774 75.5127C33.3959 75.4152 33.9784 75.4784 34.525 75.7024C34.6047 75.7351 34.6714 75.7913 34.7145 75.8621C34.7576 75.9329 34.7744 76.0141 34.7623 76.0925C34.6868 76.5983 34.2985 76.7662 33.5973 76.5964C33.2809 76.5206 30.1957 76.6073 24.3417 76.8565C24.1116 76.8638 23.9102 76.824 23.7376 76.7373C23.1407 76.4375 23.1839 76.1882 23.8671 75.9896C24.0037 75.9498 24.2033 75.9245 24.4658 75.9137C26.1953 75.8234 27.0134 74.9347 26.9199 73.2477C26.8767 72.4855 26.8552 72.0972 26.8552 72.0827C26.8552 70.7858 26.8552 69.4836 26.8552 68.1759C26.8552 68.1401 26.8479 68.1046 26.8337 68.0717C26.8195 68.0387 26.7987 68.009 26.7725 67.9842C26.7463 67.9594 26.7153 67.94 26.6813 67.9274C26.6473 67.9147 26.611 67.9089 26.5747 67.9103L23.6513 68.0241C23.4685 68.0309 23.2978 67.9725 23.1767 67.8616C22.8171 67.5256 22.8099 67.2131 23.1551 66.9241C23.3241 66.7833 23.5668 66.7056 23.8832 66.6911C24.5593 66.6659 25.2353 66.6333 25.9113 66.5936C26.8714 66.5394 27.1518 66.1041 26.7527 65.2877C26.716 65.2127 26.6598 65.1477 26.5892 65.0985C26.5186 65.0494 26.4358 65.0176 26.3482 65.0059C25.5535 64.8976 24.757 64.8976 23.9588 65.0059C23.5381 65.0637 23.2342 65.024 23.0472 64.8867C22.7704 64.6844 22.702 64.381 22.8423 63.9764C22.8678 63.8978 22.9162 63.8285 22.9815 63.7774C23.0468 63.7263 23.126 63.6956 23.209 63.6892L26.2834 63.4291C26.3573 63.4238 26.4264 63.3919 26.4773 63.3397C26.5282 63.2876 26.5572 63.219 26.5585 63.1473C26.6125 60.131 26.5172 57.1182 26.2727 54.109C26.1935 53.0976 25.9994 52.4148 25.6901 52.0608C25.1939 51.49 24.4136 51.2697 23.3493 51.3997C22.5043 51.5045 22.2418 51.2751 22.5618 50.7115C22.6013 50.6424 22.66 50.585 22.732 50.5451C22.8039 50.5051 22.8866 50.484 22.9717 50.484C27.373 50.4406 30.6002 50.3395 32.6534 50.1805ZM35.005 52.3371C33.7177 51.8458 32.2704 51.8422 30.6631 52.3263C30.5211 52.3684 30.3973 52.459 30.3113 52.5837C30.2253 52.7084 30.1821 52.86 30.1885 53.0145L30.5337 63.0227C30.5344 63.058 30.5419 63.0929 30.5556 63.1252C30.5694 63.1575 30.5891 63.1866 30.6138 63.2108C30.6384 63.235 30.6673 63.2539 30.699 63.2662C30.7306 63.2786 30.7643 63.2842 30.798 63.2828C31.1 63.2756 31.4039 63.2431 31.7095 63.1853C35.5318 63.7705 37.7342 62.2352 38.3168 58.5794C38.5397 57.185 38.3347 55.908 37.7019 54.7484C37.069 53.5852 36.1701 52.7815 35.005 52.3371Z" fill="url(#paint22_linear_415_340)"/>
<path d="M60.7843 54.7733L59.5009 54.8003C59.3281 54.8039 59.191 54.9476 59.1946 55.1211L59.262 58.3499C59.2656 58.5234 59.4085 58.6612 59.5813 58.6575L60.8647 58.6305C61.0374 58.6269 61.1745 58.4833 61.1709 58.3097L61.1036 55.0809C61.1 54.9074 60.957 54.7697 60.7843 54.7733Z" fill="url(#paint23_linear_415_340)"/>
<path d="M91.6927 59.9232C91.8365 60.2122 91.966 60.2068 92.081 59.907C92.6995 58.3392 93.8088 57.2988 95.409 56.7859C97.9692 55.9586 100.074 56.5005 101.725 58.4114C102.584 59.4013 102.985 60.5193 102.928 61.7656C102.877 62.8674 102.476 63.8987 101.725 64.8596C100.628 66.2577 99.1791 66.9187 97.3776 66.8429C94.9469 66.7381 93.176 65.5713 92.0649 63.3424C91.9534 63.1184 91.8401 63.1184 91.7251 63.3424C90.6104 65.5279 88.9437 66.6948 86.7251 66.8429C84.9164 66.9657 83.4565 66.3931 82.3454 65.1252C81.3242 63.962 80.8604 62.6506 80.9539 61.1912C81.0258 60.0786 81.4483 59.0996 82.2214 58.2543C82.865 57.5499 83.7298 57.0297 84.8158 56.6937C87.865 55.7545 90.1573 56.831 91.6927 59.9232Z" fill="url(#paint24_linear_415_340)"/>
<path d="M60.952 60.5849L59.6588 60.6416C59.501 60.6485 59.3788 60.7826 59.3856 60.941L59.5254 64.1566C59.5323 64.3151 59.6657 64.438 59.8235 64.431L61.1167 64.3743C61.2744 64.3674 61.3967 64.2333 61.3898 64.0749L61.2501 60.8592C61.2432 60.7008 61.1097 60.5779 60.952 60.5849Z" fill="url(#paint25_linear_415_340)"/>
<path d="M61.0785 66.3308L60.0559 66.399C59.8003 66.416 59.6069 66.638 59.6238 66.8949L59.8183 69.8361C59.8353 70.0929 60.0563 70.2873 60.3119 70.2702L61.3344 70.202C61.59 70.1849 61.7835 69.9629 61.7665 69.7061L61.5721 66.7649C61.5551 66.508 61.3341 66.3137 61.0785 66.3308Z" fill="url(#paint26_linear_415_340)"/>
<path d="M61.5968 72.128L60.27 72.135C60.1002 72.1359 59.9633 72.2749 59.9642 72.4455L59.9807 75.6099C59.9816 75.7805 60.1199 75.9181 60.2897 75.9172L61.6166 75.9102C61.7863 75.9093 61.9233 75.7703 61.9224 75.5997L61.9059 72.4352C61.905 72.2647 61.7666 72.1271 61.5968 72.128Z" fill="url(#paint27_linear_415_340)"/>
<path d="M86.9894 73.6162H76.7522C76.6747 73.6162 76.612 73.6793 76.612 73.7571V78.3521C76.612 78.4299 76.6747 78.493 76.7522 78.493H86.9894C87.0668 78.493 87.1296 78.4299 87.1296 78.3521V73.7571C87.1296 73.6793 87.0668 73.6162 86.9894 73.6162Z" fill="url(#paint28_linear_415_340)"/>
<path d="M102.739 73.6162H92.5557C92.4633 73.6162 92.3885 73.6914 92.3885 73.7842V78.325C92.3885 78.4178 92.4633 78.493 92.5557 78.493H102.739C102.831 78.493 102.906 78.4178 102.906 78.325V73.7842C102.906 73.6914 102.831 73.6162 102.739 73.6162Z" fill="url(#paint29_linear_415_340)"/>
<path d="M61.4287 78.0649C61.5 78.098 61.5575 78.1552 61.591 78.2265C61.6245 78.2978 61.632 78.3787 61.6121 78.455C61.3244 79.6074 60.7995 80.6261 60.0371 81.5112C59.9807 81.5763 59.9087 81.6245 59.8295 81.6504C59.7503 81.6763 59.6671 81.6787 59.5895 81.6575C59.0393 81.5057 58.7121 81.1373 58.6078 80.5521C58.5942 80.4777 58.6003 80.3972 58.6255 80.3166C58.6507 80.2359 58.6944 80.1572 58.7534 80.0861C59.2137 79.5261 59.5211 78.8903 59.6758 78.1787C59.6936 78.0952 59.7324 78.0196 59.7872 77.9616C59.8421 77.9037 59.9103 77.866 59.9832 77.8536C60.4686 77.7633 60.9505 77.8337 61.4287 78.0649Z" fill="url(#paint30_linear_415_340)"/>
<path d="M11.3847 80.4099L8.57588 79.0761C8.38467 78.9853 8.15639 79.0674 8.066 79.2595L7.59117 80.2686C7.50078 80.4607 7.58252 80.6901 7.77373 80.7809L10.5825 82.1147C10.7737 82.2055 11.002 82.1234 11.0924 81.9313L11.5672 80.9221C11.6576 80.7301 11.5759 80.5007 11.3847 80.4099Z" fill="url(#paint31_linear_415_340)"/>
<path d="M56.6023 80.6471L53.6256 80.9088C53.3911 80.9294 53.2177 81.137 53.2382 81.3725L53.3341 82.4737C53.3546 82.7092 53.5613 82.8835 53.7957 82.8629L56.7725 82.6012C57.0069 82.5806 57.1803 82.373 57.1598 82.1375L57.0639 81.0363C57.0434 80.8008 56.8367 80.6265 56.6023 80.6471Z" fill="url(#paint32_linear_415_340)"/>
<path d="M16.787 81.1131L13.5837 80.8429C13.4204 80.8291 13.2769 80.9509 13.2632 81.1149L13.1576 82.3784C13.1439 82.5424 13.2651 82.6866 13.4284 82.7003L16.6318 82.9706C16.795 82.9844 16.9385 82.8625 16.9522 82.6985L17.0578 81.435C17.0715 81.271 16.9503 81.1269 16.787 81.1131Z" fill="url(#paint33_linear_415_340)"/>
<path d="M51.0529 81.0335L47.7898 81.2225C47.6292 81.2318 47.5065 81.3702 47.5158 81.5315L47.5921 82.8623C47.6014 83.0236 47.7391 83.1469 47.8997 83.1376L51.1628 82.9485C51.3234 82.9392 51.4461 82.8009 51.4368 82.6396L51.3605 81.3088C51.3512 81.1475 51.2135 81.0242 51.0529 81.0335Z" fill="url(#paint34_linear_415_340)"/>
<path d="M22.3522 81.2873L19.379 81.1308C19.147 81.1186 18.949 81.2976 18.9368 81.5307L18.8781 82.6563C18.866 82.8894 19.0442 83.0883 19.2762 83.1005L22.2495 83.257C22.4815 83.2692 22.6795 83.0902 22.6916 82.8571L22.7503 81.7315C22.7625 81.4984 22.5843 81.2996 22.3522 81.2873Z" fill="url(#paint35_linear_415_340)"/>
<path d="M45.3636 81.2929L42.0414 81.3395C41.9223 81.3411 41.827 81.4395 41.8287 81.5592L41.8493 83.0438C41.851 83.1635 41.9489 83.2592 42.0681 83.2575L45.3903 83.2109C45.5094 83.2092 45.6046 83.1108 45.603 82.9911L45.5823 81.5066C45.5807 81.3869 45.4827 81.2912 45.3636 81.2929Z" fill="url(#paint36_linear_415_340)"/>
<path d="M28.236 81.3432H24.8811C24.756 81.3432 24.6545 81.4451 24.6545 81.5708V83.0013C24.6545 83.127 24.756 83.2289 24.8811 83.2289H28.236C28.3611 83.2289 28.4625 83.127 28.4625 83.0013V81.5708C28.4625 81.4451 28.3611 81.3432 28.236 81.3432Z" fill="url(#paint37_linear_415_340)"/>
<path d="M33.8041 81.3138L30.8054 81.3401C30.5551 81.3423 30.3541 81.5479 30.3563 81.7992L30.366 82.9263C30.3682 83.1776 30.5728 83.3796 30.823 83.3774L33.8218 83.3512C34.072 83.349 34.2731 83.1434 34.2709 82.892L34.2611 81.765C34.2589 81.5136 34.0543 81.3116 33.8041 81.3138Z" fill="url(#paint38_linear_415_340)"/>
<path d="M39.6009 81.3293L36.3647 81.3463C36.183 81.3472 36.0365 81.496 36.0374 81.6786L36.0439 82.914C36.0448 83.0965 36.1929 83.2437 36.3746 83.2428L39.6108 83.2258C39.7925 83.2248 39.939 83.076 39.9381 82.8935L39.9316 81.6581C39.9307 81.4755 39.7826 81.3283 39.6009 81.3293Z" fill="url(#paint39_linear_415_340)"/>
<defs>
<linearGradient id="paint0_linear_415_340" x1="50.5001" y1="86.5823" x2="91.3932" y2="31.338" gradientUnits="userSpaceOnUse">
<stop stop-color="#7FAD39"/>
<stop offset="0.487446" stop-color="#B1D17F"/>
<stop offset="1" stop-color="#7FAD39"/>
</linearGradient>
<linearGradient id="paint1_linear_415_340" x1="50.5001" y1="86.5823" x2="91.3932" y2="31.338" gradientUnits="userSpaceOnUse">
<stop stop-color="#7FAD39"/>
<stop offset="0.487446" stop-color="#B1D17F"/>
<stop offset="1" stop-color="#7FAD39"/>
</linearGradient>
<linearGradient id="paint2_linear_415_340" x1="50.5001" y1="86.5823" x2="91.3932" y2="31.338" gradientUnits="userSpaceOnUse">
<stop stop-color="#7FAD39"/>
<stop offset="0.487446" stop-color="#B1D17F"/>
<stop offset="1" stop-color="#7FAD39"/>
</linearGradient>
<linearGradient id="paint3_linear_415_340" x1="50.5001" y1="86.5823" x2="91.3932" y2="31.338" gradientUnits="userSpaceOnUse">
<stop stop-color="#7FAD39"/>
<stop offset="0.487446" stop-color="#B1D17F"/>
<stop offset="1" stop-color="#7FAD39"/>
</linearGradient>
<linearGradient id="paint4_linear_415_340" x1="50.5001" y1="86.5823" x2="91.3932" y2="31.338" gradientUnits="userSpaceOnUse">
<stop stop-color="#7FAD39"/>
<stop offset="0.487446" stop-color="#B1D17F"/>
<stop offset="1" stop-color="#7FAD39"/>
</linearGradient>
<linearGradient id="paint5_linear_415_340" x1="50.5001" y1="86.5823" x2="91.3932" y2="31.338" gradientUnits="userSpaceOnUse">
<stop stop-color="#7FAD39"/>
<stop offset="0.487446" stop-color="#B1D17F"/>
<stop offset="1" stop-color="#7FAD39"/>
</linearGradient>
<linearGradient id="paint6_linear_415_340" x1="50.5001" y1="86.5823" x2="91.3932" y2="31.338" gradientUnits="userSpaceOnUse">
<stop stop-color="#7FAD39"/>
<stop offset="0.487446" stop-color="#B1D17F"/>
<stop offset="1" stop-color="#7FAD39"/>
</linearGradient>
<linearGradient id="paint7_linear_415_340" x1="50.5001" y1="86.5823" x2="91.3932" y2="31.338" gradientUnits="userSpaceOnUse">
<stop stop-color="#7FAD39"/>
<stop offset="0.487446" stop-color="#B1D17F"/>
<stop offset="1" stop-color="#7FAD39"/>
</linearGradient>
<linearGradient id="paint8_linear_415_340" x1="50.5001" y1="86.5823" x2="91.3932" y2="31.338" gradientUnits="userSpaceOnUse">
<stop stop-color="#7FAD39"/>
<stop offset="0.487446" stop-color="#B1D17F"/>
<stop offset="1" stop-color="#7FAD39"/>
</linearGradient>
<linearGradient id="paint9_linear_415_340" x1="50.5001" y1="86.5823" x2="91.3932" y2="31.338" gradientUnits="userSpaceOnUse">
<stop stop-color="#7FAD39"/>
<stop offset="0.487446" stop-color="#B1D17F"/>
<stop offset="1" stop-color="#7FAD39"/>
</linearGradient>
<linearGradient id="paint10_linear_415_340" x1="50.5001" y1="86.5823" x2="91.3932" y2="31.338" gradientUnits="userSpaceOnUse">
<stop stop-color="#7FAD39"/>
<stop offset="0.487446" stop-color="#B1D17F"/>
<stop offset="1" stop-color="#7FAD39"/>
</linearGradient>
<linearGradient id="paint11_linear_415_340" x1="50.5001" y1="86.5823" x2="91.3932" y2="31.338" gradientUnits="userSpaceOnUse">
<stop stop-color="#7FAD39"/>
<stop offset="0.487446" stop-color="#B1D17F"/>
<stop offset="1" stop-color="#7FAD39"/>
</linearGradient>
<linearGradient id="paint12_linear_415_340" x1="50.5001" y1="86.5823" x2="91.3932" y2="31.338" gradientUnits="userSpaceOnUse">
<stop stop-color="#7FAD39"/>
<stop offset="0.487446" stop-color="#B1D17F"/>
<stop offset="1" stop-color="#7FAD39"/>
</linearGradient>
<linearGradient id="paint13_linear_415_340" x1="50.5001" y1="86.5823" x2="91.3932" y2="31.338" gradientUnits="userSpaceOnUse">
<stop stop-color="#7FAD39"/>
<stop offset="0.487446" stop-color="#B1D17F"/>
<stop offset="1" stop-color="#7FAD39"/>
</linearGradient>
<linearGradient id="paint14_linear_415_340" x1="50.5001" y1="86.5823" x2="91.3932" y2="31.338" gradientUnits="userSpaceOnUse">
<stop stop-color="#7FAD39"/>
<stop offset="0.487446" stop-color="#B1D17F"/>
<stop offset="1" stop-color="#7FAD39"/>
</linearGradient>
<linearGradient id="paint15_linear_415_340" x1="50.5001" y1="86.5823" x2="91.3932" y2="31.338" gradientUnits="userSpaceOnUse">
<stop stop-color="#7FAD39"/>
<stop offset="0.487446" stop-color="#B1D17F"/>
<stop offset="1" stop-color="#7FAD39"/>
</linearGradient>
<linearGradient id="paint16_linear_415_340" x1="50.5001" y1="86.5823" x2="91.3932" y2="31.338" gradientUnits="userSpaceOnUse">
<stop stop-color="#7FAD39"/>
<stop offset="0.487446" stop-color="#B1D17F"/>
<stop offset="1" stop-color="#7FAD39"/>
</linearGradient>
<linearGradient id="paint17_linear_415_340" x1="50.5001" y1="86.5823" x2="91.3932" y2="31.338" gradientUnits="userSpaceOnUse">
<stop stop-color="#7FAD39"/>
<stop offset="0.487446" stop-color="#B1D17F"/>
<stop offset="1" stop-color="#7FAD39"/>
</linearGradient>
<linearGradient id="paint18_linear_415_340" x1="50.5001" y1="86.5823" x2="91.3932" y2="31.338" gradientUnits="userSpaceOnUse">
<stop stop-color="#7FAD39"/>
<stop offset="0.487446" stop-color="#B1D17F"/>
<stop offset="1" stop-color="#7FAD39"/>
</linearGradient>
<linearGradient id="paint19_linear_415_340" x1="50.5001" y1="86.5823" x2="91.3932" y2="31.338" gradientUnits="userSpaceOnUse">
<stop stop-color="#7FAD39"/>
<stop offset="0.487446" stop-color="#B1D17F"/>
<stop offset="1" stop-color="#7FAD39"/>
</linearGradient>
<linearGradient id="paint20_linear_415_340" x1="50.5001" y1="86.5823" x2="91.3932" y2="31.338" gradientUnits="userSpaceOnUse">
<stop stop-color="#7FAD39"/>
<stop offset="0.487446" stop-color="#B1D17F"/>
<stop offset="1" stop-color="#7FAD39"/>
</linearGradient>
<linearGradient id="paint21_linear_415_340" x1="50.5001" y1="86.5823" x2="91.3932" y2="31.338" gradientUnits="userSpaceOnUse">
<stop stop-color="#7FAD39"/>
<stop offset="0.487446" stop-color="#B1D17F"/>
<stop offset="1" stop-color="#7FAD39"/>
</linearGradient>
<linearGradient id="paint22_linear_415_340" x1="50.5001" y1="86.5823" x2="91.3932" y2="31.338" gradientUnits="userSpaceOnUse">
<stop stop-color="#7FAD39"/>
<stop offset="0.487446" stop-color="#B1D17F"/>
<stop offset="1" stop-color="#7FAD39"/>
</linearGradient>
<linearGradient id="paint23_linear_415_340" x1="50.5001" y1="86.5823" x2="91.3932" y2="31.338" gradientUnits="userSpaceOnUse">
<stop stop-color="#7FAD39"/>
<stop offset="0.487446" stop-color="#B1D17F"/>
<stop offset="1" stop-color="#7FAD39"/>
</linearGradient>
<linearGradient id="paint24_linear_415_340" x1="50.5001" y1="86.5823" x2="91.3932" y2="31.338" gradientUnits="userSpaceOnUse">
<stop stop-color="#7FAD39"/>
<stop offset="0.487446" stop-color="#B1D17F"/>
<stop offset="1" stop-color="#7FAD39"/>
</linearGradient>
<linearGradient id="paint25_linear_415_340" x1="50.5001" y1="86.5823" x2="91.3932" y2="31.338" gradientUnits="userSpaceOnUse">
<stop stop-color="#7FAD39"/>
<stop offset="0.487446" stop-color="#B1D17F"/>
<stop offset="1" stop-color="#7FAD39"/>
</linearGradient>
<linearGradient id="paint26_linear_415_340" x1="50.5001" y1="86.5823" x2="91.3932" y2="31.338" gradientUnits="userSpaceOnUse">
<stop stop-color="#7FAD39"/>
<stop offset="0.487446" stop-color="#B1D17F"/>
<stop offset="1" stop-color="#7FAD39"/>
</linearGradient>
<linearGradient id="paint27_linear_415_340" x1="50.5001" y1="86.5823" x2="91.3932" y2="31.338" gradientUnits="userSpaceOnUse">
<stop stop-color="#7FAD39"/>
<stop offset="0.487446" stop-color="#B1D17F"/>
<stop offset="1" stop-color="#7FAD39"/>
</linearGradient>
<linearGradient id="paint28_linear_415_340" x1="50.5001" y1="86.5823" x2="91.3932" y2="31.338" gradientUnits="userSpaceOnUse">
<stop stop-color="#7FAD39"/>
<stop offset="0.487446" stop-color="#B1D17F"/>
<stop offset="1" stop-color="#7FAD39"/>
</linearGradient>
<linearGradient id="paint29_linear_415_340" x1="50.5001" y1="86.5823" x2="91.3932" y2="31.338" gradientUnits="userSpaceOnUse">
<stop stop-color="#7FAD39"/>
<stop offset="0.487446" stop-color="#B1D17F"/>
<stop offset="1" stop-color="#7FAD39"/>
</linearGradient>
<linearGradient id="paint30_linear_415_340" x1="50.5001" y1="86.5823" x2="91.3932" y2="31.338" gradientUnits="userSpaceOnUse">
<stop stop-color="#7FAD39"/>
<stop offset="0.487446" stop-color="#B1D17F"/>
<stop offset="1" stop-color="#7FAD39"/>
</linearGradient>
<linearGradient id="paint31_linear_415_340" x1="50.5001" y1="86.5823" x2="91.3932" y2="31.338" gradientUnits="userSpaceOnUse">
<stop stop-color="#7FAD39"/>
<stop offset="0.487446" stop-color="#B1D17F"/>
<stop offset="1" stop-color="#7FAD39"/>
</linearGradient>
<linearGradient id="paint32_linear_415_340" x1="50.5001" y1="86.5823" x2="91.3932" y2="31.338" gradientUnits="userSpaceOnUse">
<stop stop-color="#7FAD39"/>
<stop offset="0.487446" stop-color="#B1D17F"/>
<stop offset="1" stop-color="#7FAD39"/>
</linearGradient>
<linearGradient id="paint33_linear_415_340" x1="50.5001" y1="86.5823" x2="91.3932" y2="31.338" gradientUnits="userSpaceOnUse">
<stop stop-color="#7FAD39"/>
<stop offset="0.487446" stop-color="#B1D17F"/>
<stop offset="1" stop-color="#7FAD39"/>
</linearGradient>
<linearGradient id="paint34_linear_415_340" x1="50.5001" y1="86.5823" x2="91.3932" y2="31.338" gradientUnits="userSpaceOnUse">
<stop stop-color="#7FAD39"/>
<stop offset="0.487446" stop-color="#B1D17F"/>
<stop offset="1" stop-color="#7FAD39"/>
</linearGradient>
<linearGradient id="paint35_linear_415_340" x1="50.5001" y1="86.5823" x2="91.3932" y2="31.338" gradientUnits="userSpaceOnUse">
<stop stop-color="#7FAD39"/>
<stop offset="0.487446" stop-color="#B1D17F"/>
<stop offset="1" stop-color="#7FAD39"/>
</linearGradient>
<linearGradient id="paint36_linear_415_340" x1="50.5001" y1="86.5823" x2="91.3932" y2="31.338" gradientUnits="userSpaceOnUse">
<stop stop-color="#7FAD39"/>
<stop offset="0.487446" stop-color="#B1D17F"/>
<stop offset="1" stop-color="#7FAD39"/>
</linearGradient>
<linearGradient id="paint37_linear_415_340" x1="50.5001" y1="86.5823" x2="91.3932" y2="31.338" gradientUnits="userSpaceOnUse">
<stop stop-color="#7FAD39"/>
<stop offset="0.487446" stop-color="#B1D17F"/>
<stop offset="1" stop-color="#7FAD39"/>
</linearGradient>
<linearGradient id="paint38_linear_415_340" x1="50.5001" y1="86.5823" x2="91.3932" y2="31.338" gradientUnits="userSpaceOnUse">
<stop stop-color="#7FAD39"/>
<stop offset="0.487446" stop-color="#B1D17F"/>
<stop offset="1" stop-color="#7FAD39"/>
</linearGradient>
<linearGradient id="paint39_linear_415_340" x1="50.5001" y1="86.5823" x2="91.3932" y2="31.338" gradientUnits="userSpaceOnUse">
<stop stop-color="#7FAD39"/>
<stop offset="0.487446" stop-color="#B1D17F"/>
<stop offset="1" stop-color="#7FAD39"/>
</linearGradient>
</defs>
</svg>
