<svg width="103" height="90" viewBox="0 0 103 90" fill="none" xmlns="http://www.w3.org/2000/svg">
<path d="M40.0682 0.00610041C41.348 -0.0256726 42.7401 0.0666677 44.2446 0.283121C45.1838 0.419149 46.1548 0.613262 47.1575 0.86546C51.4442 1.94475 55.5052 3.67836 59.3406 6.0663C60.7966 6.97282 62.1249 7.97863 63.3255 9.08373C63.8689 9.58515 64.5691 10.2876 65.4263 11.1912C68.1185 14.0309 70.4514 17.0697 72.425 20.3075C72.9575 21.1823 73.5029 22.2278 74.0611 23.4441C74.8796 25.2274 75.3532 27.0985 75.4819 29.0575C75.4825 29.0673 75.4812 29.0771 75.4779 29.0863C75.4747 29.0955 75.4697 29.1039 75.4631 29.111C75.4566 29.1181 75.4487 29.1238 75.4399 29.1277C75.4311 29.1315 75.4217 29.1335 75.4121 29.1335L70.7859 29.1588C70.7556 29.1591 70.7261 29.1484 70.7027 29.1284C70.6793 29.1085 70.6635 29.0807 70.6582 29.0501C70.4454 27.7881 70.0777 26.5872 69.5551 25.4473C68.313 22.7397 66.8115 20.1919 65.0506 17.8039C64.434 16.9669 63.811 16.1959 63.1815 15.491C60.4051 12.3832 57.2012 9.9426 53.5697 8.16927C47.9419 5.4219 42.0185 4.28949 35.7998 4.77204C32.9453 4.99346 30.1051 5.58722 27.2793 6.55332C20.9358 8.72281 15.7434 12.4576 11.7022 17.7578C10.6233 19.1726 9.6281 20.6903 8.71652 22.3107C8.2147 23.2014 7.77227 24.0895 7.38923 24.9752C5.65217 28.9845 4.71732 33.1349 4.58469 37.4262C4.36595 44.5126 6.14458 50.9694 9.92058 56.7968C12.1317 60.2104 14.9006 63.1454 18.2273 65.6019C19.0132 66.1817 19.8362 66.7323 20.6963 67.2536C26.3291 70.6702 32.4786 72.4182 39.1447 72.4976C39.5159 72.5026 39.8801 72.4648 40.2374 72.3844C40.5948 72.304 40.954 72.2166 41.3153 72.1223C41.3477 72.1139 41.3817 72.113 41.4145 72.1198C41.4473 72.1266 41.4781 72.1408 41.5046 72.1613C41.5311 72.1819 41.5526 72.2082 41.5674 72.2384C41.5822 72.2685 41.5899 72.3017 41.59 72.3353V76.8301C41.59 76.8669 41.5754 76.9021 41.5495 76.9281C41.5236 76.9541 41.4885 76.9687 41.4519 76.9687C39.7623 76.9687 38.0515 76.9687 36.3194 76.9687C33.3313 76.9687 30.402 76.5561 27.5317 75.731C25.2126 75.0638 22.905 74.0977 20.6087 72.8327C19.7664 72.369 18.9196 71.8547 18.0684 71.2897C12.208 67.4045 7.59411 62.368 4.22689 56.1802C3.70429 55.2211 3.25542 54.3364 2.8803 53.5262C1.41345 50.3558 0.534031 47.0991 0.242047 43.756C0.0678464 41.7632 -0.0123253 39.4671 0.00153155 36.8677C0.00845999 35.6573 0.0421124 34.6654 0.102489 33.892C0.431095 29.7069 1.55004 25.7308 3.45932 21.9637C6.00304 16.9416 9.53011 12.5485 14.0405 8.78437C17.5938 5.81857 21.5381 3.52694 25.8733 1.9095C28.1072 1.07645 30.3644 0.541276 32.6449 0.303972C33.7841 0.184823 35.0861 0.100923 36.551 0.0522707C37.7239 0.0512778 38.8963 0.0358876 40.0682 0.00610041Z" fill="url(#paint0_linear_419_3568)"/>
<path d="M23.0777 14.2012C31.76 14.1902 40.4423 14.1873 49.1246 14.1922C51.9762 14.1545 54.6516 14.859 57.1507 16.3056C58.1732 16.8964 58.9962 17.6595 59.6197 18.5948C60.1809 19.4377 60.6555 20.5548 61.0435 21.9458C62.5064 27.1963 62.6287 32.4309 61.4102 37.6496C61.238 38.3854 60.9851 39.14 60.6516 39.9134C60.2873 40.7554 59.8924 41.442 59.4668 41.9732C58.6453 42.9969 57.5887 43.7803 56.2971 44.3234C55.0539 44.8477 53.8751 45.227 52.7606 45.4613C50.6801 45.8992 48.5773 46.1673 46.4522 46.2655C44.053 46.3758 41.6528 46.4046 39.2516 46.3519C36.6158 46.2943 33.939 46.2348 31.2211 46.1732C31.2035 46.1728 31.186 46.1759 31.1696 46.1823C31.1532 46.1887 31.1383 46.1983 31.1257 46.2105C31.1131 46.2227 31.1031 46.2373 31.0963 46.2534C31.0895 46.2695 31.086 46.2868 31.086 46.3043L31.0949 50.1334C31.0949 50.1603 31.1057 50.186 31.1249 50.205C31.1441 50.224 31.1701 50.2347 31.1973 50.2347H38.2435C38.2659 50.2347 38.2873 50.2434 38.3034 50.2589C38.3195 50.2745 38.3289 50.2957 38.3296 50.3181C38.389 51.9713 38.4242 53.5942 38.4351 55.1868C38.439 55.7408 38.4153 56.1752 38.3638 56.49C38.2876 56.9656 38.0268 57.2883 37.5814 57.4581C37.2053 57.601 36.6604 57.6621 35.9468 57.6413C34.4136 57.5956 32.8418 57.5588 31.2315 57.531C31.2125 57.5307 31.1936 57.5341 31.176 57.5411C31.1584 57.5481 31.1423 57.5585 31.1288 57.5719C31.1152 57.5852 31.1044 57.6011 31.0971 57.6186C31.0897 57.6362 31.086 57.655 31.086 57.674V65.1059C31.086 65.1316 31.076 65.1562 31.0581 65.1744C31.0403 65.1925 31.0161 65.2027 30.9909 65.2027L23.0955 65.1759C23.0758 65.1759 23.0569 65.1679 23.043 65.1537C23.0291 65.1394 23.0213 65.1201 23.0213 65.1L23.0228 57.5951C23.0228 57.5785 23.016 57.5626 23.0041 57.5509C22.9921 57.5391 22.9758 57.5325 22.9589 57.5325H16.3195C16.2802 57.5325 16.2425 57.5171 16.2145 57.4895C16.1865 57.462 16.1703 57.4245 16.1695 57.3851C16.1052 54.9803 16.1062 52.6251 16.1725 50.3196C16.1729 50.2993 16.181 50.28 16.1952 50.2658C16.2094 50.2516 16.2284 50.2436 16.2482 50.2436L22.8862 50.2347C22.9177 50.2347 22.9479 50.2221 22.9701 50.1998C22.9924 50.1774 23.0049 50.1471 23.0049 50.1155L23.0213 46.3236C23.0213 46.2845 23.0061 46.247 22.9791 46.2194C22.9521 46.1917 22.9154 46.1762 22.8773 46.1762L16.2482 46.1673C16.2284 46.1673 16.2094 46.1596 16.1952 46.146C16.181 46.1323 16.1729 46.1138 16.1725 46.0943C16.1052 43.7292 16.1052 41.3641 16.1725 38.999C16.1729 38.9788 16.1807 38.9595 16.1945 38.9451C16.2083 38.9307 16.227 38.9223 16.2467 38.9215C18.0016 38.855 19.756 38.853 21.5099 38.9156C21.9761 38.8838 22.4427 38.8679 22.9099 38.8679C22.9302 38.8683 22.9497 38.8611 22.9645 38.8477C22.9792 38.8344 22.9878 38.8159 22.9886 38.7964C23.0361 37.4342 23.0381 36.0714 22.9945 34.7081C23.05 27.8978 23.0534 21.0875 23.0049 14.2771C23.0047 14.2672 23.0065 14.2574 23.01 14.2482C23.0136 14.239 23.0189 14.2306 23.0257 14.2235C23.0325 14.2164 23.0406 14.2108 23.0495 14.207C23.0584 14.2031 23.068 14.2012 23.0777 14.2012ZM32.0421 38.8873C36.4367 38.9041 40.8318 38.9012 45.2274 38.8783C46.7259 38.8704 48.2512 38.7309 49.8031 38.4598C50.9453 38.2603 51.6728 38.091 51.9856 37.952C52.7339 37.6213 53.2773 37.0489 53.6158 36.2347C54.0711 35.1405 54.3427 33.9128 54.4308 32.5515C54.5942 30.0435 54.4462 27.5552 53.9869 25.0869C53.8345 24.2677 53.6583 23.6551 53.4584 23.249C53.2307 22.7873 52.8502 22.4492 52.3167 22.2348C51.5872 21.9419 50.9434 21.7463 50.3851 21.648C48.4947 21.3163 46.5898 21.1222 44.6707 21.0656C40.2533 20.9365 35.7701 20.9435 31.2211 21.0865C31.1848 21.0876 31.1505 21.1029 31.1253 21.129C31.1 21.1551 31.0859 21.1901 31.086 21.2265V38.7607C31.0859 38.7993 31.1007 38.8365 31.1272 38.8645C31.1538 38.8925 31.19 38.9092 31.2285 38.9111C31.5393 38.924 31.8105 38.9161 32.0421 38.8873Z" fill="url(#paint1_linear_419_3568)"/>
<path d="M75.3008 33.3975C76.4143 33.7172 77.3976 34.2698 78.2508 35.0551C79.6593 36.3519 80.7752 37.8676 81.5987 39.6022C82.4489 41.3953 82.8468 43.2888 82.7924 45.2826C82.7409 47.1979 82.6014 49.0541 82.3737 50.8513C82.37 50.8795 82.3725 50.9082 82.381 50.9354C82.3896 50.9625 82.4041 50.9875 82.4234 51.0084C82.4426 51.0293 82.4663 51.0457 82.4926 51.0564C82.5189 51.0671 82.5473 51.0718 82.5756 51.0702C85.7855 50.8945 88.8998 50.8726 91.9186 51.0047C93.7665 51.0861 95.5333 51.3537 97.2189 51.8074C98.0473 52.0308 98.8293 52.3689 99.5647 52.8217C100.402 53.338 101.014 53.9089 101.4 54.5345C101.866 55.2901 102.108 56.1777 102.127 57.1974C102.149 58.3403 102.124 59.4821 102.053 60.623C102.049 60.9526 101.925 61.2877 101.682 61.6283C101.092 62.4534 100.968 63.3842 101.311 64.4208C101.411 64.7227 101.491 65.1849 101.551 65.8074C101.606 66.3575 101.609 66.8236 101.562 67.2059C101.467 67.9724 101.226 68.6983 100.84 69.3834C100.562 69.8768 100.293 70.3753 100.032 70.8787C99.4414 72.0245 99.191 73.2482 99.2811 74.5499C99.385 76.0562 99.1158 77.4879 98.4734 78.8452C97.9657 79.9196 97.1976 80.7576 96.1692 81.3593C96.1477 81.372 96.131 81.3917 96.1221 81.415C96.1132 81.4383 96.1125 81.4638 96.1202 81.4874C96.434 82.4763 96.4805 83.4548 96.2598 84.4229C95.8243 86.3253 94.8697 87.8092 93.3959 88.8746C92.4249 89.5756 91.2649 89.928 89.9158 89.932C86.3645 89.9419 82.8137 89.9633 79.2634 89.9961C77.264 90.0149 75.2721 89.9047 73.2876 89.6654C71.8356 89.4907 69.8174 89.1129 67.2331 88.532C65.1655 88.0683 63.1156 87.5932 61.0836 87.1067C61.0463 87.0979 61.0072 87.1019 60.9724 87.1181C60.9377 87.1343 60.9094 87.1618 60.8921 87.1961C60.6357 87.7015 60.3304 88.1557 59.9761 88.5588C59.59 88.9977 59.162 89.3259 58.6918 89.5433C58.1474 89.7945 57.565 89.9241 56.9444 89.932C56.5198 89.938 56.305 89.941 56.3 89.941C54.4343 90.0244 52.6982 90.0194 51.0918 89.9261C50.2881 89.8794 49.4973 89.7205 48.7193 89.4495C47.8087 89.1337 47.1243 88.7341 46.666 88.2505C45.9791 87.5237 45.6357 86.5681 45.6357 85.3835C45.6357 75.4416 45.6357 65.5001 45.6357 55.5591C45.6654 54.7152 45.9593 53.9179 46.5176 53.1672C47.0174 52.494 47.5974 51.9678 48.2576 51.5885C48.7762 51.2896 49.5027 51.0563 50.4371 50.8885C52.3672 50.542 54.3056 50.5172 56.2525 50.814C56.7553 50.8905 57.2408 51.0092 57.709 51.17C58.1841 51.3328 58.6508 51.5175 59.109 51.724C59.7959 51.9117 60.467 51.8278 61.1222 51.4723C61.9903 51.0037 62.7826 50.464 63.4992 49.8534C64.2425 49.2209 64.9106 48.5398 65.5035 47.81C66.7813 46.2363 67.5899 44.4123 67.9294 42.3381C68.0818 41.4048 68.2224 40.3136 68.3511 39.0645C68.4045 38.5492 68.4901 38.0165 68.6079 37.4664C68.7405 36.8508 68.9103 36.3425 69.1171 35.9413C69.8288 34.5592 70.9933 33.6854 72.6106 33.32C73.5142 33.1165 74.411 33.1423 75.3008 33.3975ZM88.9211 70.5004C90.6651 70.5341 91.9369 70.5307 92.7367 70.49C93.5057 70.4502 94.2599 70.3246 94.9993 70.1131C96.6235 69.6495 97.5183 68.5717 97.6836 66.8797C97.743 66.2661 97.7182 65.6754 97.6094 65.1074C97.5807 64.9595 97.5134 64.8234 97.4074 64.6993L96.5523 63.697C96.5249 63.6649 96.4913 63.6393 96.4538 63.622C96.4163 63.6047 96.3759 63.5963 96.3355 63.5972C95.4081 63.625 94.5302 63.6627 93.7017 63.7104C93.1514 63.7422 92.6075 63.7029 92.0701 63.5927C91.2743 63.4309 90.7458 62.9364 90.4845 62.1093C90.4723 62.0706 90.4754 62.0287 90.4931 61.9921C90.5107 61.9556 90.5416 61.9272 90.5795 61.9127C91.3713 61.6099 92.2141 61.4778 93.1078 61.5166C93.5859 61.5374 94.1966 61.5369 94.9399 61.5151C95.8 61.4893 96.4018 61.4093 96.7453 61.2753C97.551 60.9605 98.0691 60.3206 98.2997 59.3555C98.4234 58.8342 98.4898 58.3075 98.4987 57.7753C98.5056 57.3742 98.4388 57.052 98.2982 56.8087C98.13 56.5138 97.8845 56.2711 97.5618 56.0804C96.9709 55.7309 96.3771 55.4832 95.7803 55.3372C94.4737 55.0195 93.1494 54.8135 91.8073 54.7191C88.9033 54.5136 85.9963 54.459 83.0864 54.5553C81.2582 54.6149 79.4301 54.6486 77.602 54.6566C77.5924 54.6566 77.5829 54.6546 77.574 54.6508C77.5652 54.6469 77.5572 54.6413 77.5505 54.6342C77.5439 54.6271 77.5387 54.6187 77.5353 54.6095C77.5319 54.6003 77.5303 54.5905 77.5307 54.5806C77.5565 53.8082 77.6545 53.1444 77.8247 52.5894C78.3523 50.8746 78.6729 49.2458 78.7868 47.7028C78.8996 46.1707 78.9347 45.1406 78.8922 44.6124C78.7041 42.2959 77.8702 40.2525 76.3905 38.4822C75.8135 37.7911 75.0667 37.312 74.1502 37.0449C73.7255 36.9208 73.3658 36.9685 73.0708 37.1879C72.9342 37.2902 72.814 37.4505 72.71 37.669C72.6091 37.8785 72.5418 38.0706 72.5081 38.2454C72.3587 39.0139 72.2147 39.9934 72.0761 41.1839C71.987 41.9514 71.8643 42.7129 71.7079 43.4685C71.312 45.3809 70.6073 47.1497 69.5937 48.7751C69.086 49.5903 68.4782 50.3717 67.7706 51.1194C66.7511 52.1967 65.6198 53.1449 64.3766 53.964C63.9639 54.2361 63.4541 54.53 62.8474 54.8457C62.3258 55.1178 61.8002 55.3834 61.2707 55.6425C60.3551 56.1291 59.8603 56.8956 59.786 57.9421C59.7435 58.5498 59.7281 59.1579 59.74 59.7666C59.74 59.7666 59.7296 66.2577 59.7088 79.2399C59.7068 80.2745 59.7449 81.0038 59.8231 81.4278C59.9498 82.1119 60.2591 82.6084 60.7511 82.9172C61.2944 83.2577 62.0214 83.4965 62.932 83.6335C64.8839 84.0714 66.8332 84.5182 68.7801 84.974C71.3169 85.5697 73.8834 85.9793 76.4796 86.2027C79.5727 86.2861 82.6657 86.3725 85.7588 86.4618C87.0296 86.4976 88.2906 86.4057 89.5417 86.1863C90.2276 86.0652 90.8071 85.8442 91.2802 85.5235C91.8286 85.1512 92.1785 84.6423 92.3299 83.9969C92.4031 83.6812 92.4462 83.3635 92.4591 83.0437C92.4719 82.7161 92.4303 82.3959 92.3343 82.0831C92.2552 81.826 92.1126 81.6462 91.9068 81.544C91.687 81.4357 91.444 81.3876 91.1778 81.3995C89.8733 81.4601 88.589 81.3389 87.3251 81.0361C87.3037 81.0308 87.2845 81.0192 87.2699 81.0027C87.2553 80.9862 87.2461 80.9656 87.2434 80.9437C87.187 80.4602 87.1816 79.9762 87.2271 79.4916C87.2293 79.4709 87.2389 79.4518 87.2543 79.4378C87.2696 79.4238 87.2895 79.4159 87.3102 79.4157C89.0483 79.3859 90.1643 79.3521 90.6581 79.3144C91.2609 79.2677 91.8919 79.156 92.5511 78.9793C93.433 78.742 94.1412 78.2987 94.6757 77.6493C95.0389 77.2084 95.3022 76.6633 95.4655 76.014C95.612 75.4341 95.6798 74.8215 95.6689 74.1761C95.656 73.4285 95.3804 72.936 94.8419 72.6987C94.6272 72.6043 94.1318 72.5462 93.3558 72.5244C91.9028 72.4827 90.4478 72.3616 88.9909 72.161C88.9491 72.1552 88.9109 72.1347 88.8833 72.1031C88.8557 72.0716 88.8406 72.0313 88.8409 71.9897L88.8469 70.5748C88.8469 70.5649 88.8488 70.5551 88.8525 70.546C88.8563 70.5369 88.8618 70.5286 88.8687 70.5217C88.8756 70.5147 88.8838 70.5093 88.8928 70.5056C88.9018 70.502 88.9114 70.5002 88.9211 70.5004ZM49.9323 85.9882C50.251 86.2215 50.6499 86.3178 51.1289 86.2771C52.5018 86.3308 53.8751 86.3571 55.2489 86.3561C55.7952 86.3551 56.3144 86.2523 56.8063 86.0478C57.0716 85.9376 57.2695 85.807 57.4002 85.6561C57.5665 85.4635 57.6659 85.2361 57.6986 84.974C57.7382 84.6592 57.7505 84.2745 57.7357 83.8197C57.7357 74.9034 57.7357 65.9866 57.7357 57.0694C57.7357 56.3227 57.6778 55.8208 57.562 55.5636C57.3175 55.0235 56.831 54.7345 56.1026 54.6968C54.5199 54.6164 52.9368 54.6045 51.3531 54.6611C50.6959 54.6849 50.1664 54.8383 49.7645 55.1213C49.4716 55.3278 49.3078 55.6599 49.2731 56.1176C49.284 65.307 49.2756 74.4963 49.2479 83.6857C49.2449 84.4422 49.2479 84.8479 49.2568 84.9025C49.33 85.3513 49.5552 85.7132 49.9323 85.9882Z" fill="url(#paint2_linear_419_3568)"/>
<defs>
<linearGradient id="paint0_linear_419_3568" x1="39.2347" y1="86.5823" x2="81.9418" y2="41.7577" gradientUnits="userSpaceOnUse">
<stop stop-color="#7FAD39"/>
<stop offset="0.487446" stop-color="#B1D17F"/>
<stop offset="1" stop-color="#7FAD39"/>
</linearGradient>
<linearGradient id="paint1_linear_419_3568" x1="39.2347" y1="86.5823" x2="81.9418" y2="41.7577" gradientUnits="userSpaceOnUse">
<stop stop-color="#7FAD39"/>
<stop offset="0.487446" stop-color="#B1D17F"/>
<stop offset="1" stop-color="#7FAD39"/>
</linearGradient>
<linearGradient id="paint2_linear_419_3568" x1="39.2347" y1="86.5823" x2="81.9418" y2="41.7577" gradientUnits="userSpaceOnUse">
<stop stop-color="#7FAD39"/>
<stop offset="0.487446" stop-color="#B1D17F"/>
<stop offset="1" stop-color="#7FAD39"/>
</linearGradient>
</defs>
</svg>
