<svg width="72" height="100" viewBox="0 0 72 100" fill="none" xmlns="http://www.w3.org/2000/svg">
<path d="M36.2242 0.00607484L38.5407 0.0523195C39.7639 0.10288 40.7338 0.604172 41.4504 1.55619C41.4877 1.60555 41.5085 1.66382 41.5097 1.72268C41.527 2.21472 41.464 2.81651 41.3207 3.52806C40.9302 5.45924 40.4799 8.09518 39.9696 11.4359C39.9004 11.5937 39.9029 11.7504 39.977 11.9057C40.1451 12.679 40.5763 13.0606 41.2706 13.0508C41.5919 13.0458 41.8736 12.9478 42.1157 12.7566C42.3912 12.5384 42.5587 12.2677 42.618 11.9446C43.1146 9.21677 43.6082 6.4908 44.0987 3.76669C44.1051 3.73139 44.1198 3.69807 44.1414 3.66946C44.1631 3.64085 44.1911 3.61776 44.2233 3.60207C44.2555 3.58637 44.2908 3.57853 44.3265 3.57917C44.3622 3.57981 44.3972 3.58892 44.4286 3.60576C47.1418 5.03379 49.3429 7.01984 51.0318 9.56391C52.9815 12.5014 53.9798 15.7416 54.0267 19.2845C54.0266 19.3109 54.0357 19.3365 54.0523 19.3568C54.0689 19.377 54.092 19.3908 54.1175 19.3955C54.5302 19.467 54.9441 19.5269 55.3592 19.5749C56.1339 19.813 56.6985 20.2427 57.0531 20.8642C57.3978 21.4697 57.4899 22.1104 57.3293 22.7862C57.1625 23.4854 56.7331 24.044 56.0412 24.4621C55.5495 24.758 55.0133 24.8733 54.4326 24.808C54.3041 24.7932 54.1775 24.792 54.0527 24.8043C53.8612 24.8253 53.7358 24.8357 53.6765 24.8357C41.7278 24.8493 29.7791 24.853 17.8304 24.8468C16.9939 24.9085 16.2718 24.7198 15.6639 24.2808C15.0363 23.827 14.6823 23.2449 14.602 22.5346C14.5266 21.8724 14.6749 21.2626 15.0468 20.7052C15.4841 20.0491 16.1495 19.6545 17.0427 19.5213L17.9175 19.4325C17.9441 19.4301 17.9688 19.4183 17.9867 19.3995C18.0046 19.3806 18.0143 19.356 18.0139 19.3308L18.0083 17.9564C18.3629 14.3826 19.6435 11.1862 21.8501 8.3671C23.4304 6.34837 25.3559 4.74954 27.6268 3.57061C27.6497 3.55858 27.6752 3.55211 27.7011 3.55172C27.727 3.55134 27.7526 3.55705 27.7759 3.5684C27.7992 3.57975 27.8195 3.59642 27.8351 3.61705C27.8507 3.63768 27.8613 3.66169 27.8659 3.68715L29.2873 11.7041C29.3466 12.042 29.4844 12.3355 29.7006 12.5846C30.2158 13.179 30.8268 13.2394 31.5335 12.7659C31.9647 12.4761 32.1266 12.0192 32.0191 11.3952C31.494 8.37388 30.9713 5.29523 30.4512 2.15922C30.4018 1.85833 30.4741 1.59011 30.668 1.35457C31.2252 0.684946 31.9808 0.268744 32.9346 0.105963C33.451 0.0184069 34.5476 -0.0148894 36.2242 0.00607484Z" fill="url(#paint0_linear_418_3508)"/>
<path d="M18.1936 27.4365L20.147 27.4439C20.21 27.5216 20.2538 27.6116 20.2786 27.714C20.6579 31.5788 21.7476 35.2272 23.5477 38.6592C23.9876 39.4977 24.4874 40.2962 25.047 41.0546C25.6426 41.8599 26.2436 42.5801 26.8503 43.2152C28.108 44.5335 29.561 45.5718 31.2092 46.3302C32.4113 46.8827 33.5913 47.2274 34.7489 47.3643C36.5862 47.5825 38.395 47.3273 40.1753 46.5985C42.1102 45.8055 43.7861 44.6414 45.2033 43.1061C47.2419 40.8986 48.7887 38.3885 49.8439 35.5756C50.7965 33.034 51.4185 30.3789 51.7101 27.6104C51.7153 27.5631 51.737 27.5193 51.7709 27.4878C51.8049 27.4563 51.8487 27.4393 51.8936 27.4402L53.4596 27.4754C53.771 27.4162 53.897 27.542 53.8377 27.8527C53.5696 30.784 52.8913 33.7011 51.8028 36.6041C51.0442 38.6314 50.0897 40.5022 48.9395 42.2163C48.1772 43.3521 47.4216 44.3275 46.6729 45.1427C45.1668 46.7816 43.3945 48.0746 41.3559 49.0217C39.6385 49.8183 37.8044 50.2203 35.8535 50.2277L35.2512 50.1963C33.8254 50.1161 32.4571 49.7967 31.1462 49.2381C28.5528 48.1319 26.3419 46.4566 24.5133 44.2122C23.5125 42.9827 22.6872 41.7761 22.0373 40.5922C20.0172 36.9161 18.7496 32.9939 18.2344 28.8257C18.1813 28.3929 18.1263 27.9779 18.0695 27.5808C18.0668 27.563 18.068 27.5448 18.073 27.5274C18.078 27.5101 18.0867 27.494 18.0985 27.4804C18.1103 27.4667 18.1249 27.4557 18.1413 27.4481C18.1577 27.4406 18.1755 27.4366 18.1936 27.4365Z" fill="url(#paint1_linear_418_3508)"/>
<path d="M21.3053 48.1467C21.3708 48.143 21.4301 48.1609 21.4832 48.2004C21.7192 49.8479 22.4284 51.1773 23.6107 52.1885C24.74 53.1553 26.0249 53.9187 27.4656 54.4785C28.4725 54.8707 29.6586 55.2117 31.0239 55.5015C32.5547 55.8258 34.1034 55.9898 35.67 55.9935C36.9401 55.996 38.1726 55.922 39.3673 55.7715C41.417 55.5126 43.3957 54.9558 45.3034 54.1012C46.8564 53.4069 48.0888 52.5615 49.0006 51.5651C49.7704 50.7241 50.2596 49.6296 50.4684 48.2818C50.4726 48.2567 50.4859 48.2341 50.5055 48.2186C50.5252 48.2032 50.5497 48.196 50.5741 48.1985C57.0914 48.9199 62.3967 51.7224 66.49 56.6058C70.1854 61.0132 72.022 66.1963 71.9998 72.1551L71.9535 73.1725C71.8608 74.5314 71.6576 75.7184 71.3438 76.7333C70.4146 79.7386 68.5577 81.8159 65.7728 82.9652C63.4945 83.9037 60.9345 84.4494 58.0928 84.6023L57.3441 84.6874L50.9577 84.7873L50.4481 84.7262C51.6156 83.5917 52.4829 82.2611 53.05 80.7344C53.4578 79.6405 53.6097 78.3685 53.506 76.9183C53.4256 75.7985 53.1792 74.7898 52.7665 73.892C52.4725 73.2495 51.9171 72.4985 51.1004 71.639C50.2899 70.7844 49.451 69.9582 48.5837 69.1603C48.339 68.8606 48.0215 68.6584 47.6311 68.5536C47.6156 68.5491 47.6013 68.5414 47.589 68.531C47.5768 68.5206 47.5669 68.5077 47.5601 68.4931C47.5533 68.4786 47.5496 68.4628 47.5494 68.4467C47.5492 68.4306 47.5524 68.4147 47.5588 68.4C47.6329 68.2323 47.5959 68.1084 47.4476 68.0282C46.4888 67.0269 45.4998 66.057 44.4805 65.1185C43.5267 64.2417 42.521 63.9507 41.4634 64.2454C40.8641 64.4119 40.1309 64.8934 39.2635 65.6901C38.6099 66.2906 37.9866 66.9233 37.3936 67.588C36.8549 68.0973 36.3792 68.688 35.9665 69.3601C35.96 69.3707 35.9512 69.3797 35.9407 69.3863C35.9302 69.393 35.9183 69.3971 35.9061 69.3983C35.8938 69.3996 35.8815 69.398 35.8701 69.3936C35.8587 69.3892 35.8486 69.3821 35.8405 69.373C33.923 67.2408 31.4495 66.0983 28.42 65.9454C28.2223 65.9355 28.0518 66.0008 27.9085 66.1414L24.8191 69.1769C24.7843 69.2116 24.7644 69.2583 24.7637 69.3071C24.763 69.3559 24.7816 69.4028 24.8154 69.4377C26.0274 70.6931 27.25 71.9084 28.483 73.0837C28.7017 73.2921 28.8598 73.5375 28.9575 73.8199V74.7448C28.7684 75.4341 28.3335 75.899 27.6527 76.1395L26.9114 76.0933C26.6594 76.0328 26.4407 75.9089 26.2554 75.7215C24.9692 74.4167 23.6904 73.1435 22.4191 71.9017C22.3821 71.8657 22.3331 71.8452 22.2824 71.8445C22.2318 71.8438 22.1837 71.863 22.1485 71.898L19.0962 74.9372C18.9627 75.0716 18.8997 75.2411 18.9071 75.4458C19.0406 78.8864 20.5139 81.5569 23.3272 83.4573C24.2192 84.0603 25.0804 84.45 25.9107 84.6263C26.3925 84.7287 26.387 84.7799 25.894 84.7799C23.098 84.7799 20.302 84.7774 17.5061 84.7725C15.7269 84.7688 13.9546 84.6627 12.189 84.4543C10.7484 84.2853 9.3399 83.9912 7.96353 83.572C6.59582 83.1551 5.47087 82.6557 4.58871 82.0736C2.2993 80.563 0.879072 78.363 0.328031 75.4736C0.121699 74.3933 0.0123552 73.3026 0 72.2013L0.0315082 70.9065C0.0759868 69.1615 0.324941 67.4474 0.778376 65.7641C2.23876 60.3541 5.18547 56.0065 9.61851 52.7212C12.9544 50.2475 16.7419 48.7559 20.9809 48.2466C21.0353 48.2404 21.1434 48.2071 21.3053 48.1467Z" fill="url(#paint2_linear_418_3508)"/>
<path d="M42.618 66.0896C43.4618 66.7272 44.221 67.4542 44.8956 68.2705C44.8858 68.3014 44.8858 68.3322 44.8956 68.363C44.7202 68.5455 44.5478 68.7305 44.3786 68.918C44.0277 69.2793 44.0969 69.5284 44.5861 69.6653C45.1915 69.8342 45.8019 69.9859 46.4172 70.1203C46.9781 70.3423 47.4532 70.6851 47.8423 71.1488C48.7196 72.0071 49.5832 72.8783 50.4332 73.7625C50.7372 74.0782 50.9589 74.41 51.0986 74.7577C51.7373 76.3461 51.8528 77.9455 51.4451 79.5561C51.2264 80.4242 50.8298 81.264 50.2553 82.0755C49.7142 82.8413 49.0791 83.5374 48.3501 84.1639C48.2903 84.2161 48.2129 84.2439 48.133 84.2418C48.0532 84.2398 47.9766 84.208 47.9183 84.1528L46.4709 82.7802C46.4473 82.7575 46.4327 82.7271 46.4296 82.6945C46.4266 82.662 46.4353 82.6294 46.4542 82.6027C47.0794 81.7209 47.2178 80.8158 46.8694 79.8872C46.7446 79.5542 46.5654 79.3205 46.3319 79.1861C46.0342 79.0159 45.7111 79.0036 45.3627 79.1491C44.887 79.3489 44.3946 79.7207 43.8856 80.2645C43.363 80.8219 42.8366 81.367 42.3066 81.8997C42.2928 81.9135 42.2764 81.9245 42.2585 81.932C42.2406 81.9396 42.2214 81.9435 42.2021 81.9437C42.1828 81.9439 42.1638 81.9403 42.1461 81.933C42.1284 81.9258 42.1124 81.9151 42.099 81.9016L38.5 78.2797C38.4865 78.2661 38.4761 78.2499 38.4691 78.232C38.4622 78.2142 38.459 78.195 38.4597 78.1757C38.4604 78.1564 38.465 78.1373 38.4732 78.1196C38.4814 78.1018 38.493 78.0858 38.5074 78.0725C39.2536 77.3807 39.9474 76.7019 40.5886 76.0359C41 75.608 41.2515 75.2159 41.3429 74.8595C41.5344 74.1171 41.3546 73.3833 40.8036 72.6582C40.7956 72.6481 40.7856 72.6397 40.7743 72.6336C40.763 72.6275 40.7505 72.6238 40.7378 72.6228C40.7251 72.6217 40.7123 72.6234 40.7003 72.6275C40.6884 72.6317 40.6775 72.6384 40.6683 72.6471C40.3693 72.9357 40.0617 73.1441 39.7454 73.2723L39.6601 73.2187C38.8805 72.5244 38.2115 71.7383 37.653 70.8602C37.6073 70.6235 37.6228 70.3922 37.6994 70.1666C37.839 69.9261 38.0082 69.7066 38.2072 69.508C39.1857 68.5289 40.1655 67.5497 41.1465 66.5706C41.3441 66.3387 41.5875 66.1784 41.8766 66.0896H42.618Z" fill="url(#paint3_linear_418_3508)"/>
<path d="M29.5987 67.9394C31.83 68.3106 33.548 69.3884 34.7526 71.1728C36.1747 73.2779 36.4787 75.5661 35.6645 78.0374C35.6499 78.0819 35.6479 78.1295 35.6587 78.1748C35.6695 78.2202 35.6927 78.2617 35.7256 78.2945C40.1636 82.7254 44.6164 87.1692 49.084 91.6259C49.9711 92.5126 50.4487 93.004 50.5166 93.1002C50.7983 93.4973 50.9849 93.9412 51.0763 94.432C51.1628 94.8945 51.1331 95.3612 50.9874 95.8323C50.7094 96.7301 50.1645 97.3756 49.3528 97.769C48.7004 98.086 48.0246 98.1674 47.3253 98.0132C46.6149 97.8578 45.9915 97.4971 45.4553 96.9311C40.6949 92.2006 35.9523 87.4516 31.2277 82.6841C31.2082 82.6641 31.1834 82.6499 31.1563 82.643C31.1291 82.6361 31.1006 82.6369 31.0739 82.6452C28.3928 83.4751 26.028 83.1391 23.9795 81.6371C23.0529 80.9576 22.3345 80.1517 21.8242 79.2194C21.309 78.2748 20.9859 77.2149 20.8549 76.0396C20.8468 75.9696 20.8533 75.8986 20.874 75.8311C20.8947 75.7636 20.9293 75.7011 20.9754 75.6475C21.2126 75.3688 21.4721 75.0944 21.7538 74.8243C21.7599 74.8182 21.8192 74.7522 21.9317 74.6264C22.1491 74.3822 22.3999 74.41 22.6841 74.7096C23.6528 75.7307 24.6486 76.7321 25.6716 77.7137C25.7824 77.8206 25.9251 77.8899 26.0793 77.9116C26.8762 78.0189 27.6256 78.0195 28.3273 77.9135C28.5819 77.8752 28.8117 77.7649 29.0168 77.5823C29.6419 77.0237 30.2498 76.409 30.8404 75.7381C30.9176 75.6515 30.9661 75.543 30.9794 75.4273C31.0683 74.6677 31.0591 73.9321 30.9516 73.2206C30.9182 72.9924 30.8379 72.7933 30.7107 72.6231C30.5797 72.4467 30.4339 72.2821 30.2733 72.1292C29.3368 71.2302 28.4546 70.3454 27.6268 69.4747C27.5727 69.4183 27.5404 69.3445 27.5357 69.2663C27.5309 69.1881 27.554 69.1106 27.6009 69.0474C28.016 68.4876 28.4657 68.1182 28.95 67.9394H29.5987ZM49.5047 94.9426C49.5047 94.5378 49.3437 94.1497 49.0569 93.8635C48.7702 93.5773 48.3813 93.4165 47.9758 93.4165C47.5703 93.4165 47.1814 93.5773 46.8946 93.8635C46.6079 94.1497 46.4468 94.5378 46.4468 94.9426C46.4468 95.3473 46.6079 95.7355 46.8946 96.0217C47.1814 96.3079 47.5703 96.4686 47.9758 96.4686C48.3813 96.4686 48.7702 96.3079 49.0569 96.0217C49.3437 95.7355 49.5047 95.3473 49.5047 94.9426Z" fill="url(#paint4_linear_418_3508)"/>
<path d="M38.0181 74.1639L38.7187 74.902C38.7369 74.9213 38.7468 74.9472 38.7465 74.9749C38.7461 75.0026 38.7356 75.03 38.7168 75.0518L38.2164 75.6308C38.1015 75.6987 38.0397 75.6654 38.0311 75.5309C38.0348 75.3299 38.0323 75.1295 38.0237 74.9298L37.8643 74.2583C37.8099 74.0301 37.8612 73.9987 38.0181 74.1639Z" fill="url(#paint5_linear_418_3508)"/>
<path d="M44.1135 82.9745C44.1543 83.189 44.2698 83.3629 44.4601 83.4961C44.8098 83.9031 45.1841 84.2872 45.5832 84.6485C45.4794 84.8002 45.325 84.8465 45.1199 84.7873C44.5219 84.3717 43.9968 83.8784 43.5446 83.3074L43.8226 82.9837C43.8831 82.8493 43.9511 82.7975 44.0264 82.8283C44.0461 82.8367 44.0646 82.8547 44.0799 82.8804C44.0952 82.9061 44.1068 82.9386 44.1135 82.9745Z" fill="url(#paint6_linear_418_3508)"/>
<path d="M30.9849 85.0888C32.5281 86.5094 33.9502 87.9504 35.2512 89.4117C35.3068 89.5918 35.3093 89.7743 35.2586 89.9593C35.051 90.3687 34.7823 90.7343 34.4524 91.0562C32.5781 92.8862 30.778 94.6824 29.052 96.4446C28.8975 96.6012 28.7913 96.785 28.7332 96.9958C28.6381 97.3411 28.5096 97.6291 28.3477 97.8597C28.3094 97.914 28.0975 98.1396 27.7121 98.5367C27.0461 99.2211 26.6365 99.6108 26.4833 99.7058C25.789 100.134 25.1712 100.095 24.6301 99.5892C23.0844 98.1464 21.7908 96.8479 20.7493 95.6936C20.3354 95.2348 20.2044 94.7582 20.3564 94.2637C20.4392 93.9924 20.7023 93.6354 21.1459 93.1927C21.5894 92.7512 22.0324 92.3091 22.4747 91.8664C22.7218 91.7394 22.9769 91.6308 23.2401 91.5408C23.5008 91.4508 23.7164 91.3232 23.8869 91.1579C25.8464 89.2415 27.8004 87.3196 29.7488 85.3921C29.9663 85.2269 30.2832 85.0999 30.6995 85.0111C30.7499 85.0002 30.8021 85.0016 30.8517 85.0151C30.9014 85.0286 30.9471 85.0539 30.9849 85.0888Z" fill="url(#paint7_linear_418_3508)"/>
<defs>
<linearGradient id="paint0_linear_418_3508" x1="27.6585" y1="96.2025" x2="71.4929" y2="67.0127" gradientUnits="userSpaceOnUse">
<stop stop-color="#7FAD39"/>
<stop offset="0.487446" stop-color="#B1D17F"/>
<stop offset="1" stop-color="#7FAD39"/>
</linearGradient>
<linearGradient id="paint1_linear_418_3508" x1="27.6585" y1="96.2025" x2="71.4929" y2="67.0127" gradientUnits="userSpaceOnUse">
<stop stop-color="#7FAD39"/>
<stop offset="0.487446" stop-color="#B1D17F"/>
<stop offset="1" stop-color="#7FAD39"/>
</linearGradient>
<linearGradient id="paint2_linear_418_3508" x1="27.6585" y1="96.2025" x2="71.4929" y2="67.0127" gradientUnits="userSpaceOnUse">
<stop stop-color="#7FAD39"/>
<stop offset="0.487446" stop-color="#B1D17F"/>
<stop offset="1" stop-color="#7FAD39"/>
</linearGradient>
<linearGradient id="paint3_linear_418_3508" x1="27.6585" y1="96.2025" x2="71.4929" y2="67.0127" gradientUnits="userSpaceOnUse">
<stop stop-color="#7FAD39"/>
<stop offset="0.487446" stop-color="#B1D17F"/>
<stop offset="1" stop-color="#7FAD39"/>
</linearGradient>
<linearGradient id="paint4_linear_418_3508" x1="27.6585" y1="96.2025" x2="71.4929" y2="67.0127" gradientUnits="userSpaceOnUse">
<stop stop-color="#7FAD39"/>
<stop offset="0.487446" stop-color="#B1D17F"/>
<stop offset="1" stop-color="#7FAD39"/>
</linearGradient>
<linearGradient id="paint5_linear_418_3508" x1="27.6585" y1="96.2025" x2="71.4929" y2="67.0127" gradientUnits="userSpaceOnUse">
<stop stop-color="#7FAD39"/>
<stop offset="0.487446" stop-color="#B1D17F"/>
<stop offset="1" stop-color="#7FAD39"/>
</linearGradient>
<linearGradient id="paint6_linear_418_3508" x1="27.6585" y1="96.2025" x2="71.4929" y2="67.0127" gradientUnits="userSpaceOnUse">
<stop stop-color="#7FAD39"/>
<stop offset="0.487446" stop-color="#B1D17F"/>
<stop offset="1" stop-color="#7FAD39"/>
</linearGradient>
<linearGradient id="paint7_linear_418_3508" x1="27.6585" y1="96.2025" x2="71.4929" y2="67.0127" gradientUnits="userSpaceOnUse">
<stop stop-color="#7FAD39"/>
<stop offset="0.487446" stop-color="#B1D17F"/>
<stop offset="1" stop-color="#7FAD39"/>
</linearGradient>
</defs>
</svg>
