<svg width="30" height="30" viewBox="0 0 30 30" fill="none" xmlns="http://www.w3.org/2000/svg">
<path d="M0 5.41667C0 3.98008 0.570683 2.60233 1.5865 1.5865C2.60233 0.570683 3.98008 0 5.41667 0H24.5833C26.0199 0 27.3977 0.570683 28.4135 1.5865C29.4293 2.60233 30 3.98008 30 5.41667V24.5833C30 26.0199 29.4293 27.3977 28.4135 28.4135C27.3977 29.4293 26.0199 30 24.5833 30H5.41667C3.98008 30 2.60233 29.4293 1.5865 28.4135C0.570683 27.3977 0 26.0199 0 24.5833V5.41667ZM15.8333 10.4167C15.8333 11.1067 16.3933 11.6667 17.0833 11.6667H22.9167C23.2482 11.6667 23.5661 11.535 23.8006 11.3005C24.035 11.0661 24.1667 10.7482 24.1667 10.4167C24.1667 10.0851 24.035 9.7672 23.8006 9.53278C23.5661 9.29836 23.2482 9.16667 22.9167 9.16667H17.0833C16.7518 9.16667 16.4339 9.29836 16.1994 9.53278C15.965 9.7672 15.8333 10.0851 15.8333 10.4167ZM17.0833 18.3333C16.7518 18.3333 16.4339 18.465 16.1994 18.6994C15.965 18.9339 15.8333 19.2518 15.8333 19.5833C15.8333 19.9149 15.965 20.2328 16.1994 20.4672C16.4339 20.7016 16.7518 20.8333 17.0833 20.8333H22.9167C23.2482 20.8333 23.5661 20.7016 23.8006 20.4672C24.035 20.2328 24.1667 19.9149 24.1667 19.5833C24.1667 19.2518 24.035 18.9339 23.8006 18.6994C23.5661 18.465 23.2482 18.3333 22.9167 18.3333H17.0833ZM12.9667 9.63333C13.0895 9.5189 13.188 9.3809 13.2563 9.22756C13.3246 9.07423 13.3614 8.90871 13.3643 8.74087C13.3673 8.57303 13.3364 8.40632 13.2735 8.25067C13.2107 8.09502 13.1171 7.95363 12.9984 7.83494C12.8797 7.71624 12.7383 7.62266 12.5827 7.5598C12.427 7.49693 12.2603 7.46605 12.0925 7.46901C11.9246 7.47198 11.7591 7.50871 11.6058 7.57703C11.4524 7.64535 11.3144 7.74385 11.2 7.86667L8.75 10.3167L7.96667 9.53333C7.72971 9.31253 7.4163 9.19233 7.09246 9.19804C6.76863 9.20375 6.45965 9.33494 6.23063 9.56396C6.00161 9.79299 5.87042 10.102 5.86471 10.4258C5.85899 10.7496 5.9792 11.063 6.2 11.3L7.86667 12.9667C8.10104 13.2008 8.41875 13.3322 8.75 13.3322C9.08125 13.3322 9.39896 13.2008 9.63333 12.9667L12.9667 9.63333ZM12.9667 17.0333C12.7323 16.7992 12.4146 16.6678 12.0833 16.6678C11.7521 16.6678 11.4344 16.7992 11.2 17.0333L8.75 19.4833L7.96667 18.7C7.72971 18.4792 7.4163 18.359 7.09246 18.3647C6.76863 18.3704 6.45965 18.5016 6.23063 18.7306C6.00161 18.9597 5.87042 19.2686 5.86471 19.5925C5.85899 19.9163 5.9792 20.2297 6.2 20.4667L7.86667 22.1333C8.10104 22.3674 8.41875 22.4989 8.75 22.4989C9.08125 22.4989 9.39896 22.3674 9.63333 22.1333L12.9667 18.8C13.2008 18.5656 13.3322 18.2479 13.3322 17.9167C13.3322 17.5854 13.2008 17.2677 12.9667 17.0333Z" fill="#272E28"/>
</svg>
