<svg width="137" height="90" viewBox="0 0 137 90" fill="none" xmlns="http://www.w3.org/2000/svg">
<path d="M77.0805 0.676448C83.9163 1.60868 90.7614 2.47829 97.6158 3.2853C100.98 3.99954 104.243 5.02917 107.403 6.37418C108.322 6.76376 109.415 7.03277 110.682 7.18118C112.631 7.41772 114.353 7.98818 115.847 8.89258C119.202 10.9333 122.072 13.8042 124.458 17.5053C126.625 20.7565 128.753 24.0332 130.841 27.3354C130.896 27.4229 130.924 27.5244 130.92 27.6264C130.916 27.7283 130.881 27.8258 130.82 27.9059C127.423 32.1403 123.186 34.5335 118.109 35.0854C115.51 35.3683 112.58 34.9532 109.317 33.8401C106.338 32.8291 103.463 31.5583 100.693 30.0277C97.6714 28.3627 96.1516 27.5279 96.133 27.5232C92.2441 25.5799 87.7054 23.69 82.5171 21.8533C79.663 20.8423 77.0967 20.339 74.8181 20.3437C67.1098 20.353 59.4526 20.986 51.8464 22.2429C46.969 22.2058 42.5742 23.6111 38.6621 26.4588C37.5715 27.1545 36.474 27.8386 35.3695 28.5111C32.6685 30.1576 30.3412 32.1681 28.3874 34.5428C26.2156 37.1818 24.893 39.8764 24.4196 42.6267C23.6585 47.0281 24.9695 51.084 28.3526 54.7944C30.4595 57.3128 32.9122 59.4347 35.7106 61.16C39.3628 63.4094 41.7389 64.7428 42.8387 65.1602C45.9016 66.3244 49.1339 66.918 52.5356 66.9412C52.5824 66.9421 52.629 66.9336 52.6725 66.9161C52.716 66.8986 52.7555 66.8725 52.7887 66.8394C52.8218 66.8063 52.848 66.7668 52.8655 66.7233C52.883 66.6798 52.8915 66.6332 52.8906 66.5864C52.8674 64.9538 53.3036 63.5393 54.1993 62.3427C55.3966 60.7426 56.8375 59.5019 58.5221 58.6207C59.7334 57.9853 61.52 57.5192 63.8822 57.2224C66.9683 56.8328 68.8733 56.7099 69.5973 56.8537C73.9503 57.7117 77.2429 59.5228 79.4751 62.287C80.394 63.428 80.8047 65.1092 80.7072 67.3308C80.7053 67.3783 80.713 67.4259 80.7298 67.4699C80.7467 67.5139 80.7722 67.5532 80.8044 67.5847C80.8367 67.6163 80.8747 67.6392 80.9158 67.6519C80.9568 67.6645 80.9998 67.6666 81.0413 67.6578L86.6798 66.5307C86.7854 66.5089 86.8823 66.449 86.9572 66.3592C87.0321 66.2694 87.0811 66.1543 87.0975 66.0298C87.3203 64.1932 87.1787 62.5537 86.6729 61.1113C86.232 59.8544 85.283 58.5906 83.8258 57.3198C80.7907 54.6761 77.2638 52.8465 73.2449 51.8307C71.8155 51.4736 70.1936 51.3507 68.3791 51.462C65.3672 51.6476 62.6478 51.8864 60.2207 52.1786C58.0441 52.4383 56.2667 52.9276 54.8884 53.6465C53.3848 54.435 51.8348 55.4901 50.2384 56.8119C47.3751 59.1773 46.0873 62.076 46.375 65.5081C46.3935 65.7585 46.317 65.8003 46.1453 65.6333C45.6951 65.2159 45.4051 64.6524 45.2751 63.9428C44.6301 60.3715 45.4306 57.4079 47.6767 55.0518C48.2336 54.4721 49.1362 53.679 50.3846 52.6725C51.3267 51.9119 52.3151 51.2232 53.35 50.6063C54.7144 49.7947 56.3549 49.2451 58.2715 48.9575C62.0259 48.401 65.8011 48.023 69.5973 47.8236C71.1426 47.7447 72.5488 47.9001 73.8157 48.2897C76.5305 49.1245 79.127 50.2863 81.6052 51.7751C84.566 53.5607 86.5522 55.4298 87.5639 57.3824C88.868 59.9147 89.0072 62.7601 87.9816 65.9185C87.9119 66.1365 87.9885 66.2154 88.2113 66.1551C94.1236 64.5828 99.3073 61.7212 103.762 57.5702C103.926 57.416 104.04 57.215 104.09 56.9928C105.217 51.9096 104.264 47.587 101.229 44.0251C98.0079 40.2498 93.576 37.2467 87.9329 35.0158C83.6355 33.3137 81.0042 32.3027 80.0389 31.9826C77.7789 31.2313 75.4585 30.8788 73.0778 30.9252C67.0541 31.0365 61.0629 31.5188 55.1042 32.3722C55.0856 32.3769 53.7167 32.509 50.9972 32.7688C48.584 33.0007 46.4446 33.6801 44.579 34.8071C42.2865 36.1985 40.0543 37.678 37.8824 39.2457C35.9983 40.433 34.1118 42.2 32.223 44.5468C29.7634 47.6079 28.7285 50.9611 29.1183 54.6066C29.1601 55.0147 29.0209 55.0588 28.7007 54.7387C27.2435 51.3206 27.0463 48.0647 28.109 44.9712C28.9304 42.5734 30.7542 40.1153 33.5804 37.5969C36.0911 35.3614 39.0913 33.2442 42.5812 31.2452C45.5048 29.5663 48.1849 28.6317 50.6212 28.4416C54.5288 28.1355 58.4177 27.6925 62.2881 27.1128C65.2999 26.8438 68.3164 26.7278 71.3375 26.7649C74.3447 26.3661 77.1431 26.5841 79.7326 27.4189C83.3803 28.5877 87.5059 30.1993 92.1095 32.254C95.604 33.8123 98.6437 35.9179 101.229 38.5708C103.656 41.0568 105.183 43.6726 105.809 46.4183C106.51 49.4932 106.28 52.6609 105.12 55.9214C104.93 56.4548 105.027 56.5151 105.412 56.1023C107.668 53.7045 108.937 50.8846 109.22 47.6427C109.225 47.6056 109.218 47.0258 109.199 45.9035C109.162 44.0668 110.125 43.1833 112.088 43.2529C112.738 43.2761 113.067 43.2876 113.076 43.2876C119.105 43.2366 124.495 41.7734 129.247 38.8978C131.28 37.6688 132.925 35.8159 134.183 33.3392C134.289 33.1305 134.398 33.1236 134.51 33.3184C135.902 35.7394 136.526 38.2369 136.382 40.811C136.257 43.0326 135.767 45.4976 134.913 48.2062C132.649 55.3626 129.43 62.0134 125.258 68.1587C123.198 71.1872 120.831 73.8146 118.158 76.0409C115.573 78.1975 112.684 80.28 109.491 82.2882C106.772 84.0042 104.048 85.0686 101.319 85.4814C94.2883 86.5389 87.2971 87.8236 80.3452 89.3356C75.44 90.1426 70.5231 90.2144 65.5946 89.5512C55.0787 89.8666 44.5071 88.6631 33.8798 85.9406C29.2994 84.7672 25.1644 83.3549 21.4751 81.7038C15.3493 78.9628 10.3883 75.0205 6.59219 69.877C3.78918 66.0785 1.87254 61.8998 0.842297 57.3406C-0.837653 49.9014 -0.00462039 42.4922 3.34136 35.1132C5.17909 31.055 7.81735 26.3452 11.2561 20.9837C12.7226 18.6926 14.268 16.6843 15.8922 14.959C17.3216 13.4471 19.3009 11.9026 21.8301 10.3257C25.2317 8.2108 28.7262 6.25591 32.3135 4.46102C37.8406 1.14488 43.5395 -0.116642 49.41 0.676448C53.1365 1.17735 55.979 1.35127 57.9374 1.19822C60.4295 0.878199 62.9215 0.569785 65.4136 0.272956C69.3211 -0.195478 73.2101 -0.0609863 77.0805 0.676448ZM71.3654 5.39325C71.3654 4.83234 71.1424 4.29441 70.7456 3.89779C70.3487 3.50116 69.8104 3.27833 69.2492 3.27833C68.688 3.27833 68.1497 3.50116 67.7528 3.89779C67.356 4.29441 67.133 4.83234 67.133 5.39325C67.133 5.95415 67.356 6.49208 67.7528 6.8887C68.1497 7.28533 68.688 7.50816 69.2492 7.50816C69.8104 7.50816 70.3487 7.28533 70.7456 6.8887C71.1424 6.49208 71.3654 5.95415 71.3654 5.39325ZM45.5814 7.58467C45.5814 7.3042 45.5261 7.02647 45.4187 6.76735C45.3113 6.50822 45.1539 6.27278 44.9555 6.07446C44.757 5.87613 44.5215 5.71881 44.2622 5.61148C44.0029 5.50414 43.725 5.44889 43.4443 5.44889C42.8776 5.44889 42.334 5.67392 41.9332 6.07446C41.5324 6.475 41.3073 7.01823 41.3073 7.58467C41.3073 8.15112 41.5324 8.69437 41.9332 9.09491C42.334 9.49545 42.8776 9.72046 43.4443 9.72046C43.725 9.72046 44.0029 9.6652 44.2622 9.55787C44.5215 9.45054 44.757 9.29324 44.9555 9.09491C45.1539 8.89659 45.3113 8.66112 45.4187 8.402C45.5261 8.14287 45.5814 7.86515 45.5814 7.58467ZM97.8803 9.46305C97.8803 8.90214 97.6573 8.36422 97.2605 7.96759C96.8636 7.57097 96.3254 7.34814 95.7641 7.34814C95.4862 7.34814 95.211 7.40285 94.9543 7.50913C94.6975 7.61542 94.4642 7.77121 94.2677 7.96759C94.0712 8.16398 93.9154 8.39712 93.809 8.65371C93.7027 8.9103 93.6479 9.18532 93.6479 9.46305C93.6479 9.74079 93.7027 10.0158 93.809 10.2724C93.9154 10.529 94.0712 10.7621 94.2677 10.9585C94.4642 11.1549 94.6975 11.3107 94.9543 11.417C95.211 11.5233 95.4862 11.578 95.7641 11.578C96.042 11.578 96.3172 11.5233 96.5739 11.417C96.8307 11.3107 97.064 11.1549 97.2605 10.9585C97.457 10.7621 97.6129 10.529 97.7192 10.2724C97.8256 10.0158 97.8803 9.74079 97.8803 9.46305ZM114.218 68.3187C114.38 68.6804 114.373 69.1929 114.197 69.8562C114.163 69.985 114.155 70.1195 114.174 70.2515C114.193 70.3835 114.238 70.5103 114.307 70.6246C114.375 70.7388 114.467 70.838 114.574 70.9164C114.682 70.9947 114.805 71.0505 114.935 71.0806C115.919 71.3125 116.411 70.9183 116.411 69.8979C116.411 68.7987 116.411 67.5604 116.411 66.1829C116.411 66.1378 116.42 66.0931 116.438 66.0518C116.456 66.0105 116.483 65.9736 116.517 65.9434C116.55 65.9131 116.59 65.8903 116.633 65.8765C116.676 65.8626 116.721 65.858 116.766 65.8629C117.416 65.9325 118 65.9069 118.52 65.7863C118.984 65.6843 119.474 65.4083 119.989 64.9585C122.369 62.8807 124.026 60.1188 124.959 56.6728C124.992 56.5564 125.048 56.4481 125.125 56.3549C125.202 56.2618 125.298 56.1859 125.406 56.1321C125.515 56.0783 125.633 56.0479 125.754 56.0427C125.875 56.0376 125.995 56.0579 126.108 56.1023C127.036 56.478 127.458 56.0907 127.375 54.9405C127.398 52.6911 127.386 50.444 127.34 48.1992C127.338 48.0926 127.304 47.9898 127.242 47.906C127.181 47.8221 127.096 47.7616 126.999 47.7331C126.567 47.5986 126.124 47.5615 125.669 47.6218C125.576 47.6337 125.491 47.6824 125.431 47.7583C125.37 47.8342 125.339 47.9319 125.342 48.0323C125.49 52.7259 124.46 57.1389 122.251 61.2713C121.198 63.2424 119.717 64.4645 117.81 64.9376C117.661 64.9744 117.506 64.9789 117.355 64.9509C117.204 64.9229 117.061 64.863 116.935 64.7753C116.81 64.6875 116.705 64.574 116.628 64.4424C116.55 64.3107 116.503 64.1641 116.487 64.0123C116.353 62.7276 115.752 62.2267 114.684 62.5096C114.558 62.5426 114.448 62.6212 114.376 62.7304C114.304 62.8397 114.275 62.9717 114.295 63.101C114.452 64.1584 114.36 65.1115 114.016 65.9603C113.914 66.2246 113.448 67.0224 112.617 68.3535C109.368 73.5712 104.89 76.9847 99.182 78.5941C95.4044 79.6608 91.6338 79.2364 87.8702 77.3209C87.753 77.2603 87.6535 77.1822 87.5823 77.0951C87.5112 77.0081 87.4711 76.9154 87.4664 76.827L87.4108 75.6721C87.4067 75.5624 87.3776 75.4593 87.3283 75.3797C87.279 75.3001 87.2123 75.2487 87.1393 75.2339C85.993 74.9695 85.3387 75.6026 85.1762 77.1331C85.1632 77.2579 85.1242 77.3787 85.0619 77.4877C84.9996 77.5967 84.9152 77.6915 84.8143 77.7662C82.4289 79.5379 79.8417 80.76 77.0526 81.4325C66.7734 83.9231 57.4571 81.9311 49.1037 75.4565C48.9605 75.345 48.85 75.197 48.7838 75.0281C48.7176 74.8591 48.6983 74.6754 48.7278 74.4964C49.0109 72.8685 48.4308 72.2957 46.9876 72.7781C46.9024 72.8083 46.8304 72.8709 46.7835 72.9557C46.7367 73.0404 46.7179 73.1422 46.73 73.2442C46.8646 74.2692 46.4237 74.951 45.4074 75.2895C40.6924 76.8571 36.279 76.8015 32.1673 75.1226C29.8655 74.1811 27.5916 72.8128 25.3454 71.018C23.2432 69.3344 21.4635 67.3215 20.0063 64.9793C19.9212 64.8404 19.8741 64.61 19.874 64.3324V62.0714C19.8745 61.9725 19.8384 61.8741 19.7709 61.7904C19.7034 61.7066 19.6079 61.6418 19.4981 61.6052C18.2312 61.1832 17.6418 61.5264 17.73 62.6349C17.7339 62.679 17.729 62.7235 17.7156 62.7654C17.7022 62.8073 17.6806 62.8456 17.6523 62.8778C17.6241 62.9101 17.5897 62.9355 17.5514 62.9524C17.5132 62.9692 17.472 62.9772 17.4307 62.9757C15.695 62.8691 14.3608 62.1479 13.428 60.8121C10.4347 56.5035 8.96825 51.5896 9.02858 46.0704C9.03326 45.8504 9.11971 45.6357 9.27224 45.4652C13.7413 40.5443 17.1522 34.9788 19.5051 28.7685C19.5133 28.7442 19.5277 28.7225 19.547 28.7054C19.5663 28.6884 19.5899 28.6766 19.6155 28.671C19.6412 28.6655 19.6681 28.6664 19.6938 28.6737C19.7195 28.681 19.7431 28.6945 19.7626 28.7129C20.4819 29.4132 21.0783 29.6428 21.5516 29.4016C21.9043 29.23 22.0946 28.7871 22.1224 28.0728C22.1781 26.8716 22.2106 25.6681 22.2199 24.4622C22.2201 24.4201 22.2296 24.3787 22.2478 24.3407C22.2659 24.3028 22.2922 24.2693 22.3248 24.2427C22.3574 24.2161 22.3955 24.1971 22.4363 24.1869C22.4772 24.1767 22.5197 24.1757 22.561 24.1839C26.3757 24.9214 29.8725 24.3996 33.0514 22.6186C34.258 21.9461 35.7732 20.8863 37.597 19.4393C39.1192 18.2334 40.458 16.9464 41.6136 15.5782C42.1473 14.9428 42.428 15.0564 42.4559 15.9191L42.5324 18.6323C42.5345 18.7388 42.568 18.8439 42.6294 18.9359C42.6908 19.028 42.7777 19.1035 42.8805 19.1541C43.4003 19.4091 43.8202 19.3859 44.1405 19.0845C44.3771 18.8619 44.5001 18.4653 44.5094 17.8948C44.5233 16.6936 44.4955 15.4901 44.4259 14.2842C44.4243 14.247 44.4321 14.2099 44.4486 14.1765C44.465 14.1431 44.4896 14.1143 44.5201 14.0928C44.5506 14.0714 44.586 14.0579 44.623 14.0537C44.6601 14.0494 44.6976 14.0545 44.7322 14.0685C52.5379 17.1481 60.2276 16.6078 67.8013 12.4476C67.8426 12.4246 67.8892 12.4127 67.9364 12.4132C67.9837 12.4137 68.0301 12.4266 68.0709 12.4504C68.1116 12.4743 68.1455 12.5085 68.169 12.5494C68.1925 12.5904 68.205 12.6369 68.205 12.6841C68.205 13.839 68.1888 14.8222 68.1563 15.6338C68.1099 16.9139 68.6575 17.3615 69.7991 16.9765C69.899 16.9414 69.9859 16.878 70.048 16.7947C70.1102 16.7115 70.1448 16.6123 70.1472 16.5104L70.2446 12.8441C70.2493 12.6308 70.3351 12.5844 70.5022 12.705C77.8763 17.8346 85.8608 18.9222 94.4554 15.9678C94.4916 15.9547 94.5303 15.9505 94.5685 15.9557C94.6067 15.9609 94.6432 15.9753 94.6751 15.9977C94.707 16.0201 94.7334 16.0498 94.7521 16.0845C94.7708 16.1192 94.7812 16.1579 94.7826 16.1974L94.9705 20.5037C94.9741 20.6088 95.0111 20.71 95.0762 20.7925C95.1414 20.8751 95.2311 20.9348 95.3325 20.9629C96.6133 21.3293 97.0983 20.3901 96.7874 18.1453C96.6342 17.0739 96.8849 16.9719 97.5392 17.8392C102.236 24.0912 108.651 26.86 116.787 26.1458C116.894 26.1371 117.002 26.1506 117.104 26.1855C117.206 26.2204 117.3 26.276 117.379 26.3486C117.458 26.4211 117.521 26.5092 117.564 26.6073C117.607 26.7053 117.629 26.8111 117.629 26.918V31.4678C117.629 31.5765 117.668 31.6812 117.739 31.763C117.809 31.8447 117.906 31.898 118.012 31.9131C119.372 32.1125 119.998 31.7299 119.891 30.7652C119.915 28.4601 119.903 26.1574 119.857 23.8569C119.856 23.8185 119.846 23.7806 119.828 23.7454C119.809 23.7102 119.783 23.6785 119.75 23.652C119.717 23.6255 119.678 23.6047 119.636 23.591C119.593 23.5772 119.547 23.5706 119.502 23.5717L117.949 23.6065C117.903 23.6076 117.858 23.6172 117.817 23.6349C117.775 23.6525 117.738 23.6778 117.707 23.7091C117.677 23.7404 117.653 23.7771 117.639 23.8169C117.624 23.8567 117.618 23.8987 117.622 23.9404C117.706 24.8309 117.39 25.2692 116.675 25.2553C116.1 25.2414 115.807 25.2344 115.798 25.2344C108.354 25.8188 102.28 22.883 97.574 16.4269C97.0589 15.7173 96.8663 14.9312 96.9962 14.0685C97.2282 12.5612 96.5948 12.1484 95.0958 12.8302C95.0134 12.8676 94.9471 12.9363 94.9078 13.0248C94.8686 13.1134 94.8588 13.2165 94.88 13.3172C95.0332 14.0129 94.829 14.4813 94.2675 14.7225C88.1092 17.3568 81.8303 17.2989 75.4307 14.5486C73.5048 13.723 71.8086 12.5635 70.3421 11.0701C70.238 10.9637 70.1629 10.833 70.1239 10.6905C70.0849 10.5479 70.0833 10.3984 70.1193 10.2561C70.537 8.56328 69.9639 8.00673 68.4 8.58647C68.3132 8.61956 68.2417 8.68538 68.1983 8.77209C68.1549 8.85881 68.1425 8.96073 68.1633 9.05954C68.2747 9.61146 68.2329 10.1448 68.038 10.6596C67.9656 10.858 67.8162 11.0366 67.6134 11.1675C60.6801 15.5225 53.1597 16.1092 45.0524 12.9276C44.7933 12.8266 44.5849 12.6271 44.4727 12.3729C44.3605 12.1186 44.3537 11.8303 44.4537 11.571C44.8111 10.6573 44.2541 10.3558 42.783 10.6666C42.6219 10.6999 42.4805 10.7959 42.3893 10.9339C42.2981 11.0718 42.2645 11.2407 42.2958 11.404C42.5464 12.6192 42.1774 13.6094 41.1889 14.3746C38.7015 17.4264 35.7338 19.9031 32.2857 21.8046C29.311 23.4465 26.0856 23.85 22.6097 23.0151C22.5239 22.9951 22.4434 22.9569 22.3735 22.9032C22.3036 22.8496 22.246 22.7816 22.2045 22.7039C22.163 22.6262 22.1385 22.5406 22.1328 22.4527C22.1271 22.3648 22.1401 22.2767 22.1712 22.1942C22.5471 21.1971 21.8835 20.8469 20.1803 21.1437C20.0807 21.1617 19.9906 21.214 19.9258 21.2916C19.8609 21.3691 19.8253 21.467 19.8253 21.5681C19.8253 22.3009 19.8253 22.9896 19.8253 23.6343C19.8253 24.3486 19.7232 25.0257 19.519 25.6657C17.4863 31.9826 14.4095 37.7453 10.2885 42.9537C9.75021 43.6355 8.81745 43.8674 7.4902 43.6494C7.37928 43.631 7.26564 43.6364 7.15739 43.6651C7.04915 43.6939 6.94895 43.7453 6.86389 43.8157C6.77883 43.8861 6.71102 43.9737 6.66526 44.0725C6.61951 44.1712 6.59693 44.2785 6.59915 44.3868L6.76621 51.6499C6.76825 51.7495 6.79485 51.8471 6.84371 51.9341C6.89257 52.021 6.96222 52.0948 7.04659 52.149C7.13096 52.2031 7.2275 52.236 7.32785 52.2448C7.42821 52.2536 7.52931 52.2381 7.62242 52.1995C8.50416 51.847 8.91721 52.2389 8.86152 53.3752C8.84295 53.7555 9.24669 54.8848 10.0727 56.7632C10.0959 56.805 10.3117 57.3383 10.7201 58.3633C11.9406 61.3919 14.1543 63.312 17.3611 64.1236C17.4572 64.148 17.5426 64.2027 17.6042 64.2794C17.6658 64.356 17.7003 64.4504 17.7021 64.548C17.7439 65.7492 17.7485 66.9528 17.716 68.1587C17.6603 69.9953 18.3101 70.5078 19.6652 69.6961C19.7449 69.6479 19.8097 69.5724 19.8526 69.478C19.8956 69.3835 19.915 69.2737 19.9088 69.1605L19.8113 67.6021C19.7742 66.9482 19.9668 66.8855 20.3891 67.4143C23.7258 71.5977 27.9071 74.6008 32.9331 76.4235C37.365 78.0282 41.7342 77.9494 46.0408 76.187C46.105 76.1597 46.1748 76.1491 46.2443 76.1562C46.3137 76.1634 46.3806 76.1879 46.4391 76.2278C46.4976 76.2677 46.5458 76.3216 46.5795 76.3848C46.6132 76.4481 46.6315 76.5187 46.6325 76.5905L46.6604 80.6394C46.6607 80.7472 46.6906 80.8515 46.7464 80.9393C46.8021 81.0272 46.8811 81.0947 46.9736 81.1333C47.5073 81.356 47.9482 81.3305 48.2963 81.0568C48.5793 80.8296 48.7278 80.4145 48.7417 79.8115C48.7696 78.8746 48.7278 78.0491 48.6164 77.3349C48.4958 76.5742 48.7441 76.4281 49.3613 76.8966C56.0393 81.9473 63.5968 84.1295 72.0336 83.443C76.5537 83.0766 80.8279 81.6064 84.856 79.0323C85.1484 78.8422 85.3016 78.9187 85.3155 79.2619L85.4756 83.2413C85.4799 83.3462 85.5159 83.446 85.5778 83.5243C85.6398 83.6026 85.7239 83.6549 85.8167 83.6726C87.1253 83.9045 87.6358 83.3132 87.3481 81.8986C87.1996 81.1797 87.239 80.1315 87.4664 78.7541C87.4731 78.7143 87.489 78.6767 87.5129 78.6441C87.5368 78.6115 87.568 78.5848 87.6043 78.566C87.6406 78.5472 87.6809 78.5368 87.7221 78.5357C87.7634 78.5345 87.8045 78.5426 87.8424 78.5593C93.2256 80.8458 98.4418 80.6695 103.491 78.0305C107.7 75.8229 111.148 72.5879 113.835 68.3256C113.984 68.0891 114.111 68.0868 114.218 68.3187ZM23.1457 17.8253C23.1457 17.2644 22.9228 16.7264 22.5259 16.3298C22.129 15.9332 21.5908 15.7104 21.0295 15.7104C20.4683 15.7104 19.93 15.9332 19.5332 16.3298C19.1363 16.7264 18.9134 17.2644 18.9134 17.8253C18.9134 18.3862 19.1363 18.9241 19.5332 19.3207C19.93 19.7174 20.4683 19.9402 21.0295 19.9402C21.5908 19.9402 22.129 19.7174 22.5259 19.3207C22.9228 18.9241 23.1457 18.3862 23.1457 17.8253ZM120.796 20.4202C120.796 19.8667 120.576 19.3358 120.185 18.9444C119.793 18.553 119.262 18.3331 118.708 18.3331C118.154 18.3331 117.623 18.553 117.231 18.9444C116.84 19.3358 116.62 19.8667 116.62 20.4202C116.62 20.9737 116.84 21.5046 117.231 21.896C117.623 22.2874 118.154 22.5073 118.708 22.5073C119.262 22.5073 119.793 22.2874 120.185 21.896C120.576 21.5046 120.796 20.9737 120.796 20.4202ZM9.91962 40.6162C9.91962 40.0497 9.69443 39.5065 9.29365 39.106C8.89288 38.7054 8.34934 38.4804 7.78255 38.4804C7.50191 38.4804 7.22399 38.5357 6.96471 38.643C6.70543 38.7503 6.46985 38.9076 6.27141 39.106C6.07296 39.3043 5.91557 39.5397 5.80817 39.7989C5.70077 40.058 5.64548 40.3357 5.64548 40.6162C5.64548 40.8967 5.70077 41.1744 5.80817 41.4335C5.91557 41.6926 6.07296 41.9281 6.27141 42.1264C6.46985 42.3247 6.70543 42.482 6.96471 42.5894C7.22399 42.6967 7.50191 42.752 7.78255 42.752C8.34934 42.752 8.89288 42.5269 9.29365 42.1264C9.69443 41.7259 9.91962 41.1826 9.91962 40.6162ZM128.412 44.4703C128.412 43.9057 128.187 43.3642 127.788 42.965C127.388 42.5658 126.847 42.3415 126.282 42.3415C125.717 42.3415 125.175 42.5658 124.775 42.965C124.376 43.3642 124.152 43.9057 124.152 44.4703C124.152 45.0349 124.376 45.5764 124.775 45.9756C125.175 46.3748 125.717 46.5991 126.282 46.5991C126.847 46.5991 127.388 46.3748 127.788 45.9756C128.187 45.5764 128.412 45.0349 128.412 44.4703ZM20.9808 58.3494C20.9808 57.7811 20.7549 57.2361 20.3528 56.8342C19.9508 56.4324 19.4054 56.2067 18.8368 56.2067C18.2682 56.2067 17.7228 56.4324 17.3207 56.8342C16.9187 57.2361 16.6928 57.7811 16.6928 58.3494C16.6928 58.9177 16.9187 59.4627 17.3207 59.8645C17.7228 60.2664 18.2682 60.4921 18.8368 60.4921C19.4054 60.4921 19.9508 60.2664 20.3528 59.8645C20.7549 59.4627 20.9808 58.9177 20.9808 58.3494ZM117.511 59.4555C117.511 59.1769 117.456 58.901 117.349 58.6435C117.242 58.3861 117.086 58.1522 116.889 57.9552C116.692 57.7581 116.458 57.6018 116.2 57.4952C115.942 57.3886 115.666 57.3337 115.388 57.3337C115.109 57.3337 114.833 57.3886 114.575 57.4952C114.317 57.6018 114.083 57.7581 113.886 57.9552C113.689 58.1522 113.533 58.3861 113.426 58.6435C113.319 58.901 113.264 59.1769 113.264 59.4555C113.264 60.0183 113.488 60.558 113.886 60.9559C114.284 61.3538 114.824 61.5774 115.388 61.5774C115.951 61.5774 116.491 61.3538 116.889 60.9559C117.287 60.558 117.511 60.0183 117.511 59.4555ZM54.6796 67.0247C62.9169 68.866 71.0104 69.1883 78.96 67.9917C79.0563 67.9781 79.1443 67.9301 79.2072 67.857C79.2701 67.7839 79.3035 67.6907 79.3011 67.5952C79.2779 66.1806 78.7836 65.0211 77.8183 64.1167C76.2312 62.6279 74.2705 61.4406 71.9362 60.5547C70.8224 60.1373 69.1587 59.9912 66.9451 60.1165C64.4623 60.2556 62.9099 60.3855 62.2881 60.506C58.6683 61.2203 56.03 63.1752 54.3733 66.3707C54.3409 66.4319 54.3232 66.4998 54.3217 66.5692C54.3201 66.6385 54.3347 66.7074 54.3643 66.7706C54.3939 66.8338 54.4377 66.8895 54.4924 66.9336C54.547 66.9776 54.6111 67.0088 54.6796 67.0247ZM49.772 69.564C49.772 69.0049 49.5498 68.4687 49.1542 68.0734C48.7586 67.6781 48.2222 67.456 47.6628 67.456C47.1034 67.456 46.5669 67.6781 46.1713 68.0734C45.7758 68.4687 45.5536 69.0049 45.5536 69.564C45.5536 70.123 45.7758 70.6592 46.1713 71.0545C46.5669 71.4498 47.1034 71.6719 47.6628 71.6719C48.2222 71.6719 48.7586 71.4498 49.1542 71.0545C49.5498 70.6592 49.772 70.123 49.772 69.564ZM88.3923 72.0406C88.3923 71.4742 88.1671 70.9309 87.7664 70.5304C87.3656 70.1299 86.822 69.9049 86.2552 69.9049C85.6884 69.9049 85.1448 70.1299 84.7441 70.5304C84.3433 70.9309 84.1181 71.4742 84.1181 72.0406C84.1181 72.6071 84.3433 73.1503 84.7441 73.5509C85.1448 73.9514 85.6884 74.1764 86.2552 74.1764C86.822 74.1764 87.3656 73.9514 87.7664 73.5509C88.1671 73.1503 88.3923 72.6071 88.3923 72.0406Z" fill="url(#paint0_linear_430_7176)"/>
<path d="M69.3049 4.11318C69.4281 4.15056 69.541 4.21564 69.6351 4.30345C69.7291 4.39125 69.8018 4.49944 69.8475 4.61968C69.8932 4.73993 69.9107 4.86903 69.8987 4.9971C69.8867 5.12517 69.8455 5.2488 69.7783 5.35847C69.1657 6.35563 68.588 6.47158 68.045 5.70632C67.7573 5.30746 67.6899 4.92018 67.8431 4.5445C68.0519 4.02505 68.5392 3.88128 69.3049 4.11318Z" fill="url(#paint1_linear_430_7176)"/>
<path d="M42.9988 8.23864C43.6024 8.23864 44.0918 7.74962 44.0918 7.1464C44.0918 6.54317 43.6024 6.05418 42.9988 6.05418C42.3953 6.05418 41.9059 6.54317 41.9059 7.1464C41.9059 7.74962 42.3953 8.23864 42.9988 8.23864Z" fill="url(#paint2_linear_430_7176)"/>
<path d="M95.3534 10.0962C95.9455 10.0962 96.4254 9.61648 96.4254 9.02478C96.4254 8.43308 95.9455 7.9534 95.3534 7.9534C94.7614 7.9534 94.2814 8.43308 94.2814 9.02478C94.2814 9.61648 94.7614 10.0962 95.3534 10.0962Z" fill="url(#paint3_linear_430_7176)"/>
<path d="M20.5841 18.521C21.1723 18.521 21.6491 18.0444 21.6491 17.4566C21.6491 16.8687 21.1723 16.3922 20.5841 16.3922C19.9959 16.3922 19.519 16.8687 19.519 17.4566C19.519 18.0444 19.9959 18.521 20.5841 18.521Z" fill="url(#paint4_linear_430_7176)"/>
<path d="M118.269 21.1298C118.877 21.1298 119.369 20.6377 119.369 20.0306C119.369 19.4236 118.877 18.9314 118.269 18.9314C117.662 18.9314 117.17 19.4236 117.17 20.0306C117.17 20.6377 117.662 21.1298 118.269 21.1298Z" fill="url(#paint5_linear_430_7176)"/>
<path d="M77.9506 39.023C81.8488 40.3588 85.8654 42.2882 90.0003 44.8112C96.2607 48.6282 98.5532 54.1938 96.8779 61.5078C96.85 61.6423 96.7967 61.7374 96.7178 61.7931C96.5275 61.9276 96.4463 61.8534 96.4741 61.5705C97.0589 56.0327 95.0541 51.738 90.4597 48.6862C86.3248 45.9359 81.8976 43.8558 77.1779 42.4459C75.1221 41.8337 72.9061 41.553 70.5301 41.6041C65.7269 41.6968 60.9492 42.1421 56.1971 42.9398C53.0043 42.8656 50.1479 43.7793 47.628 45.6808C45.0849 47.1279 42.7668 48.8694 40.6738 50.9055C38.2328 53.2755 36.9821 56.2623 36.9218 59.866C36.9125 60.4828 36.8151 60.4968 36.6294 59.9078C35.5481 56.4757 36.0818 53.2407 38.2305 50.2028C39.3211 48.6584 40.4812 47.3366 41.711 46.2374C42.8759 45.1985 44.2472 44.1086 45.825 42.9676C49.1432 40.5698 52.9347 39.3292 57.1995 39.2457C61.9517 38.4016 66.7339 37.9865 71.5464 38.0004C73.8389 38.005 75.9737 38.3459 77.9506 39.023Z" fill="url(#paint6_linear_430_7176)"/>
<path d="M7.31617 41.3258C7.9236 41.3258 8.41599 40.8337 8.41599 40.2266C8.41599 39.6195 7.9236 39.1274 7.31617 39.1274C6.70873 39.1274 6.2163 39.6195 6.2163 40.2266C6.2163 40.8337 6.70873 41.3258 7.31617 41.3258Z" fill="url(#paint7_linear_430_7176)"/>
<path d="M125.864 45.1938C126.475 45.1938 126.971 44.6986 126.971 44.0877C126.971 43.4768 126.475 42.9815 125.864 42.9815C125.253 42.9815 124.757 43.4768 124.757 44.0877C124.757 44.6986 125.253 45.1938 125.864 45.1938Z" fill="url(#paint8_linear_430_7176)"/>
<path d="M18.3635 59.0521C18.9594 59.0521 19.4425 58.5693 19.4425 57.9737C19.4425 57.3782 18.9594 56.8954 18.3635 56.8954C17.7676 56.8954 17.2845 57.3782 17.2845 57.9737C17.2845 58.5693 17.7676 59.0521 18.3635 59.0521Z" fill="url(#paint9_linear_430_7176)"/>
<path d="M114.956 60.1234C115.559 60.1234 116.049 59.6344 116.049 59.0312C116.049 58.428 115.559 57.939 114.956 57.939C114.352 57.939 113.863 58.428 113.863 59.0312C113.863 59.6344 114.352 60.1234 114.956 60.1234Z" fill="url(#paint10_linear_430_7176)"/>
<path d="M47.2242 70.2179C47.8124 70.2179 48.2893 69.7414 48.2893 69.1535C48.2893 68.5657 47.8124 68.0891 47.2242 68.0891C46.636 68.0891 46.1592 68.5657 46.1592 69.1535C46.1592 69.7414 46.636 70.2179 47.2242 70.2179Z" fill="url(#paint11_linear_430_7176)"/>
<path d="M85.8097 72.7502C86.421 72.7502 86.9165 72.255 86.9165 71.6441C86.9165 71.0332 86.421 70.5379 85.8097 70.5379C85.1984 70.5379 84.7029 71.0332 84.7029 71.6441C84.7029 72.255 85.1984 72.7502 85.8097 72.7502Z" fill="url(#paint12_linear_430_7176)"/>
<defs>
<linearGradient id="paint0_linear_430_7176" x1="52.3985" y1="86.5823" x2="92.8282" y2="29.9108" gradientUnits="userSpaceOnUse">
<stop stop-color="#7FAD39"/>
<stop offset="0.487446" stop-color="#B1D17F"/>
<stop offset="1" stop-color="#7FAD39"/>
</linearGradient>
<linearGradient id="paint1_linear_430_7176" x1="52.3985" y1="86.5823" x2="92.8282" y2="29.9108" gradientUnits="userSpaceOnUse">
<stop stop-color="#7FAD39"/>
<stop offset="0.487446" stop-color="#B1D17F"/>
<stop offset="1" stop-color="#7FAD39"/>
</linearGradient>
<linearGradient id="paint2_linear_430_7176" x1="52.3985" y1="86.5823" x2="92.8282" y2="29.9108" gradientUnits="userSpaceOnUse">
<stop stop-color="#7FAD39"/>
<stop offset="0.487446" stop-color="#B1D17F"/>
<stop offset="1" stop-color="#7FAD39"/>
</linearGradient>
<linearGradient id="paint3_linear_430_7176" x1="52.3985" y1="86.5823" x2="92.8282" y2="29.9108" gradientUnits="userSpaceOnUse">
<stop stop-color="#7FAD39"/>
<stop offset="0.487446" stop-color="#B1D17F"/>
<stop offset="1" stop-color="#7FAD39"/>
</linearGradient>
<linearGradient id="paint4_linear_430_7176" x1="52.3985" y1="86.5823" x2="92.8282" y2="29.9108" gradientUnits="userSpaceOnUse">
<stop stop-color="#7FAD39"/>
<stop offset="0.487446" stop-color="#B1D17F"/>
<stop offset="1" stop-color="#7FAD39"/>
</linearGradient>
<linearGradient id="paint5_linear_430_7176" x1="52.3985" y1="86.5823" x2="92.8282" y2="29.9108" gradientUnits="userSpaceOnUse">
<stop stop-color="#7FAD39"/>
<stop offset="0.487446" stop-color="#B1D17F"/>
<stop offset="1" stop-color="#7FAD39"/>
</linearGradient>
<linearGradient id="paint6_linear_430_7176" x1="52.3985" y1="86.5823" x2="92.8282" y2="29.9108" gradientUnits="userSpaceOnUse">
<stop stop-color="#7FAD39"/>
<stop offset="0.487446" stop-color="#B1D17F"/>
<stop offset="1" stop-color="#7FAD39"/>
</linearGradient>
<linearGradient id="paint7_linear_430_7176" x1="52.3985" y1="86.5823" x2="92.8282" y2="29.9108" gradientUnits="userSpaceOnUse">
<stop stop-color="#7FAD39"/>
<stop offset="0.487446" stop-color="#B1D17F"/>
<stop offset="1" stop-color="#7FAD39"/>
</linearGradient>
<linearGradient id="paint8_linear_430_7176" x1="52.3985" y1="86.5823" x2="92.8282" y2="29.9108" gradientUnits="userSpaceOnUse">
<stop stop-color="#7FAD39"/>
<stop offset="0.487446" stop-color="#B1D17F"/>
<stop offset="1" stop-color="#7FAD39"/>
</linearGradient>
<linearGradient id="paint9_linear_430_7176" x1="52.3985" y1="86.5823" x2="92.8282" y2="29.9108" gradientUnits="userSpaceOnUse">
<stop stop-color="#7FAD39"/>
<stop offset="0.487446" stop-color="#B1D17F"/>
<stop offset="1" stop-color="#7FAD39"/>
</linearGradient>
<linearGradient id="paint10_linear_430_7176" x1="52.3985" y1="86.5823" x2="92.8282" y2="29.9108" gradientUnits="userSpaceOnUse">
<stop stop-color="#7FAD39"/>
<stop offset="0.487446" stop-color="#B1D17F"/>
<stop offset="1" stop-color="#7FAD39"/>
</linearGradient>
<linearGradient id="paint11_linear_430_7176" x1="52.3985" y1="86.5823" x2="92.8282" y2="29.9108" gradientUnits="userSpaceOnUse">
<stop stop-color="#7FAD39"/>
<stop offset="0.487446" stop-color="#B1D17F"/>
<stop offset="1" stop-color="#7FAD39"/>
</linearGradient>
<linearGradient id="paint12_linear_430_7176" x1="52.3985" y1="86.5823" x2="92.8282" y2="29.9108" gradientUnits="userSpaceOnUse">
<stop stop-color="#7FAD39"/>
<stop offset="0.487446" stop-color="#B1D17F"/>
<stop offset="1" stop-color="#7FAD39"/>
</linearGradient>
</defs>
</svg>
