<svg width="26" height="23" viewBox="0 0 26 23" fill="none" xmlns="http://www.w3.org/2000/svg">
<path d="M7.78235 22.8825C7 22.8825 6.33088 22.5992 5.775 22.0326C5.21912 21.4669 4.94118 20.7928 4.94118 20.0105V8.5531L2.68677 3.11781H0V0.647217H4.35441L6.39265 5.58839H24.6441C25.1177 5.58839 25.4779 5.78398 25.725 6.17516C25.9721 6.56633 25.9824 6.9678 25.7559 7.37957L22.2353 14.2663C23.2853 14.431 24.1656 14.9149 24.8764 15.7178C25.5862 16.5207 25.9412 17.4678 25.9412 18.559C25.9412 19.7531 25.5245 20.7722 24.6911 21.6163C23.8568 22.4605 22.8426 22.8825 21.6485 22.8825C20.4338 22.8825 19.4098 22.4605 18.5764 21.6163C17.7421 20.7722 17.325 19.7531 17.325 18.559C17.325 18.1472 17.3765 17.7663 17.4794 17.4163C17.5824 17.0663 17.7265 16.7266 17.9118 16.3972L13.8662 16.0266L10.1603 21.5855C9.89265 21.9972 9.54759 22.3163 9.12512 22.5428C8.70347 22.7693 8.25588 22.8825 7.78235 22.8825ZM7.81324 20.381C7.85441 20.381 7.94706 20.3296 8.09118 20.2266L11.0868 15.7796C10.0779 15.6766 9.28529 15.4345 8.70882 15.0532C8.13235 14.6727 7.7 14.2766 7.41177 13.8649V20.0413C7.41177 20.1443 7.45294 20.2266 7.53529 20.2884C7.61765 20.3502 7.71029 20.381 7.81324 20.381ZM21.6176 20.4119C22.1529 20.4119 22.5956 20.2316 22.9456 19.8709C23.2956 19.511 23.4706 19.0737 23.4706 18.559C23.4706 18.0237 23.2956 17.581 22.9456 17.231C22.5956 16.881 22.1529 16.706 21.6176 16.706C21.1029 16.706 20.6656 16.881 20.3058 17.231C19.9451 17.581 19.7647 18.0237 19.7647 18.559C19.7647 19.0737 19.9451 19.511 20.3058 19.8709C20.6656 20.2316 21.1029 20.4119 21.6176 20.4119Z" fill="white"/>
</svg>
